<svg xmlns="http://www.w3.org/2000/svg" viewBox="0 0 500 500" width="500" height="500" preserveAspectRatio="xMidYMid meet" style="width: 100%; height: 100%; transform: translate3d(0px, 0px, 0px);"><defs><clipPath id="__lottie_element_4452"><rect width="500" height="500" x="0" y="0"></rect></clipPath><clipPath id="__lottie_element_4457"><path d="M0,0 L300,0 L300,300 L0,300z"></path></clipPath><clipPath id="__lottie_element_4458"><path fill="#ffffff" clip-rule="nonzero" d=" M191.95899963378906,297.4410095214844 C181.3780059814453,297.4410095214844 171.16299438476562,295.0740051269531 161.60000610351562,290.4079895019531 C127.50599670410156,273.7720031738281 113.40799713134766,232.71099853515625 130.1750030517578,198.8800048828125 C130.1750030517578,198.8800048828125 157.83999633789062,143.0570068359375 157.83999633789062,143.0570068359375 C169.52099609375,119.48500061035156 193.23399353027344,104.84300231933594 219.72300720214844,104.84300231933594 C230.3040008544922,104.84300231933594 240.51699829101562,107.20899963378906 250.0800018310547,111.8759994506836 C284.17498779296875,128.51400756835938 298.2720031738281,169.572998046875 281.5039978027344,203.4040069580078 C281.5039978027344,203.4040069580078 253.83999633789062,259.22698974609375 253.83999633789062,259.22698974609375 C242.15899658203125,282.79901123046875 218.4459991455078,297.4410095214844 191.95899963378906,297.4410095214844" fill-opacity="1"></path></clipPath><clipPath id="__lottie_element_4467"><path d="M0,0 L250,0 L250,250 L0,250z"></path></clipPath><clipPath id="__lottie_element_4471"><path d="M0,0 L250,0 L250,250 L0,250z"></path></clipPath><clipPath id="__lottie_element_4475"><path d="M0,0 L250,0 L250,250 L0,250z"></path></clipPath><clipPath id="__lottie_element_4479"><path d="M0,0 L250,0 L250,250 L0,250z"></path></clipPath><clipPath id="__lottie_element_4483"><path d="M0,0 L250,0 L250,250 L0,250z"></path></clipPath><clipPath id="__lottie_element_4487"><path d="M0,0 L250,0 L250,250 L0,250z"></path></clipPath><clipPath id="__lottie_element_4491"><path d="M0,0 L250,0 L250,250 L0,250z"></path></clipPath><clipPath id="__lottie_element_4495"><path d="M0,0 L250,0 L250,250 L0,250z"></path></clipPath><clipPath id="__lottie_element_4499"><path d="M0,0 L250,0 L250,250 L0,250z"></path></clipPath><clipPath id="__lottie_element_4503"><path d="M0,0 L250,0 L250,250 L0,250z"></path></clipPath><clipPath id="__lottie_element_4507"><path d="M0,0 L250,0 L250,250 L0,250z"></path></clipPath><clipPath id="__lottie_element_4511"><path d="M0,0 L250,0 L250,250 L0,250z"></path></clipPath><clipPath id="__lottie_element_4515"><path d="M0,0 L250,0 L250,250 L0,250z"></path></clipPath><clipPath id="__lottie_element_4519"><path d="M0,0 L250,0 L250,250 L0,250z"></path></clipPath><clipPath id="__lottie_element_4523"><path d="M0,0 L250,0 L250,250 L0,250z"></path></clipPath><clipPath id="__lottie_element_4527"><path d="M0,0 L250,0 L250,250 L0,250z"></path></clipPath><clipPath id="__lottie_element_4531"><path d="M0,0 L250,0 L250,250 L0,250z"></path></clipPath><clipPath id="__lottie_element_4535"><path d="M0,0 L250,0 L250,250 L0,250z"></path></clipPath><clipPath id="__lottie_element_4539"><path d="M0,0 L250,0 L250,250 L0,250z"></path></clipPath><clipPath id="__lottie_element_4555"><path d="M0,0 L250,0 L250,250 L0,250z"></path></clipPath><clipPath id="__lottie_element_4559"><path d="M0,0 L250,0 L250,250 L0,250z"></path></clipPath><clipPath id="__lottie_element_4563"><path d="M0,0 L250,0 L250,250 L0,250z"></path></clipPath><clipPath id="__lottie_element_4567"><path d="M0,0 L250,0 L250,250 L0,250z"></path></clipPath><clipPath id="__lottie_element_4583"><path d="M0,0 L250,0 L250,250 L0,250z"></path></clipPath><clipPath id="__lottie_element_4587"><path d="M0,0 L250,0 L250,250 L0,250z"></path></clipPath><clipPath id="__lottie_element_4591"><path d="M0,0 L250,0 L250,250 L0,250z"></path></clipPath><clipPath id="__lottie_element_4595"><path d="M0,0 L250,0 L250,250 L0,250z"></path></clipPath><clipPath id="__lottie_element_4611"><path d="M0,0 L250,0 L250,250 L0,250z"></path></clipPath><clipPath id="__lottie_element_4615"><path d="M0,0 L250,0 L250,250 L0,250z"></path></clipPath><clipPath id="__lottie_element_4619"><path d="M0,0 L250,0 L250,250 L0,250z"></path></clipPath><clipPath id="__lottie_element_4623"><path d="M0,0 L250,0 L250,250 L0,250z"></path></clipPath><clipPath id="__lottie_element_4639"><path d="M0,0 L250,0 L250,250 L0,250z"></path></clipPath><clipPath id="__lottie_element_4643"><path d="M0,0 L250,0 L250,250 L0,250z"></path></clipPath><clipPath id="__lottie_element_4647"><path d="M0,0 L250,0 L250,250 L0,250z"></path></clipPath><clipPath id="__lottie_element_4651"><path d="M0,0 L250,0 L250,250 L0,250z"></path></clipPath><clipPath id="__lottie_element_4667"><path d="M0,0 L250,0 L250,250 L0,250z"></path></clipPath><clipPath id="__lottie_element_4671"><path d="M0,0 L250,0 L250,250 L0,250z"></path></clipPath><clipPath id="__lottie_element_4675"><path d="M0,0 L250,0 L250,250 L0,250z"></path></clipPath><clipPath id="__lottie_element_4679"><path d="M0,0 L250,0 L250,250 L0,250z"></path></clipPath><clipPath id="__lottie_element_4695"><path d="M0,0 L250,0 L250,250 L0,250z"></path></clipPath><clipPath id="__lottie_element_4699"><path d="M0,0 L250,0 L250,250 L0,250z"></path></clipPath><clipPath id="__lottie_element_4703"><path d="M0,0 L250,0 L250,250 L0,250z"></path></clipPath><clipPath id="__lottie_element_4707"><path d="M0,0 L250,0 L250,250 L0,250z"></path></clipPath><clipPath id="__lottie_element_4723"><path d="M0,0 L250,0 L250,250 L0,250z"></path></clipPath><clipPath id="__lottie_element_4727"><path d="M0,0 L250,0 L250,250 L0,250z"></path></clipPath><clipPath id="__lottie_element_4731"><path d="M0,0 L250,0 L250,250 L0,250z"></path></clipPath><clipPath id="__lottie_element_4735"><path d="M0,0 L250,0 L250,250 L0,250z"></path></clipPath><clipPath id="__lottie_element_4751"><path d="M0,0 L250,0 L250,250 L0,250z"></path></clipPath><clipPath id="__lottie_element_4755"><path d="M0,0 L250,0 L250,250 L0,250z"></path></clipPath><clipPath id="__lottie_element_4759"><path d="M0,0 L250,0 L250,250 L0,250z"></path></clipPath><clipPath id="__lottie_element_4763"><path d="M0,0 L250,0 L250,250 L0,250z"></path></clipPath><clipPath id="__lottie_element_4779"><path d="M0,0 L250,0 L250,250 L0,250z"></path></clipPath><clipPath id="__lottie_element_4783"><path d="M0,0 L250,0 L250,250 L0,250z"></path></clipPath><clipPath id="__lottie_element_4787"><path d="M0,0 L250,0 L250,250 L0,250z"></path></clipPath><clipPath id="__lottie_element_4791"><path d="M0,0 L250,0 L250,250 L0,250z"></path></clipPath><clipPath id="__lottie_element_4807"><path d="M0,0 L250,0 L250,250 L0,250z"></path></clipPath><clipPath id="__lottie_element_4811"><path d="M0,0 L250,0 L250,250 L0,250z"></path></clipPath><clipPath id="__lottie_element_4815"><path d="M0,0 L250,0 L250,250 L0,250z"></path></clipPath><clipPath id="__lottie_element_4819"><path d="M0,0 L250,0 L250,250 L0,250z"></path></clipPath><clipPath id="__lottie_element_4835"><path d="M0,0 L250,0 L250,250 L0,250z"></path></clipPath><clipPath id="__lottie_element_4839"><path d="M0,0 L250,0 L250,250 L0,250z"></path></clipPath><clipPath id="__lottie_element_4843"><path d="M0,0 L250,0 L250,250 L0,250z"></path></clipPath><clipPath id="__lottie_element_4847"><path d="M0,0 L250,0 L250,250 L0,250z"></path></clipPath><clipPath id="__lottie_element_4863"><path d="M0,0 L250,0 L250,250 L0,250z"></path></clipPath><clipPath id="__lottie_element_4867"><path d="M0,0 L250,0 L250,250 L0,250z"></path></clipPath><clipPath id="__lottie_element_4871"><path d="M0,0 L250,0 L250,250 L0,250z"></path></clipPath><clipPath id="__lottie_element_4875"><path d="M0,0 L250,0 L250,250 L0,250z"></path></clipPath><clipPath id="__lottie_element_4891"><path d="M0,0 L250,0 L250,250 L0,250z"></path></clipPath><clipPath id="__lottie_element_4895"><path d="M0,0 L250,0 L250,250 L0,250z"></path></clipPath><clipPath id="__lottie_element_4899"><path d="M0,0 L250,0 L250,250 L0,250z"></path></clipPath><clipPath id="__lottie_element_4903"><path d="M0,0 L250,0 L250,250 L0,250z"></path></clipPath><clipPath id="__lottie_element_4919"><path d="M0,0 L250,0 L250,250 L0,250z"></path></clipPath><clipPath id="__lottie_element_4923"><path d="M0,0 L250,0 L250,250 L0,250z"></path></clipPath><clipPath id="__lottie_element_4927"><path d="M0,0 L250,0 L250,250 L0,250z"></path></clipPath><clipPath id="__lottie_element_4931"><path d="M0,0 L250,0 L250,250 L0,250z"></path></clipPath></defs><g clip-path="url(#__lottie_element_4452)"><g transform="matrix(1,0,0,1,259,250)" opacity="1" style="display: block;"><g opacity="1" transform="matrix(1,0,0,1,0,0)"><path fill="rgb(34,188,133)" fill-opacity="1" d=" M-87.54199981689453,149.03599548339844 C-98.12300109863281,149.03599548339844 -108.33599853515625,146.66900634765625 -117.89900207519531,142.0030059814453 C-134.4149932861328,133.94500732421875 -146.7790069580078,119.98500061035156 -152.7169952392578,102.6969985961914 C-158.6540069580078,85.41200256347656 -157.44900512695312,66.86599731445312 -149.3249969482422,50.47700119018555 C-149.3249969482422,50.47700119018555 -68.66400146484375,-112.28500366210938 -68.66400146484375,-112.28500366210938 C-56.983001708984375,-135.85699462890625 -33.26900100708008,-150.5 -6.78000020980835,-150.5 C3.7990000247955322,-150.5 14.012999534606934,-148.13299560546875 23.576000213623047,-143.4669952392578 C57.67100143432617,-126.83100128173828 71.76899719238281,-85.77100372314453 55.000999450683594,-51.93899917602539 C55.000999450683594,-51.93899917602539 -25.660999298095703,110.82099914550781 -25.660999298095703,110.82099914550781 C-37.34199905395508,134.39300537109375 -61.053001403808594,149.03599548339844 -87.54199981689453,149.03599548339844z"></path><path stroke-linecap="butt" stroke-linejoin="miter" fill-opacity="0" stroke-miterlimit="4" stroke="rgb(20,20,20)" stroke-opacity="1" stroke-width="2" d=" M-87.54199981689453,149.03599548339844 C-98.12300109863281,149.03599548339844 -108.33599853515625,146.66900634765625 -117.89900207519531,142.0030059814453 C-134.4149932861328,133.94500732421875 -146.7790069580078,119.98500061035156 -152.7169952392578,102.6969985961914 C-158.6540069580078,85.41200256347656 -157.44900512695312,66.86599731445312 -149.3249969482422,50.47700119018555 C-149.3249969482422,50.47700119018555 -68.66400146484375,-112.28500366210938 -68.66400146484375,-112.28500366210938 C-56.983001708984375,-135.85699462890625 -33.26900100708008,-150.5 -6.78000020980835,-150.5 C3.7990000247955322,-150.5 14.012999534606934,-148.13299560546875 23.576000213623047,-143.4669952392578 C57.67100143432617,-126.83100128173828 71.76899719238281,-85.77100372314453 55.000999450683594,-51.93899917602539 C55.000999450683594,-51.93899917602539 -25.660999298095703,110.82099914550781 -25.660999298095703,110.82099914550781 C-37.34199905395508,134.39300537109375 -61.053001403808594,149.03599548339844 -87.54199981689453,149.03599548339844z"></path></g></g><g clip-path="url(#__lottie_element_4457)" transform="matrix(1,0,0,1,108,103)" opacity="1" style="display: block;"><g clip-path="url(#__lottie_element_4458)"><g transform="matrix(1.1454499959945679,0,0,1.1454499959945679,160,153)" opacity="1" style="display: block;"><g opacity="1" transform="matrix(1,0,0,1,12.5,6.25)"><path fill="rgb(24,115,232)" fill-opacity="1" d=" M150,-143.75 C150,-143.75 150,143.75 150,143.75 C150,143.75 -150,143.75 -150,143.75 C-150,143.75 -150,-143.75 -150,-143.75 C-150,-143.75 150,-143.75 150,-143.75z"></path></g></g><g clip-path="url(#__lottie_element_4467)" transform="matrix(0.20000000298023224,0,0,0.20000000298023224,142.5,147)" opacity="1" style="display: block;"><g clip-path="url(#__lottie_element_4527)" transform="matrix(0.5,0,0,0.5,125,125)" opacity="1" style="display: block;"><g transform="matrix(1,0,0,1,125,125)" opacity="1" style="display: block;"><g opacity="1" transform="matrix(1,0,0,1,0,0)"><path stroke-linecap="butt" stroke-linejoin="miter" fill-opacity="0" stroke-miterlimit="4" stroke="rgb(223,196,206)" stroke-opacity="1" stroke-width="36" d=" M50,-50 C50,-50 50,50 50,50 C50,50 -50,50 -50,50 C-50,50 -50,-50 -50,-50 C-50,-50 50,-50 50,-50z"></path></g></g></g><g clip-path="url(#__lottie_element_4531)" transform="matrix(0.5,0,0,0.5,125,0)" opacity="1" style="display: block;"><g transform="matrix(1,0,0,1,125,125)" opacity="1" style="display: block;"><g opacity="1" transform="matrix(1,0,0,1,0,0)"><path stroke-linecap="butt" stroke-linejoin="miter" fill-opacity="0" stroke-miterlimit="4" stroke="rgb(223,196,206)" stroke-opacity="1" stroke-width="36" d=" M50,-50 C50,-50 50,50 50,50 C50,50 -50,50 -50,50 C-50,50 -50,-50 -50,-50 C-50,-50 50,-50 50,-50z"></path></g></g></g><g clip-path="url(#__lottie_element_4535)" transform="matrix(0.5,0,0,0.5,0,0)" opacity="1" style="display: block;"><g transform="matrix(1,0,0,1,125,125)" opacity="1" style="display: block;"><g opacity="1" transform="matrix(1,0,0,1,0,0)"><path stroke-linecap="butt" stroke-linejoin="miter" fill-opacity="0" stroke-miterlimit="4" stroke="rgb(223,196,206)" stroke-opacity="1" stroke-width="36" d=" M50,-50 C50,-50 50,50 50,50 C50,50 -50,50 -50,50 C-50,50 -50,-50 -50,-50 C-50,-50 50,-50 50,-50z"></path></g></g></g><g clip-path="url(#__lottie_element_4539)" transform="matrix(0.5,0,0,0.5,0,125)" opacity="1" style="display: block;"><g transform="matrix(1,0,0,1,125,125)" opacity="1" style="display: block;"><g opacity="1" transform="matrix(1,0,0,1,0,0)"><path stroke-linecap="butt" stroke-linejoin="miter" fill-opacity="0" stroke-miterlimit="4" stroke="rgb(223,196,206)" stroke-opacity="1" stroke-width="36" d=" M50,-50 C50,-50 50,50 50,50 C50,50 -50,50 -50,50 C-50,50 -50,-50 -50,-50 C-50,-50 50,-50 50,-50z"></path></g></g></g></g><g clip-path="url(#__lottie_element_4471)" transform="matrix(0.20000000298023224,0,0,0.20000000298023224,92,147)" opacity="1" style="display: block;"><g clip-path="url(#__lottie_element_4555)" transform="matrix(0.5,0,0,0.5,125,125)" opacity="1" style="display: block;"><g transform="matrix(1,0,0,1,125,125)" opacity="1" style="display: block;"><g opacity="1" transform="matrix(1,0,0,1,0,0)"><path stroke-linecap="butt" stroke-linejoin="miter" fill-opacity="0" stroke-miterlimit="4" stroke="rgb(223,196,206)" stroke-opacity="1" stroke-width="36" d=" M50,-50 C50,-50 50,50 50,50 C50,50 -50,50 -50,50 C-50,50 -50,-50 -50,-50 C-50,-50 50,-50 50,-50z"></path></g></g></g><g clip-path="url(#__lottie_element_4559)" transform="matrix(0.5,0,0,0.5,125,0)" opacity="1" style="display: block;"><g transform="matrix(1,0,0,1,125,125)" opacity="1" style="display: block;"><g opacity="1" transform="matrix(1,0,0,1,0,0)"><path stroke-linecap="butt" stroke-linejoin="miter" fill-opacity="0" stroke-miterlimit="4" stroke="rgb(223,196,206)" stroke-opacity="1" stroke-width="36" d=" M50,-50 C50,-50 50,50 50,50 C50,50 -50,50 -50,50 C-50,50 -50,-50 -50,-50 C-50,-50 50,-50 50,-50z"></path></g></g></g><g clip-path="url(#__lottie_element_4563)" transform="matrix(0.5,0,0,0.5,0,0)" opacity="1" style="display: block;"><g transform="matrix(1,0,0,1,125,125)" opacity="1" style="display: block;"><g opacity="1" transform="matrix(1,0,0,1,0,0)"><path stroke-linecap="butt" stroke-linejoin="miter" fill-opacity="0" stroke-miterlimit="4" stroke="rgb(223,196,206)" stroke-opacity="1" stroke-width="36" d=" M50,-50 C50,-50 50,50 50,50 C50,50 -50,50 -50,50 C-50,50 -50,-50 -50,-50 C-50,-50 50,-50 50,-50z"></path></g></g></g><g clip-path="url(#__lottie_element_4567)" transform="matrix(0.5,0,0,0.5,0,125)" opacity="1" style="display: block;"><g transform="matrix(1,0,0,1,125,125)" opacity="1" style="display: block;"><g opacity="1" transform="matrix(1,0,0,1,0,0)"><path stroke-linecap="butt" stroke-linejoin="miter" fill-opacity="0" stroke-miterlimit="4" stroke="rgb(223,196,206)" stroke-opacity="1" stroke-width="36" d=" M50,-50 C50,-50 50,50 50,50 C50,50 -50,50 -50,50 C-50,50 -50,-50 -50,-50 C-50,-50 50,-50 50,-50z"></path></g></g></g></g><g clip-path="url(#__lottie_element_4475)" transform="matrix(0.20000000298023224,0,0,0.20000000298023224,243.5,147)" opacity="1" style="display: block;"><g clip-path="url(#__lottie_element_4583)" transform="matrix(0.5,0,0,0.5,125,125)" opacity="1" style="display: block;"><g transform="matrix(1,0,0,1,125,125)" opacity="1" style="display: block;"><g opacity="1" transform="matrix(1,0,0,1,0,0)"><path stroke-linecap="butt" stroke-linejoin="miter" fill-opacity="0" stroke-miterlimit="4" stroke="rgb(223,196,206)" stroke-opacity="1" stroke-width="36" d=" M50,-50 C50,-50 50,50 50,50 C50,50 -50,50 -50,50 C-50,50 -50,-50 -50,-50 C-50,-50 50,-50 50,-50z"></path></g></g></g><g clip-path="url(#__lottie_element_4587)" transform="matrix(0.5,0,0,0.5,125,0)" opacity="1" style="display: block;"><g transform="matrix(1,0,0,1,125,125)" opacity="1" style="display: block;"><g opacity="1" transform="matrix(1,0,0,1,0,0)"><path stroke-linecap="butt" stroke-linejoin="miter" fill-opacity="0" stroke-miterlimit="4" stroke="rgb(223,196,206)" stroke-opacity="1" stroke-width="36" d=" M50,-50 C50,-50 50,50 50,50 C50,50 -50,50 -50,50 C-50,50 -50,-50 -50,-50 C-50,-50 50,-50 50,-50z"></path></g></g></g><g clip-path="url(#__lottie_element_4591)" transform="matrix(0.5,0,0,0.5,0,0)" opacity="1" style="display: block;"><g transform="matrix(1,0,0,1,125,125)" opacity="1" style="display: block;"><g opacity="1" transform="matrix(1,0,0,1,0,0)"><path stroke-linecap="butt" stroke-linejoin="miter" fill-opacity="0" stroke-miterlimit="4" stroke="rgb(223,196,206)" stroke-opacity="1" stroke-width="36" d=" M50,-50 C50,-50 50,50 50,50 C50,50 -50,50 -50,50 C-50,50 -50,-50 -50,-50 C-50,-50 50,-50 50,-50z"></path></g></g></g><g clip-path="url(#__lottie_element_4595)" transform="matrix(0.5,0,0,0.5,0,125)" opacity="1" style="display: block;"><g transform="matrix(1,0,0,1,125,125)" opacity="1" style="display: block;"><g opacity="1" transform="matrix(1,0,0,1,0,0)"><path stroke-linecap="butt" stroke-linejoin="miter" fill-opacity="0" stroke-miterlimit="4" stroke="rgb(223,196,206)" stroke-opacity="1" stroke-width="36" d=" M50,-50 C50,-50 50,50 50,50 C50,50 -50,50 -50,50 C-50,50 -50,-50 -50,-50 C-50,-50 50,-50 50,-50z"></path></g></g></g></g><g clip-path="url(#__lottie_element_4479)" transform="matrix(0.20000000298023224,0,0,0.20000000298023224,193,147)" opacity="1" style="display: block;"><g clip-path="url(#__lottie_element_4611)" transform="matrix(0.5,0,0,0.5,125,125)" opacity="1" style="display: block;"><g transform="matrix(1,0,0,1,125,125)" opacity="1" style="display: block;"><g opacity="1" transform="matrix(1,0,0,1,0,0)"><path stroke-linecap="butt" stroke-linejoin="miter" fill-opacity="0" stroke-miterlimit="4" stroke="rgb(223,196,206)" stroke-opacity="1" stroke-width="36" d=" M50,-50 C50,-50 50,50 50,50 C50,50 -50,50 -50,50 C-50,50 -50,-50 -50,-50 C-50,-50 50,-50 50,-50z"></path></g></g></g><g clip-path="url(#__lottie_element_4615)" transform="matrix(0.5,0,0,0.5,125,0)" opacity="1" style="display: block;"><g transform="matrix(1,0,0,1,125,125)" opacity="1" style="display: block;"><g opacity="1" transform="matrix(1,0,0,1,0,0)"><path stroke-linecap="butt" stroke-linejoin="miter" fill-opacity="0" stroke-miterlimit="4" stroke="rgb(223,196,206)" stroke-opacity="1" stroke-width="36" d=" M50,-50 C50,-50 50,50 50,50 C50,50 -50,50 -50,50 C-50,50 -50,-50 -50,-50 C-50,-50 50,-50 50,-50z"></path></g></g></g><g clip-path="url(#__lottie_element_4619)" transform="matrix(0.5,0,0,0.5,0,0)" opacity="1" style="display: block;"><g transform="matrix(1,0,0,1,125,125)" opacity="1" style="display: block;"><g opacity="1" transform="matrix(1,0,0,1,0,0)"><path stroke-linecap="butt" stroke-linejoin="miter" fill-opacity="0" stroke-miterlimit="4" stroke="rgb(223,196,206)" stroke-opacity="1" stroke-width="36" d=" M50,-50 C50,-50 50,50 50,50 C50,50 -50,50 -50,50 C-50,50 -50,-50 -50,-50 C-50,-50 50,-50 50,-50z"></path></g></g></g><g clip-path="url(#__lottie_element_4623)" transform="matrix(0.5,0,0,0.5,0,125)" opacity="1" style="display: block;"><g transform="matrix(1,0,0,1,125,125)" opacity="1" style="display: block;"><g opacity="1" transform="matrix(1,0,0,1,0,0)"><path stroke-linecap="butt" stroke-linejoin="miter" fill-opacity="0" stroke-miterlimit="4" stroke="rgb(223,196,206)" stroke-opacity="1" stroke-width="36" d=" M50,-50 C50,-50 50,50 50,50 C50,50 -50,50 -50,50 C-50,50 -50,-50 -50,-50 C-50,-50 50,-50 50,-50z"></path></g></g></g></g><g clip-path="url(#__lottie_element_4483)" transform="matrix(0.20000000298023224,0,0,0.20000000298023224,142.5,197.75)" opacity="1" style="display: block;"><g clip-path="url(#__lottie_element_4639)" transform="matrix(0.5,0,0,0.5,125,125)" opacity="1" style="display: block;"><g transform="matrix(1,0,0,1,125,125)" opacity="1" style="display: block;"><g opacity="1" transform="matrix(1,0,0,1,0,0)"><path stroke-linecap="butt" stroke-linejoin="miter" fill-opacity="0" stroke-miterlimit="4" stroke="rgb(223,196,206)" stroke-opacity="1" stroke-width="36" d=" M50,-50 C50,-50 50,50 50,50 C50,50 -50,50 -50,50 C-50,50 -50,-50 -50,-50 C-50,-50 50,-50 50,-50z"></path></g></g></g><g clip-path="url(#__lottie_element_4643)" transform="matrix(0.5,0,0,0.5,125,0)" opacity="1" style="display: block;"><g transform="matrix(1,0,0,1,125,125)" opacity="1" style="display: block;"><g opacity="1" transform="matrix(1,0,0,1,0,0)"><path stroke-linecap="butt" stroke-linejoin="miter" fill-opacity="0" stroke-miterlimit="4" stroke="rgb(223,196,206)" stroke-opacity="1" stroke-width="36" d=" M50,-50 C50,-50 50,50 50,50 C50,50 -50,50 -50,50 C-50,50 -50,-50 -50,-50 C-50,-50 50,-50 50,-50z"></path></g></g></g><g clip-path="url(#__lottie_element_4647)" transform="matrix(0.5,0,0,0.5,0,0)" opacity="1" style="display: block;"><g transform="matrix(1,0,0,1,125,125)" opacity="1" style="display: block;"><g opacity="1" transform="matrix(1,0,0,1,0,0)"><path stroke-linecap="butt" stroke-linejoin="miter" fill-opacity="0" stroke-miterlimit="4" stroke="rgb(223,196,206)" stroke-opacity="1" stroke-width="36" d=" M50,-50 C50,-50 50,50 50,50 C50,50 -50,50 -50,50 C-50,50 -50,-50 -50,-50 C-50,-50 50,-50 50,-50z"></path></g></g></g><g clip-path="url(#__lottie_element_4651)" transform="matrix(0.5,0,0,0.5,0,125)" opacity="1" style="display: block;"><g transform="matrix(1,0,0,1,125,125)" opacity="1" style="display: block;"><g opacity="1" transform="matrix(1,0,0,1,0,0)"><path stroke-linecap="butt" stroke-linejoin="miter" fill-opacity="0" stroke-miterlimit="4" stroke="rgb(223,196,206)" stroke-opacity="1" stroke-width="36" d=" M50,-50 C50,-50 50,50 50,50 C50,50 -50,50 -50,50 C-50,50 -50,-50 -50,-50 C-50,-50 50,-50 50,-50z"></path></g></g></g></g><g clip-path="url(#__lottie_element_4487)" transform="matrix(0.20000000298023224,0,0,0.20000000298023224,92,197.75)" opacity="1" style="display: block;"><g clip-path="url(#__lottie_element_4667)" transform="matrix(0.5,0,0,0.5,125,125)" opacity="1" style="display: block;"><g transform="matrix(1,0,0,1,125,125)" opacity="1" style="display: block;"><g opacity="1" transform="matrix(1,0,0,1,0,0)"><path stroke-linecap="butt" stroke-linejoin="miter" fill-opacity="0" stroke-miterlimit="4" stroke="rgb(223,196,206)" stroke-opacity="1" stroke-width="36" d=" M50,-50 C50,-50 50,50 50,50 C50,50 -50,50 -50,50 C-50,50 -50,-50 -50,-50 C-50,-50 50,-50 50,-50z"></path></g></g></g><g clip-path="url(#__lottie_element_4671)" transform="matrix(0.5,0,0,0.5,125,0)" opacity="1" style="display: block;"><g transform="matrix(1,0,0,1,125,125)" opacity="1" style="display: block;"><g opacity="1" transform="matrix(1,0,0,1,0,0)"><path stroke-linecap="butt" stroke-linejoin="miter" fill-opacity="0" stroke-miterlimit="4" stroke="rgb(223,196,206)" stroke-opacity="1" stroke-width="36" d=" M50,-50 C50,-50 50,50 50,50 C50,50 -50,50 -50,50 C-50,50 -50,-50 -50,-50 C-50,-50 50,-50 50,-50z"></path></g></g></g><g clip-path="url(#__lottie_element_4675)" transform="matrix(0.5,0,0,0.5,0,0)" opacity="1" style="display: block;"><g transform="matrix(1,0,0,1,125,125)" opacity="1" style="display: block;"><g opacity="1" transform="matrix(1,0,0,1,0,0)"><path stroke-linecap="butt" stroke-linejoin="miter" fill-opacity="0" stroke-miterlimit="4" stroke="rgb(223,196,206)" stroke-opacity="1" stroke-width="36" d=" M50,-50 C50,-50 50,50 50,50 C50,50 -50,50 -50,50 C-50,50 -50,-50 -50,-50 C-50,-50 50,-50 50,-50z"></path></g></g></g><g clip-path="url(#__lottie_element_4679)" transform="matrix(0.5,0,0,0.5,0,125)" opacity="1" style="display: block;"><g transform="matrix(1,0,0,1,125,125)" opacity="1" style="display: block;"><g opacity="1" transform="matrix(1,0,0,1,0,0)"><path stroke-linecap="butt" stroke-linejoin="miter" fill-opacity="0" stroke-miterlimit="4" stroke="rgb(223,196,206)" stroke-opacity="1" stroke-width="36" d=" M50,-50 C50,-50 50,50 50,50 C50,50 -50,50 -50,50 C-50,50 -50,-50 -50,-50 C-50,-50 50,-50 50,-50z"></path></g></g></g></g><g clip-path="url(#__lottie_element_4491)" transform="matrix(0.20000000298023224,0,0,0.20000000298023224,243.5,197.75)" opacity="1" style="display: block;"><g clip-path="url(#__lottie_element_4695)" transform="matrix(0.5,0,0,0.5,125,125)" opacity="1" style="display: block;"><g transform="matrix(1,0,0,1,125,125)" opacity="1" style="display: block;"><g opacity="1" transform="matrix(1,0,0,1,0,0)"><path stroke-linecap="butt" stroke-linejoin="miter" fill-opacity="0" stroke-miterlimit="4" stroke="rgb(223,196,206)" stroke-opacity="1" stroke-width="36" d=" M50,-50 C50,-50 50,50 50,50 C50,50 -50,50 -50,50 C-50,50 -50,-50 -50,-50 C-50,-50 50,-50 50,-50z"></path></g></g></g><g clip-path="url(#__lottie_element_4699)" transform="matrix(0.5,0,0,0.5,125,0)" opacity="1" style="display: block;"><g transform="matrix(1,0,0,1,125,125)" opacity="1" style="display: block;"><g opacity="1" transform="matrix(1,0,0,1,0,0)"><path stroke-linecap="butt" stroke-linejoin="miter" fill-opacity="0" stroke-miterlimit="4" stroke="rgb(223,196,206)" stroke-opacity="1" stroke-width="36" d=" M50,-50 C50,-50 50,50 50,50 C50,50 -50,50 -50,50 C-50,50 -50,-50 -50,-50 C-50,-50 50,-50 50,-50z"></path></g></g></g><g clip-path="url(#__lottie_element_4703)" transform="matrix(0.5,0,0,0.5,0,0)" opacity="1" style="display: block;"><g transform="matrix(1,0,0,1,125,125)" opacity="1" style="display: block;"><g opacity="1" transform="matrix(1,0,0,1,0,0)"><path stroke-linecap="butt" stroke-linejoin="miter" fill-opacity="0" stroke-miterlimit="4" stroke="rgb(223,196,206)" stroke-opacity="1" stroke-width="36" d=" M50,-50 C50,-50 50,50 50,50 C50,50 -50,50 -50,50 C-50,50 -50,-50 -50,-50 C-50,-50 50,-50 50,-50z"></path></g></g></g><g clip-path="url(#__lottie_element_4707)" transform="matrix(0.5,0,0,0.5,0,125)" opacity="1" style="display: block;"><g transform="matrix(1,0,0,1,125,125)" opacity="1" style="display: block;"><g opacity="1" transform="matrix(1,0,0,1,0,0)"><path stroke-linecap="butt" stroke-linejoin="miter" fill-opacity="0" stroke-miterlimit="4" stroke="rgb(223,196,206)" stroke-opacity="1" stroke-width="36" d=" M50,-50 C50,-50 50,50 50,50 C50,50 -50,50 -50,50 C-50,50 -50,-50 -50,-50 C-50,-50 50,-50 50,-50z"></path></g></g></g></g><g clip-path="url(#__lottie_element_4495)" transform="matrix(0.20000000298023224,0,0,0.20000000298023224,193,197.75)" opacity="1" style="display: block;"><g clip-path="url(#__lottie_element_4723)" transform="matrix(0.5,0,0,0.5,125,125)" opacity="1" style="display: block;"><g transform="matrix(1,0,0,1,125,125)" opacity="1" style="display: block;"><g opacity="1" transform="matrix(1,0,0,1,0,0)"><path stroke-linecap="butt" stroke-linejoin="miter" fill-opacity="0" stroke-miterlimit="4" stroke="rgb(223,196,206)" stroke-opacity="1" stroke-width="36" d=" M50,-50 C50,-50 50,50 50,50 C50,50 -50,50 -50,50 C-50,50 -50,-50 -50,-50 C-50,-50 50,-50 50,-50z"></path></g></g></g><g clip-path="url(#__lottie_element_4727)" transform="matrix(0.5,0,0,0.5,125,0)" opacity="1" style="display: block;"><g transform="matrix(1,0,0,1,125,125)" opacity="1" style="display: block;"><g opacity="1" transform="matrix(1,0,0,1,0,0)"><path stroke-linecap="butt" stroke-linejoin="miter" fill-opacity="0" stroke-miterlimit="4" stroke="rgb(223,196,206)" stroke-opacity="1" stroke-width="36" d=" M50,-50 C50,-50 50,50 50,50 C50,50 -50,50 -50,50 C-50,50 -50,-50 -50,-50 C-50,-50 50,-50 50,-50z"></path></g></g></g><g clip-path="url(#__lottie_element_4731)" transform="matrix(0.5,0,0,0.5,0,0)" opacity="1" style="display: block;"><g transform="matrix(1,0,0,1,125,125)" opacity="1" style="display: block;"><g opacity="1" transform="matrix(1,0,0,1,0,0)"><path stroke-linecap="butt" stroke-linejoin="miter" fill-opacity="0" stroke-miterlimit="4" stroke="rgb(223,196,206)" stroke-opacity="1" stroke-width="36" d=" M50,-50 C50,-50 50,50 50,50 C50,50 -50,50 -50,50 C-50,50 -50,-50 -50,-50 C-50,-50 50,-50 50,-50z"></path></g></g></g><g clip-path="url(#__lottie_element_4735)" transform="matrix(0.5,0,0,0.5,0,125)" opacity="1" style="display: block;"><g transform="matrix(1,0,0,1,125,125)" opacity="1" style="display: block;"><g opacity="1" transform="matrix(1,0,0,1,0,0)"><path stroke-linecap="butt" stroke-linejoin="miter" fill-opacity="0" stroke-miterlimit="4" stroke="rgb(223,196,206)" stroke-opacity="1" stroke-width="36" d=" M50,-50 C50,-50 50,50 50,50 C50,50 -50,50 -50,50 C-50,50 -50,-50 -50,-50 C-50,-50 50,-50 50,-50z"></path></g></g></g></g><g clip-path="url(#__lottie_element_4499)" transform="matrix(0.20000000298023224,0,0,0.20000000298023224,243.5,248.5)" opacity="1" style="display: block;"><g clip-path="url(#__lottie_element_4751)" transform="matrix(0.5,0,0,0.5,125,125)" opacity="1" style="display: block;"><g transform="matrix(1,0,0,1,125,125)" opacity="1" style="display: block;"><g opacity="1" transform="matrix(1,0,0,1,0,0)"><path stroke-linecap="butt" stroke-linejoin="miter" fill-opacity="0" stroke-miterlimit="4" stroke="rgb(223,196,206)" stroke-opacity="1" stroke-width="36" d=" M50,-50 C50,-50 50,50 50,50 C50,50 -50,50 -50,50 C-50,50 -50,-50 -50,-50 C-50,-50 50,-50 50,-50z"></path></g></g></g><g clip-path="url(#__lottie_element_4755)" transform="matrix(0.5,0,0,0.5,125,0)" opacity="1" style="display: block;"><g transform="matrix(1,0,0,1,125,125)" opacity="1" style="display: block;"><g opacity="1" transform="matrix(1,0,0,1,0,0)"><path stroke-linecap="butt" stroke-linejoin="miter" fill-opacity="0" stroke-miterlimit="4" stroke="rgb(223,196,206)" stroke-opacity="1" stroke-width="36" d=" M50,-50 C50,-50 50,50 50,50 C50,50 -50,50 -50,50 C-50,50 -50,-50 -50,-50 C-50,-50 50,-50 50,-50z"></path></g></g></g><g clip-path="url(#__lottie_element_4759)" transform="matrix(0.5,0,0,0.5,0,0)" opacity="1" style="display: block;"><g transform="matrix(1,0,0,1,125,125)" opacity="1" style="display: block;"><g opacity="1" transform="matrix(1,0,0,1,0,0)"><path stroke-linecap="butt" stroke-linejoin="miter" fill-opacity="0" stroke-miterlimit="4" stroke="rgb(223,196,206)" stroke-opacity="1" stroke-width="36" d=" M50,-50 C50,-50 50,50 50,50 C50,50 -50,50 -50,50 C-50,50 -50,-50 -50,-50 C-50,-50 50,-50 50,-50z"></path></g></g></g><g clip-path="url(#__lottie_element_4763)" transform="matrix(0.5,0,0,0.5,0,125)" opacity="1" style="display: block;"><g transform="matrix(1,0,0,1,125,125)" opacity="1" style="display: block;"><g opacity="1" transform="matrix(1,0,0,1,0,0)"><path stroke-linecap="butt" stroke-linejoin="miter" fill-opacity="0" stroke-miterlimit="4" stroke="rgb(223,196,206)" stroke-opacity="1" stroke-width="36" d=" M50,-50 C50,-50 50,50 50,50 C50,50 -50,50 -50,50 C-50,50 -50,-50 -50,-50 C-50,-50 50,-50 50,-50z"></path></g></g></g></g><g clip-path="url(#__lottie_element_4503)" transform="matrix(0.20000000298023224,0,0,0.20000000298023224,193,248.5)" opacity="1" style="display: block;"><g clip-path="url(#__lottie_element_4779)" transform="matrix(0.5,0,0,0.5,125,125)" opacity="1" style="display: block;"><g transform="matrix(1,0,0,1,125,125)" opacity="1" style="display: block;"><g opacity="1" transform="matrix(1,0,0,1,0,0)"><path stroke-linecap="butt" stroke-linejoin="miter" fill-opacity="0" stroke-miterlimit="4" stroke="rgb(223,196,206)" stroke-opacity="1" stroke-width="36" d=" M50,-50 C50,-50 50,50 50,50 C50,50 -50,50 -50,50 C-50,50 -50,-50 -50,-50 C-50,-50 50,-50 50,-50z"></path></g></g></g><g clip-path="url(#__lottie_element_4783)" transform="matrix(0.5,0,0,0.5,125,0)" opacity="1" style="display: block;"><g transform="matrix(1,0,0,1,125,125)" opacity="1" style="display: block;"><g opacity="1" transform="matrix(1,0,0,1,0,0)"><path stroke-linecap="butt" stroke-linejoin="miter" fill-opacity="0" stroke-miterlimit="4" stroke="rgb(223,196,206)" stroke-opacity="1" stroke-width="36" d=" M50,-50 C50,-50 50,50 50,50 C50,50 -50,50 -50,50 C-50,50 -50,-50 -50,-50 C-50,-50 50,-50 50,-50z"></path></g></g></g><g clip-path="url(#__lottie_element_4787)" transform="matrix(0.5,0,0,0.5,0,0)" opacity="1" style="display: block;"><g transform="matrix(1,0,0,1,125,125)" opacity="1" style="display: block;"><g opacity="1" transform="matrix(1,0,0,1,0,0)"><path stroke-linecap="butt" stroke-linejoin="miter" fill-opacity="0" stroke-miterlimit="4" stroke="rgb(223,196,206)" stroke-opacity="1" stroke-width="36" d=" M50,-50 C50,-50 50,50 50,50 C50,50 -50,50 -50,50 C-50,50 -50,-50 -50,-50 C-50,-50 50,-50 50,-50z"></path></g></g></g><g clip-path="url(#__lottie_element_4791)" transform="matrix(0.5,0,0,0.5,0,125)" opacity="1" style="display: block;"><g transform="matrix(1,0,0,1,125,125)" opacity="1" style="display: block;"><g opacity="1" transform="matrix(1,0,0,1,0,0)"><path stroke-linecap="butt" stroke-linejoin="miter" fill-opacity="0" stroke-miterlimit="4" stroke="rgb(223,196,206)" stroke-opacity="1" stroke-width="36" d=" M50,-50 C50,-50 50,50 50,50 C50,50 -50,50 -50,50 C-50,50 -50,-50 -50,-50 C-50,-50 50,-50 50,-50z"></path></g></g></g></g><g clip-path="url(#__lottie_element_4507)" transform="matrix(0.20000000298023224,0,0,0.20000000298023224,92,248.5)" opacity="1" style="display: block;"><g clip-path="url(#__lottie_element_4807)" transform="matrix(0.5,0,0,0.5,125,125)" opacity="1" style="display: block;"><g transform="matrix(1,0,0,1,125,125)" opacity="1" style="display: block;"><g opacity="1" transform="matrix(1,0,0,1,0,0)"><path stroke-linecap="butt" stroke-linejoin="miter" fill-opacity="0" stroke-miterlimit="4" stroke="rgb(223,196,206)" stroke-opacity="1" stroke-width="36" d=" M50,-50 C50,-50 50,50 50,50 C50,50 -50,50 -50,50 C-50,50 -50,-50 -50,-50 C-50,-50 50,-50 50,-50z"></path></g></g></g><g clip-path="url(#__lottie_element_4811)" transform="matrix(0.5,0,0,0.5,125,0)" opacity="1" style="display: block;"><g transform="matrix(1,0,0,1,125,125)" opacity="1" style="display: block;"><g opacity="1" transform="matrix(1,0,0,1,0,0)"><path stroke-linecap="butt" stroke-linejoin="miter" fill-opacity="0" stroke-miterlimit="4" stroke="rgb(223,196,206)" stroke-opacity="1" stroke-width="36" d=" M50,-50 C50,-50 50,50 50,50 C50,50 -50,50 -50,50 C-50,50 -50,-50 -50,-50 C-50,-50 50,-50 50,-50z"></path></g></g></g><g clip-path="url(#__lottie_element_4815)" transform="matrix(0.5,0,0,0.5,0,0)" opacity="1" style="display: block;"><g transform="matrix(1,0,0,1,125,125)" opacity="1" style="display: block;"><g opacity="1" transform="matrix(1,0,0,1,0,0)"><path stroke-linecap="butt" stroke-linejoin="miter" fill-opacity="0" stroke-miterlimit="4" stroke="rgb(223,196,206)" stroke-opacity="1" stroke-width="36" d=" M50,-50 C50,-50 50,50 50,50 C50,50 -50,50 -50,50 C-50,50 -50,-50 -50,-50 C-50,-50 50,-50 50,-50z"></path></g></g></g><g clip-path="url(#__lottie_element_4819)" transform="matrix(0.5,0,0,0.5,0,125)" opacity="1" style="display: block;"><g transform="matrix(1,0,0,1,125,125)" opacity="1" style="display: block;"><g opacity="1" transform="matrix(1,0,0,1,0,0)"><path stroke-linecap="butt" stroke-linejoin="miter" fill-opacity="0" stroke-miterlimit="4" stroke="rgb(223,196,206)" stroke-opacity="1" stroke-width="36" d=" M50,-50 C50,-50 50,50 50,50 C50,50 -50,50 -50,50 C-50,50 -50,-50 -50,-50 C-50,-50 50,-50 50,-50z"></path></g></g></g></g><g clip-path="url(#__lottie_element_4511)" transform="matrix(0.20000000298023224,0,0,0.20000000298023224,142.5,248.5)" opacity="1" style="display: block;"><g clip-path="url(#__lottie_element_4835)" transform="matrix(0.5,0,0,0.5,125,125)" opacity="1" style="display: block;"><g transform="matrix(1,0,0,1,125,125)" opacity="1" style="display: block;"><g opacity="1" transform="matrix(1,0,0,1,0,0)"><path stroke-linecap="butt" stroke-linejoin="miter" fill-opacity="0" stroke-miterlimit="4" stroke="rgb(223,196,206)" stroke-opacity="1" stroke-width="36" d=" M50,-50 C50,-50 50,50 50,50 C50,50 -50,50 -50,50 C-50,50 -50,-50 -50,-50 C-50,-50 50,-50 50,-50z"></path></g></g></g><g clip-path="url(#__lottie_element_4839)" transform="matrix(0.5,0,0,0.5,125,0)" opacity="1" style="display: block;"><g transform="matrix(1,0,0,1,125,125)" opacity="1" style="display: block;"><g opacity="1" transform="matrix(1,0,0,1,0,0)"><path stroke-linecap="butt" stroke-linejoin="miter" fill-opacity="0" stroke-miterlimit="4" stroke="rgb(223,196,206)" stroke-opacity="1" stroke-width="36" d=" M50,-50 C50,-50 50,50 50,50 C50,50 -50,50 -50,50 C-50,50 -50,-50 -50,-50 C-50,-50 50,-50 50,-50z"></path></g></g></g><g clip-path="url(#__lottie_element_4843)" transform="matrix(0.5,0,0,0.5,0,0)" opacity="1" style="display: block;"><g transform="matrix(1,0,0,1,125,125)" opacity="1" style="display: block;"><g opacity="1" transform="matrix(1,0,0,1,0,0)"><path stroke-linecap="butt" stroke-linejoin="miter" fill-opacity="0" stroke-miterlimit="4" stroke="rgb(223,196,206)" stroke-opacity="1" stroke-width="36" d=" M50,-50 C50,-50 50,50 50,50 C50,50 -50,50 -50,50 C-50,50 -50,-50 -50,-50 C-50,-50 50,-50 50,-50z"></path></g></g></g><g clip-path="url(#__lottie_element_4847)" transform="matrix(0.5,0,0,0.5,0,125)" opacity="1" style="display: block;"><g transform="matrix(1,0,0,1,125,125)" opacity="1" style="display: block;"><g opacity="1" transform="matrix(1,0,0,1,0,0)"><path stroke-linecap="butt" stroke-linejoin="miter" fill-opacity="0" stroke-miterlimit="4" stroke="rgb(223,196,206)" stroke-opacity="1" stroke-width="36" d=" M50,-50 C50,-50 50,50 50,50 C50,50 -50,50 -50,50 C-50,50 -50,-50 -50,-50 C-50,-50 50,-50 50,-50z"></path></g></g></g></g><g clip-path="url(#__lottie_element_4515)" transform="matrix(0.20000000298023224,0,0,0.20000000298023224,142.5,96.25)" opacity="1" style="display: block;"><g clip-path="url(#__lottie_element_4863)" transform="matrix(0.5,0,0,0.5,125,125)" opacity="1" style="display: block;"><g transform="matrix(1,0,0,1,125,125)" opacity="1" style="display: block;"><g opacity="1" transform="matrix(1,0,0,1,0,0)"><path stroke-linecap="butt" stroke-linejoin="miter" fill-opacity="0" stroke-miterlimit="4" stroke="rgb(223,196,206)" stroke-opacity="1" stroke-width="36" d=" M50,-50 C50,-50 50,50 50,50 C50,50 -50,50 -50,50 C-50,50 -50,-50 -50,-50 C-50,-50 50,-50 50,-50z"></path></g></g></g><g clip-path="url(#__lottie_element_4867)" transform="matrix(0.5,0,0,0.5,125,0)" opacity="1" style="display: block;"><g transform="matrix(1,0,0,1,125,125)" opacity="1" style="display: block;"><g opacity="1" transform="matrix(1,0,0,1,0,0)"><path stroke-linecap="butt" stroke-linejoin="miter" fill-opacity="0" stroke-miterlimit="4" stroke="rgb(223,196,206)" stroke-opacity="1" stroke-width="36" d=" M50,-50 C50,-50 50,50 50,50 C50,50 -50,50 -50,50 C-50,50 -50,-50 -50,-50 C-50,-50 50,-50 50,-50z"></path></g></g></g><g clip-path="url(#__lottie_element_4871)" transform="matrix(0.5,0,0,0.5,0,0)" opacity="1" style="display: block;"><g transform="matrix(1,0,0,1,125,125)" opacity="1" style="display: block;"><g opacity="1" transform="matrix(1,0,0,1,0,0)"><path stroke-linecap="butt" stroke-linejoin="miter" fill-opacity="0" stroke-miterlimit="4" stroke="rgb(223,196,206)" stroke-opacity="1" stroke-width="36" d=" M50,-50 C50,-50 50,50 50,50 C50,50 -50,50 -50,50 C-50,50 -50,-50 -50,-50 C-50,-50 50,-50 50,-50z"></path></g></g></g><g clip-path="url(#__lottie_element_4875)" transform="matrix(0.5,0,0,0.5,0,125)" opacity="1" style="display: block;"><g transform="matrix(1,0,0,1,125,125)" opacity="1" style="display: block;"><g opacity="1" transform="matrix(1,0,0,1,0,0)"><path stroke-linecap="butt" stroke-linejoin="miter" fill-opacity="0" stroke-miterlimit="4" stroke="rgb(223,196,206)" stroke-opacity="1" stroke-width="36" d=" M50,-50 C50,-50 50,50 50,50 C50,50 -50,50 -50,50 C-50,50 -50,-50 -50,-50 C-50,-50 50,-50 50,-50z"></path></g></g></g></g><g clip-path="url(#__lottie_element_4519)" transform="matrix(0.20000000298023224,0,0,0.20000000298023224,243.5,96.25)" opacity="1" style="display: block;"><g clip-path="url(#__lottie_element_4891)" transform="matrix(0.5,0,0,0.5,125,125)" opacity="1" style="display: block;"><g transform="matrix(1,0,0,1,125,125)" opacity="1" style="display: block;"><g opacity="1" transform="matrix(1,0,0,1,0,0)"><path stroke-linecap="butt" stroke-linejoin="miter" fill-opacity="0" stroke-miterlimit="4" stroke="rgb(223,196,206)" stroke-opacity="1" stroke-width="36" d=" M50,-50 C50,-50 50,50 50,50 C50,50 -50,50 -50,50 C-50,50 -50,-50 -50,-50 C-50,-50 50,-50 50,-50z"></path></g></g></g><g clip-path="url(#__lottie_element_4895)" transform="matrix(0.5,0,0,0.5,125,0)" opacity="1" style="display: block;"><g transform="matrix(1,0,0,1,125,125)" opacity="1" style="display: block;"><g opacity="1" transform="matrix(1,0,0,1,0,0)"><path stroke-linecap="butt" stroke-linejoin="miter" fill-opacity="0" stroke-miterlimit="4" stroke="rgb(223,196,206)" stroke-opacity="1" stroke-width="36" d=" M50,-50 C50,-50 50,50 50,50 C50,50 -50,50 -50,50 C-50,50 -50,-50 -50,-50 C-50,-50 50,-50 50,-50z"></path></g></g></g><g clip-path="url(#__lottie_element_4899)" transform="matrix(0.5,0,0,0.5,0,0)" opacity="1" style="display: block;"><g transform="matrix(1,0,0,1,125,125)" opacity="1" style="display: block;"><g opacity="1" transform="matrix(1,0,0,1,0,0)"><path stroke-linecap="butt" stroke-linejoin="miter" fill-opacity="0" stroke-miterlimit="4" stroke="rgb(223,196,206)" stroke-opacity="1" stroke-width="36" d=" M50,-50 C50,-50 50,50 50,50 C50,50 -50,50 -50,50 C-50,50 -50,-50 -50,-50 C-50,-50 50,-50 50,-50z"></path></g></g></g><g clip-path="url(#__lottie_element_4903)" transform="matrix(0.5,0,0,0.5,0,125)" opacity="1" style="display: block;"><g transform="matrix(1,0,0,1,125,125)" opacity="1" style="display: block;"><g opacity="1" transform="matrix(1,0,0,1,0,0)"><path stroke-linecap="butt" stroke-linejoin="miter" fill-opacity="0" stroke-miterlimit="4" stroke="rgb(223,196,206)" stroke-opacity="1" stroke-width="36" d=" M50,-50 C50,-50 50,50 50,50 C50,50 -50,50 -50,50 C-50,50 -50,-50 -50,-50 C-50,-50 50,-50 50,-50z"></path></g></g></g></g><g clip-path="url(#__lottie_element_4523)" transform="matrix(0.20000000298023224,0,0,0.20000000298023224,193,96.25)" opacity="1" style="display: block;"><g clip-path="url(#__lottie_element_4919)" transform="matrix(0.5,0,0,0.5,125,125)" opacity="1" style="display: block;"><g transform="matrix(1,0,0,1,125,125)" opacity="1" style="display: block;"><g opacity="1" transform="matrix(1,0,0,1,0,0)"><path stroke-linecap="butt" stroke-linejoin="miter" fill-opacity="0" stroke-miterlimit="4" stroke="rgb(223,196,206)" stroke-opacity="1" stroke-width="36" d=" M50,-50 C50,-50 50,50 50,50 C50,50 -50,50 -50,50 C-50,50 -50,-50 -50,-50 C-50,-50 50,-50 50,-50z"></path></g></g></g><g clip-path="url(#__lottie_element_4923)" transform="matrix(0.5,0,0,0.5,125,0)" opacity="1" style="display: block;"><g transform="matrix(1,0,0,1,125,125)" opacity="1" style="display: block;"><g opacity="1" transform="matrix(1,0,0,1,0,0)"><path stroke-linecap="butt" stroke-linejoin="miter" fill-opacity="0" stroke-miterlimit="4" stroke="rgb(223,196,206)" stroke-opacity="1" stroke-width="36" d=" M50,-50 C50,-50 50,50 50,50 C50,50 -50,50 -50,50 C-50,50 -50,-50 -50,-50 C-50,-50 50,-50 50,-50z"></path></g></g></g><g clip-path="url(#__lottie_element_4927)" transform="matrix(0.5,0,0,0.5,0,0)" opacity="1" style="display: block;"><g transform="matrix(1,0,0,1,125,125)" opacity="1" style="display: block;"><g opacity="1" transform="matrix(1,0,0,1,0,0)"><path stroke-linecap="butt" stroke-linejoin="miter" fill-opacity="0" stroke-miterlimit="4" stroke="rgb(223,196,206)" stroke-opacity="1" stroke-width="36" d=" M50,-50 C50,-50 50,50 50,50 C50,50 -50,50 -50,50 C-50,50 -50,-50 -50,-50 C-50,-50 50,-50 50,-50z"></path></g></g></g><g clip-path="url(#__lottie_element_4931)" transform="matrix(0.5,0,0,0.5,0,125)" opacity="1" style="display: block;"><g transform="matrix(1,0,0,1,125,125)" opacity="1" style="display: block;"><g opacity="1" transform="matrix(1,0,0,1,0,0)"><path stroke-linecap="butt" stroke-linejoin="miter" fill-opacity="0" stroke-miterlimit="4" stroke="rgb(223,196,206)" stroke-opacity="1" stroke-width="36" d=" M50,-50 C50,-50 50,50 50,50 C50,50 -50,50 -50,50 C-50,50 -50,-50 -50,-50 C-50,-50 50,-50 50,-50z"></path></g></g></g></g><g fill="none" stroke-linecap="round" stroke-dashoffset="1" stroke="rgb(20,20,20)" stroke-width="4" opacity="1"><path d=" M191.95899963378906,297.4410095214844 C181.3780059814453,297.4410095214844 171.16299438476562,295.0740051269531 161.60000610351562,290.4079895019531 C127.50599670410156,273.7720031738281 113.40799713134766,232.71099853515625 130.1750030517578,198.8800048828125 C130.1750030517578,198.8800048828125 157.83999633789062,143.0570068359375 157.83999633789062,143.0570068359375 C169.52099609375,119.48500061035156 193.23399353027344,104.84300231933594 219.72300720214844,104.84300231933594 C230.3040008544922,104.84300231933594 240.51699829101562,107.20899963378906 250.0800018310547,111.8759994506836 C284.17498779296875,128.51400756835938 298.2720031738281,169.572998046875 281.5039978027344,203.4040069580078 C281.5039978027344,203.4040069580078 253.83999633789062,259.22698974609375 253.83999633789062,259.22698974609375 C242.15899658203125,282.79901123046875 218.4459991455078,297.4410095214844 191.95899963378906,297.4410095214844" stroke-dasharray="1 0.6"></path></g></g></g><g transform="matrix(1,0,0,1,259,250)" opacity="1" style="display: block;"><g opacity="1" transform="matrix(1,0,0,1,0,0)"><path fill="rgb(249,214,72)" fill-opacity="1" d=" M42.78900146484375,123.93699645996094 C16.969999313354492,123.93699645996094 -4.033999919891357,103.09500122070312 -4.033999919891357,77.4749984741211 C-4.033999919891357,51.856998443603516 16.969999313354492,31.014999389648438 42.78900146484375,31.014999389648438 C68.60600280761719,31.014999389648438 89.61000061035156,51.856998443603516 89.61000061035156,77.4749984741211 C89.61000061035156,103.09500122070312 68.60600280761719,123.93699645996094 42.78900146484375,123.93699645996094z"></path><path stroke-linecap="butt" stroke-linejoin="miter" fill-opacity="0" stroke-miterlimit="4" stroke="rgb(20,20,20)" stroke-opacity="1" stroke-width="2" d=" M42.78900146484375,123.93699645996094 C16.969999313354492,123.93699645996094 -4.033999919891357,103.09500122070312 -4.033999919891357,77.4749984741211 C-4.033999919891357,51.856998443603516 16.969999313354492,31.014999389648438 42.78900146484375,31.014999389648438 C68.60600280761719,31.014999389648438 89.61000061035156,51.856998443603516 89.61000061035156,77.4749984741211 C89.61000061035156,103.09500122070312 68.60600280761719,123.93699645996094 42.78900146484375,123.93699645996094z"></path></g></g></g></svg>