<svg xmlns="http://www.w3.org/2000/svg" viewBox="0 0 500 500" width="500" height="500" preserveAspectRatio="xMidYMid meet" style="width: 100%; height: 100%; transform: translate3d(0px, 0px, 0px);"><defs><clipPath id="__lottie_element_4950"><rect width="500" height="500" x="0" y="0"></rect></clipPath><clipPath id="__lottie_element_4955"><path d="M0,0 L300,0 L300,300 L0,300z"></path></clipPath><clipPath id="__lottie_element_4956"><path fill="#ffffff" clip-rule="nonzero" d=" M125,87.5 C125,87.5 0,87.5 0,87.5 C0,87.5 0,300 0,300 C0,300 125,300 125,300 C125,300 125,87.5 125,87.5" fill-opacity="1"></path></clipPath><clipPath id="__lottie_element_4965"><path d="M0,0 L250,0 L250,250 L0,250z"></path></clipPath><clipPath id="__lottie_element_4969"><path d="M0,0 L250,0 L250,250 L0,250z"></path></clipPath><clipPath id="__lottie_element_4973"><path d="M0,0 L250,0 L250,250 L0,250z"></path></clipPath><clipPath id="__lottie_element_4977"><path d="M0,0 L250,0 L250,250 L0,250z"></path></clipPath><clipPath id="__lottie_element_4981"><path d="M0,0 L250,0 L250,250 L0,250z"></path></clipPath><clipPath id="__lottie_element_4985"><path d="M0,0 L250,0 L250,250 L0,250z"></path></clipPath><clipPath id="__lottie_element_4989"><path d="M0,0 L250,0 L250,250 L0,250z"></path></clipPath><clipPath id="__lottie_element_4993"><path d="M0,0 L250,0 L250,250 L0,250z"></path></clipPath><clipPath id="__lottie_element_4997"><path d="M0,0 L250,0 L250,250 L0,250z"></path></clipPath><clipPath id="__lottie_element_5001"><path d="M0,0 L250,0 L250,250 L0,250z"></path></clipPath><clipPath id="__lottie_element_5005"><path d="M0,0 L250,0 L250,250 L0,250z"></path></clipPath><clipPath id="__lottie_element_5009"><path d="M0,0 L250,0 L250,250 L0,250z"></path></clipPath><clipPath id="__lottie_element_5013"><path d="M0,0 L250,0 L250,250 L0,250z"></path></clipPath><clipPath id="__lottie_element_5017"><path d="M0,0 L250,0 L250,250 L0,250z"></path></clipPath><clipPath id="__lottie_element_5021"><path d="M0,0 L250,0 L250,250 L0,250z"></path></clipPath><clipPath id="__lottie_element_5025"><path d="M0,0 L250,0 L250,250 L0,250z"></path></clipPath><clipPath id="__lottie_element_5041"><path d="M0,0 L250,0 L250,250 L0,250z"></path></clipPath><clipPath id="__lottie_element_5045"><path d="M0,0 L250,0 L250,250 L0,250z"></path></clipPath><clipPath id="__lottie_element_5049"><path d="M0,0 L250,0 L250,250 L0,250z"></path></clipPath><clipPath id="__lottie_element_5053"><path d="M0,0 L250,0 L250,250 L0,250z"></path></clipPath><clipPath id="__lottie_element_5069"><path d="M0,0 L250,0 L250,250 L0,250z"></path></clipPath><clipPath id="__lottie_element_5073"><path d="M0,0 L250,0 L250,250 L0,250z"></path></clipPath><clipPath id="__lottie_element_5077"><path d="M0,0 L250,0 L250,250 L0,250z"></path></clipPath><clipPath id="__lottie_element_5081"><path d="M0,0 L250,0 L250,250 L0,250z"></path></clipPath><clipPath id="__lottie_element_5097"><path d="M0,0 L250,0 L250,250 L0,250z"></path></clipPath><clipPath id="__lottie_element_5101"><path d="M0,0 L250,0 L250,250 L0,250z"></path></clipPath><clipPath id="__lottie_element_5105"><path d="M0,0 L250,0 L250,250 L0,250z"></path></clipPath><clipPath id="__lottie_element_5109"><path d="M0,0 L250,0 L250,250 L0,250z"></path></clipPath><clipPath id="__lottie_element_5125"><path d="M0,0 L250,0 L250,250 L0,250z"></path></clipPath><clipPath id="__lottie_element_5129"><path d="M0,0 L250,0 L250,250 L0,250z"></path></clipPath><clipPath id="__lottie_element_5133"><path d="M0,0 L250,0 L250,250 L0,250z"></path></clipPath><clipPath id="__lottie_element_5137"><path d="M0,0 L250,0 L250,250 L0,250z"></path></clipPath><clipPath id="__lottie_element_5153"><path d="M0,0 L250,0 L250,250 L0,250z"></path></clipPath><clipPath id="__lottie_element_5157"><path d="M0,0 L250,0 L250,250 L0,250z"></path></clipPath><clipPath id="__lottie_element_5161"><path d="M0,0 L250,0 L250,250 L0,250z"></path></clipPath><clipPath id="__lottie_element_5165"><path d="M0,0 L250,0 L250,250 L0,250z"></path></clipPath><clipPath id="__lottie_element_5181"><path d="M0,0 L250,0 L250,250 L0,250z"></path></clipPath><clipPath id="__lottie_element_5185"><path d="M0,0 L250,0 L250,250 L0,250z"></path></clipPath><clipPath id="__lottie_element_5189"><path d="M0,0 L250,0 L250,250 L0,250z"></path></clipPath><clipPath id="__lottie_element_5193"><path d="M0,0 L250,0 L250,250 L0,250z"></path></clipPath><clipPath id="__lottie_element_5209"><path d="M0,0 L250,0 L250,250 L0,250z"></path></clipPath><clipPath id="__lottie_element_5213"><path d="M0,0 L250,0 L250,250 L0,250z"></path></clipPath><clipPath id="__lottie_element_5217"><path d="M0,0 L250,0 L250,250 L0,250z"></path></clipPath><clipPath id="__lottie_element_5221"><path d="M0,0 L250,0 L250,250 L0,250z"></path></clipPath><clipPath id="__lottie_element_5237"><path d="M0,0 L250,0 L250,250 L0,250z"></path></clipPath><clipPath id="__lottie_element_5241"><path d="M0,0 L250,0 L250,250 L0,250z"></path></clipPath><clipPath id="__lottie_element_5245"><path d="M0,0 L250,0 L250,250 L0,250z"></path></clipPath><clipPath id="__lottie_element_5249"><path d="M0,0 L250,0 L250,250 L0,250z"></path></clipPath><clipPath id="__lottie_element_5265"><path d="M0,0 L250,0 L250,250 L0,250z"></path></clipPath><clipPath id="__lottie_element_5269"><path d="M0,0 L250,0 L250,250 L0,250z"></path></clipPath><clipPath id="__lottie_element_5273"><path d="M0,0 L250,0 L250,250 L0,250z"></path></clipPath><clipPath id="__lottie_element_5277"><path d="M0,0 L250,0 L250,250 L0,250z"></path></clipPath><clipPath id="__lottie_element_5293"><path d="M0,0 L250,0 L250,250 L0,250z"></path></clipPath><clipPath id="__lottie_element_5297"><path d="M0,0 L250,0 L250,250 L0,250z"></path></clipPath><clipPath id="__lottie_element_5301"><path d="M0,0 L250,0 L250,250 L0,250z"></path></clipPath><clipPath id="__lottie_element_5305"><path d="M0,0 L250,0 L250,250 L0,250z"></path></clipPath><clipPath id="__lottie_element_5321"><path d="M0,0 L250,0 L250,250 L0,250z"></path></clipPath><clipPath id="__lottie_element_5325"><path d="M0,0 L250,0 L250,250 L0,250z"></path></clipPath><clipPath id="__lottie_element_5329"><path d="M0,0 L250,0 L250,250 L0,250z"></path></clipPath><clipPath id="__lottie_element_5333"><path d="M0,0 L250,0 L250,250 L0,250z"></path></clipPath></defs><g clip-path="url(#__lottie_element_4950)"><g transform="matrix(1,0,0,1,250,250)" opacity="1" style="display: block;"><g opacity="1" transform="matrix(1,0,0,1,-93.75,62.5)"><path fill="rgb(120,169,247)" fill-opacity="1" d=" M56.25,-62.5 C56.25,-62.5 56.25,62.5 56.25,62.5 C56.25,62.5 -56.25,62.5 -56.25,62.5 C-56.25,62.5 -56.25,-62.5 -56.25,-62.5 C-56.25,-62.5 56.25,-62.5 56.25,-62.5z"></path><path stroke-linecap="butt" stroke-linejoin="miter" fill-opacity="0" stroke-miterlimit="4" stroke="rgb(20,20,20)" stroke-opacity="1" stroke-width="2" d=" M56.25,-62.5 C56.25,-62.5 56.25,62.5 56.25,62.5 C56.25,62.5 -56.25,62.5 -56.25,62.5 C-56.25,62.5 -56.25,-62.5 -56.25,-62.5 C-56.25,-62.5 56.25,-62.5 56.25,-62.5z" style="mix-blend-mode: darken;"></path></g></g><g clip-path="url(#__lottie_element_4955)" transform="matrix(1,0,0,1,187.5,87.5)" opacity="1" style="display: block;"><g clip-path="url(#__lottie_element_4956)"><g transform="matrix(1,0,0,1.0700000524520874,137.5,143.75)" opacity="1" style="display: block;"><g opacity="1" transform="matrix(1,0,0,1,12.5,6.25)"><path fill="rgb(243,216,152)" fill-opacity="1" d=" M150,-143.75 C150,-143.75 150,143.75 150,143.75 C150,143.75 -150,143.75 -150,143.75 C-150,143.75 -150,-143.75 -150,-143.75 C-150,-143.75 150,-143.75 150,-143.75z"></path></g></g><g clip-path="url(#__lottie_element_4965)" transform="matrix(0.20000000298023224,0,0,0.20000000298023224,6.5,144)" opacity="1" style="display: block;"><g clip-path="url(#__lottie_element_5013)" transform="matrix(0.5,0,0,0.5,125,125)" opacity="1" style="display: block;"><g transform="matrix(1,0,0,1,125,125)" opacity="1" style="display: block;"><g opacity="1" transform="matrix(1,0,0,1,0,0)"><path stroke-linecap="butt" stroke-linejoin="miter" fill-opacity="0" stroke-miterlimit="4" stroke="rgb(70,155,154)" stroke-opacity="1" stroke-width="20" d=" M50,-50 C50,-50 50,50 50,50 C50,50 -50,50 -50,50 C-50,50 -50,-50 -50,-50 C-50,-50 50,-50 50,-50z"></path></g></g></g><g clip-path="url(#__lottie_element_5017)" transform="matrix(0.5,0,0,0.5,125,0)" opacity="1" style="display: block;"><g transform="matrix(1,0,0,1,125,125)" opacity="1" style="display: block;"><g opacity="1" transform="matrix(1,0,0,1,0,0)"><path stroke-linecap="butt" stroke-linejoin="miter" fill-opacity="0" stroke-miterlimit="4" stroke="rgb(70,155,154)" stroke-opacity="1" stroke-width="20" d=" M50,-50 C50,-50 50,50 50,50 C50,50 -50,50 -50,50 C-50,50 -50,-50 -50,-50 C-50,-50 50,-50 50,-50z"></path></g></g></g><g clip-path="url(#__lottie_element_5021)" transform="matrix(0.5,0,0,0.5,0,0)" opacity="1" style="display: block;"><g transform="matrix(1,0,0,1,125,125)" opacity="1" style="display: block;"><g opacity="1" transform="matrix(1,0,0,1,0,0)"><path stroke-linecap="butt" stroke-linejoin="miter" fill-opacity="0" stroke-miterlimit="4" stroke="rgb(70,155,154)" stroke-opacity="1" stroke-width="20" d=" M50,-50 C50,-50 50,50 50,50 C50,50 -50,50 -50,50 C-50,50 -50,-50 -50,-50 C-50,-50 50,-50 50,-50z"></path></g></g></g><g clip-path="url(#__lottie_element_5025)" transform="matrix(0.5,0,0,0.5,0,125)" opacity="1" style="display: block;"><g transform="matrix(1,0,0,1,125,125)" opacity="1" style="display: block;"><g opacity="1" transform="matrix(1,0,0,1,0,0)"><path stroke-linecap="butt" stroke-linejoin="miter" fill-opacity="0" stroke-miterlimit="4" stroke="rgb(70,155,154)" stroke-opacity="1" stroke-width="20" d=" M50,-50 C50,-50 50,50 50,50 C50,50 -50,50 -50,50 C-50,50 -50,-50 -50,-50 C-50,-50 50,-50 50,-50z"></path></g></g></g></g><g clip-path="url(#__lottie_element_4969)" transform="matrix(0.20000000298023224,0,0,0.20000000298023224,6.5,194)" opacity="1" style="display: block;"><g clip-path="url(#__lottie_element_5041)" transform="matrix(0.5,0,0,0.5,125,125)" opacity="1" style="display: block;"><g transform="matrix(1,0,0,1,125,125)" opacity="1" style="display: block;"><g opacity="1" transform="matrix(1,0,0,1,0,0)"><path stroke-linecap="butt" stroke-linejoin="miter" fill-opacity="0" stroke-miterlimit="4" stroke="rgb(70,155,154)" stroke-opacity="1" stroke-width="20" d=" M50,-50 C50,-50 50,50 50,50 C50,50 -50,50 -50,50 C-50,50 -50,-50 -50,-50 C-50,-50 50,-50 50,-50z"></path></g></g></g><g clip-path="url(#__lottie_element_5045)" transform="matrix(0.5,0,0,0.5,125,0)" opacity="1" style="display: block;"><g transform="matrix(1,0,0,1,125,125)" opacity="1" style="display: block;"><g opacity="1" transform="matrix(1,0,0,1,0,0)"><path stroke-linecap="butt" stroke-linejoin="miter" fill-opacity="0" stroke-miterlimit="4" stroke="rgb(70,155,154)" stroke-opacity="1" stroke-width="20" d=" M50,-50 C50,-50 50,50 50,50 C50,50 -50,50 -50,50 C-50,50 -50,-50 -50,-50 C-50,-50 50,-50 50,-50z"></path></g></g></g><g clip-path="url(#__lottie_element_5049)" transform="matrix(0.5,0,0,0.5,0,0)" opacity="1" style="display: block;"><g transform="matrix(1,0,0,1,125,125)" opacity="1" style="display: block;"><g opacity="1" transform="matrix(1,0,0,1,0,0)"><path stroke-linecap="butt" stroke-linejoin="miter" fill-opacity="0" stroke-miterlimit="4" stroke="rgb(70,155,154)" stroke-opacity="1" stroke-width="20" d=" M50,-50 C50,-50 50,50 50,50 C50,50 -50,50 -50,50 C-50,50 -50,-50 -50,-50 C-50,-50 50,-50 50,-50z"></path></g></g></g><g clip-path="url(#__lottie_element_5053)" transform="matrix(0.5,0,0,0.5,0,125)" opacity="1" style="display: block;"><g transform="matrix(1,0,0,1,125,125)" opacity="1" style="display: block;"><g opacity="1" transform="matrix(1,0,0,1,0,0)"><path stroke-linecap="butt" stroke-linejoin="miter" fill-opacity="0" stroke-miterlimit="4" stroke="rgb(70,155,154)" stroke-opacity="1" stroke-width="20" d=" M50,-50 C50,-50 50,50 50,50 C50,50 -50,50 -50,50 C-50,50 -50,-50 -50,-50 C-50,-50 50,-50 50,-50z"></path></g></g></g></g><g clip-path="url(#__lottie_element_4973)" transform="matrix(0.20000000298023224,0,0,0.20000000298023224,6.5,244)" opacity="1" style="display: block;"><g clip-path="url(#__lottie_element_5069)" transform="matrix(0.5,0,0,0.5,125,125)" opacity="1" style="display: block;"><g transform="matrix(1,0,0,1,125,125)" opacity="1" style="display: block;"><g opacity="1" transform="matrix(1,0,0,1,0,0)"><path stroke-linecap="butt" stroke-linejoin="miter" fill-opacity="0" stroke-miterlimit="4" stroke="rgb(70,155,154)" stroke-opacity="1" stroke-width="20" d=" M50,-50 C50,-50 50,50 50,50 C50,50 -50,50 -50,50 C-50,50 -50,-50 -50,-50 C-50,-50 50,-50 50,-50z"></path></g></g></g><g clip-path="url(#__lottie_element_5073)" transform="matrix(0.5,0,0,0.5,125,0)" opacity="1" style="display: block;"><g transform="matrix(1,0,0,1,125,125)" opacity="1" style="display: block;"><g opacity="1" transform="matrix(1,0,0,1,0,0)"><path stroke-linecap="butt" stroke-linejoin="miter" fill-opacity="0" stroke-miterlimit="4" stroke="rgb(70,155,154)" stroke-opacity="1" stroke-width="20" d=" M50,-50 C50,-50 50,50 50,50 C50,50 -50,50 -50,50 C-50,50 -50,-50 -50,-50 C-50,-50 50,-50 50,-50z"></path></g></g></g><g clip-path="url(#__lottie_element_5077)" transform="matrix(0.5,0,0,0.5,0,0)" opacity="1" style="display: block;"><g transform="matrix(1,0,0,1,125,125)" opacity="1" style="display: block;"><g opacity="1" transform="matrix(1,0,0,1,0,0)"><path stroke-linecap="butt" stroke-linejoin="miter" fill-opacity="0" stroke-miterlimit="4" stroke="rgb(70,155,154)" stroke-opacity="1" stroke-width="20" d=" M50,-50 C50,-50 50,50 50,50 C50,50 -50,50 -50,50 C-50,50 -50,-50 -50,-50 C-50,-50 50,-50 50,-50z"></path></g></g></g><g clip-path="url(#__lottie_element_5081)" transform="matrix(0.5,0,0,0.5,0,125)" opacity="1" style="display: block;"><g transform="matrix(1,0,0,1,125,125)" opacity="1" style="display: block;"><g opacity="1" transform="matrix(1,0,0,1,0,0)"><path stroke-linecap="butt" stroke-linejoin="miter" fill-opacity="0" stroke-miterlimit="4" stroke="rgb(70,155,154)" stroke-opacity="1" stroke-width="20" d=" M50,-50 C50,-50 50,50 50,50 C50,50 -50,50 -50,50 C-50,50 -50,-50 -50,-50 C-50,-50 50,-50 50,-50z"></path></g></g></g></g><g clip-path="url(#__lottie_element_4977)" transform="matrix(0.20000000298023224,0,0,0.20000000298023224,6.5,94)" opacity="1" style="display: block;"><g clip-path="url(#__lottie_element_5097)" transform="matrix(0.5,0,0,0.5,125,125)" opacity="1" style="display: block;"><g transform="matrix(1,0,0,1,125,125)" opacity="1" style="display: block;"><g opacity="1" transform="matrix(1,0,0,1,0,0)"><path stroke-linecap="butt" stroke-linejoin="miter" fill-opacity="0" stroke-miterlimit="4" stroke="rgb(70,155,154)" stroke-opacity="1" stroke-width="20" d=" M50,-50 C50,-50 50,50 50,50 C50,50 -50,50 -50,50 C-50,50 -50,-50 -50,-50 C-50,-50 50,-50 50,-50z"></path></g></g></g><g clip-path="url(#__lottie_element_5101)" transform="matrix(0.5,0,0,0.5,125,0)" opacity="1" style="display: block;"><g transform="matrix(1,0,0,1,125,125)" opacity="1" style="display: block;"><g opacity="1" transform="matrix(1,0,0,1,0,0)"><path stroke-linecap="butt" stroke-linejoin="miter" fill-opacity="0" stroke-miterlimit="4" stroke="rgb(70,155,154)" stroke-opacity="1" stroke-width="20" d=" M50,-50 C50,-50 50,50 50,50 C50,50 -50,50 -50,50 C-50,50 -50,-50 -50,-50 C-50,-50 50,-50 50,-50z"></path></g></g></g><g clip-path="url(#__lottie_element_5105)" transform="matrix(0.5,0,0,0.5,0,0)" opacity="1" style="display: block;"><g transform="matrix(1,0,0,1,125,125)" opacity="1" style="display: block;"><g opacity="1" transform="matrix(1,0,0,1,0,0)"><path stroke-linecap="butt" stroke-linejoin="miter" fill-opacity="0" stroke-miterlimit="4" stroke="rgb(70,155,154)" stroke-opacity="1" stroke-width="20" d=" M50,-50 C50,-50 50,50 50,50 C50,50 -50,50 -50,50 C-50,50 -50,-50 -50,-50 C-50,-50 50,-50 50,-50z"></path></g></g></g><g clip-path="url(#__lottie_element_5109)" transform="matrix(0.5,0,0,0.5,0,125)" opacity="1" style="display: block;"><g transform="matrix(1,0,0,1,125,125)" opacity="1" style="display: block;"><g opacity="1" transform="matrix(1,0,0,1,0,0)"><path stroke-linecap="butt" stroke-linejoin="miter" fill-opacity="0" stroke-miterlimit="4" stroke="rgb(70,155,154)" stroke-opacity="1" stroke-width="20" d=" M50,-50 C50,-50 50,50 50,50 C50,50 -50,50 -50,50 C-50,50 -50,-50 -50,-50 C-50,-50 50,-50 50,-50z"></path></g></g></g></g><g clip-path="url(#__lottie_element_4981)" transform="matrix(0.20000000298023224,0,0,0.20000000298023224,56.5,144)" opacity="1" style="display: block;"><g clip-path="url(#__lottie_element_5125)" transform="matrix(0.5,0,0,0.5,125,125)" opacity="1" style="display: block;"><g transform="matrix(1,0,0,1,125,125)" opacity="1" style="display: block;"><g opacity="1" transform="matrix(1,0,0,1,0,0)"><path stroke-linecap="butt" stroke-linejoin="miter" fill-opacity="0" stroke-miterlimit="4" stroke="rgb(70,155,154)" stroke-opacity="1" stroke-width="20" d=" M50,-50 C50,-50 50,50 50,50 C50,50 -50,50 -50,50 C-50,50 -50,-50 -50,-50 C-50,-50 50,-50 50,-50z"></path></g></g></g><g clip-path="url(#__lottie_element_5129)" transform="matrix(0.5,0,0,0.5,125,0)" opacity="1" style="display: block;"><g transform="matrix(1,0,0,1,125,125)" opacity="1" style="display: block;"><g opacity="1" transform="matrix(1,0,0,1,0,0)"><path stroke-linecap="butt" stroke-linejoin="miter" fill-opacity="0" stroke-miterlimit="4" stroke="rgb(70,155,154)" stroke-opacity="1" stroke-width="20" d=" M50,-50 C50,-50 50,50 50,50 C50,50 -50,50 -50,50 C-50,50 -50,-50 -50,-50 C-50,-50 50,-50 50,-50z"></path></g></g></g><g clip-path="url(#__lottie_element_5133)" transform="matrix(0.5,0,0,0.5,0,0)" opacity="1" style="display: block;"><g transform="matrix(1,0,0,1,125,125)" opacity="1" style="display: block;"><g opacity="1" transform="matrix(1,0,0,1,0,0)"><path stroke-linecap="butt" stroke-linejoin="miter" fill-opacity="0" stroke-miterlimit="4" stroke="rgb(70,155,154)" stroke-opacity="1" stroke-width="20" d=" M50,-50 C50,-50 50,50 50,50 C50,50 -50,50 -50,50 C-50,50 -50,-50 -50,-50 C-50,-50 50,-50 50,-50z"></path></g></g></g><g clip-path="url(#__lottie_element_5137)" transform="matrix(0.5,0,0,0.5,0,125)" opacity="1" style="display: block;"><g transform="matrix(1,0,0,1,125,125)" opacity="1" style="display: block;"><g opacity="1" transform="matrix(1,0,0,1,0,0)"><path stroke-linecap="butt" stroke-linejoin="miter" fill-opacity="0" stroke-miterlimit="4" stroke="rgb(70,155,154)" stroke-opacity="1" stroke-width="20" d=" M50,-50 C50,-50 50,50 50,50 C50,50 -50,50 -50,50 C-50,50 -50,-50 -50,-50 C-50,-50 50,-50 50,-50z"></path></g></g></g></g><g clip-path="url(#__lottie_element_4985)" transform="matrix(0.20000000298023224,0,0,0.20000000298023224,56.5,194)" opacity="1" style="display: block;"><g clip-path="url(#__lottie_element_5153)" transform="matrix(0.5,0,0,0.5,125,125)" opacity="1" style="display: block;"><g transform="matrix(1,0,0,1,125,125)" opacity="1" style="display: block;"><g opacity="1" transform="matrix(1,0,0,1,0,0)"><path stroke-linecap="butt" stroke-linejoin="miter" fill-opacity="0" stroke-miterlimit="4" stroke="rgb(70,155,154)" stroke-opacity="1" stroke-width="20" d=" M50,-50 C50,-50 50,50 50,50 C50,50 -50,50 -50,50 C-50,50 -50,-50 -50,-50 C-50,-50 50,-50 50,-50z"></path></g></g></g><g clip-path="url(#__lottie_element_5157)" transform="matrix(0.5,0,0,0.5,125,0)" opacity="1" style="display: block;"><g transform="matrix(1,0,0,1,125,125)" opacity="1" style="display: block;"><g opacity="1" transform="matrix(1,0,0,1,0,0)"><path stroke-linecap="butt" stroke-linejoin="miter" fill-opacity="0" stroke-miterlimit="4" stroke="rgb(70,155,154)" stroke-opacity="1" stroke-width="20" d=" M50,-50 C50,-50 50,50 50,50 C50,50 -50,50 -50,50 C-50,50 -50,-50 -50,-50 C-50,-50 50,-50 50,-50z"></path></g></g></g><g clip-path="url(#__lottie_element_5161)" transform="matrix(0.5,0,0,0.5,0,0)" opacity="1" style="display: block;"><g transform="matrix(1,0,0,1,125,125)" opacity="1" style="display: block;"><g opacity="1" transform="matrix(1,0,0,1,0,0)"><path stroke-linecap="butt" stroke-linejoin="miter" fill-opacity="0" stroke-miterlimit="4" stroke="rgb(70,155,154)" stroke-opacity="1" stroke-width="20" d=" M50,-50 C50,-50 50,50 50,50 C50,50 -50,50 -50,50 C-50,50 -50,-50 -50,-50 C-50,-50 50,-50 50,-50z"></path></g></g></g><g clip-path="url(#__lottie_element_5165)" transform="matrix(0.5,0,0,0.5,0,125)" opacity="1" style="display: block;"><g transform="matrix(1,0,0,1,125,125)" opacity="1" style="display: block;"><g opacity="1" transform="matrix(1,0,0,1,0,0)"><path stroke-linecap="butt" stroke-linejoin="miter" fill-opacity="0" stroke-miterlimit="4" stroke="rgb(70,155,154)" stroke-opacity="1" stroke-width="20" d=" M50,-50 C50,-50 50,50 50,50 C50,50 -50,50 -50,50 C-50,50 -50,-50 -50,-50 C-50,-50 50,-50 50,-50z"></path></g></g></g></g><g clip-path="url(#__lottie_element_4989)" transform="matrix(0.20000000298023224,0,0,0.20000000298023224,56.5,244)" opacity="1" style="display: block;"><g clip-path="url(#__lottie_element_5181)" transform="matrix(0.5,0,0,0.5,125,125)" opacity="1" style="display: block;"><g transform="matrix(1,0,0,1,125,125)" opacity="1" style="display: block;"><g opacity="1" transform="matrix(1,0,0,1,0,0)"><path stroke-linecap="butt" stroke-linejoin="miter" fill-opacity="0" stroke-miterlimit="4" stroke="rgb(70,155,154)" stroke-opacity="1" stroke-width="20" d=" M50,-50 C50,-50 50,50 50,50 C50,50 -50,50 -50,50 C-50,50 -50,-50 -50,-50 C-50,-50 50,-50 50,-50z"></path></g></g></g><g clip-path="url(#__lottie_element_5185)" transform="matrix(0.5,0,0,0.5,125,0)" opacity="1" style="display: block;"><g transform="matrix(1,0,0,1,125,125)" opacity="1" style="display: block;"><g opacity="1" transform="matrix(1,0,0,1,0,0)"><path stroke-linecap="butt" stroke-linejoin="miter" fill-opacity="0" stroke-miterlimit="4" stroke="rgb(70,155,154)" stroke-opacity="1" stroke-width="20" d=" M50,-50 C50,-50 50,50 50,50 C50,50 -50,50 -50,50 C-50,50 -50,-50 -50,-50 C-50,-50 50,-50 50,-50z"></path></g></g></g><g clip-path="url(#__lottie_element_5189)" transform="matrix(0.5,0,0,0.5,0,0)" opacity="1" style="display: block;"><g transform="matrix(1,0,0,1,125,125)" opacity="1" style="display: block;"><g opacity="1" transform="matrix(1,0,0,1,0,0)"><path stroke-linecap="butt" stroke-linejoin="miter" fill-opacity="0" stroke-miterlimit="4" stroke="rgb(70,155,154)" stroke-opacity="1" stroke-width="20" d=" M50,-50 C50,-50 50,50 50,50 C50,50 -50,50 -50,50 C-50,50 -50,-50 -50,-50 C-50,-50 50,-50 50,-50z"></path></g></g></g><g clip-path="url(#__lottie_element_5193)" transform="matrix(0.5,0,0,0.5,0,125)" opacity="1" style="display: block;"><g transform="matrix(1,0,0,1,125,125)" opacity="1" style="display: block;"><g opacity="1" transform="matrix(1,0,0,1,0,0)"><path stroke-linecap="butt" stroke-linejoin="miter" fill-opacity="0" stroke-miterlimit="4" stroke="rgb(70,155,154)" stroke-opacity="1" stroke-width="20" d=" M50,-50 C50,-50 50,50 50,50 C50,50 -50,50 -50,50 C-50,50 -50,-50 -50,-50 C-50,-50 50,-50 50,-50z"></path></g></g></g></g><g clip-path="url(#__lottie_element_4993)" transform="matrix(0.20000000298023224,0,0,0.20000000298023224,56.5,94)" opacity="1" style="display: block;"><g clip-path="url(#__lottie_element_5209)" transform="matrix(0.5,0,0,0.5,125,125)" opacity="1" style="display: block;"><g transform="matrix(1,0,0,1,125,125)" opacity="1" style="display: block;"><g opacity="1" transform="matrix(1,0,0,1,0,0)"><path stroke-linecap="butt" stroke-linejoin="miter" fill-opacity="0" stroke-miterlimit="4" stroke="rgb(70,155,154)" stroke-opacity="1" stroke-width="20" d=" M50,-50 C50,-50 50,50 50,50 C50,50 -50,50 -50,50 C-50,50 -50,-50 -50,-50 C-50,-50 50,-50 50,-50z"></path></g></g></g><g clip-path="url(#__lottie_element_5213)" transform="matrix(0.5,0,0,0.5,125,0)" opacity="1" style="display: block;"><g transform="matrix(1,0,0,1,125,125)" opacity="1" style="display: block;"><g opacity="1" transform="matrix(1,0,0,1,0,0)"><path stroke-linecap="butt" stroke-linejoin="miter" fill-opacity="0" stroke-miterlimit="4" stroke="rgb(70,155,154)" stroke-opacity="1" stroke-width="20" d=" M50,-50 C50,-50 50,50 50,50 C50,50 -50,50 -50,50 C-50,50 -50,-50 -50,-50 C-50,-50 50,-50 50,-50z"></path></g></g></g><g clip-path="url(#__lottie_element_5217)" transform="matrix(0.5,0,0,0.5,0,0)" opacity="1" style="display: block;"><g transform="matrix(1,0,0,1,125,125)" opacity="1" style="display: block;"><g opacity="1" transform="matrix(1,0,0,1,0,0)"><path stroke-linecap="butt" stroke-linejoin="miter" fill-opacity="0" stroke-miterlimit="4" stroke="rgb(70,155,154)" stroke-opacity="1" stroke-width="20" d=" M50,-50 C50,-50 50,50 50,50 C50,50 -50,50 -50,50 C-50,50 -50,-50 -50,-50 C-50,-50 50,-50 50,-50z"></path></g></g></g><g clip-path="url(#__lottie_element_5221)" transform="matrix(0.5,0,0,0.5,0,125)" opacity="1" style="display: block;"><g transform="matrix(1,0,0,1,125,125)" opacity="1" style="display: block;"><g opacity="1" transform="matrix(1,0,0,1,0,0)"><path stroke-linecap="butt" stroke-linejoin="miter" fill-opacity="0" stroke-miterlimit="4" stroke="rgb(70,155,154)" stroke-opacity="1" stroke-width="20" d=" M50,-50 C50,-50 50,50 50,50 C50,50 -50,50 -50,50 C-50,50 -50,-50 -50,-50 C-50,-50 50,-50 50,-50z"></path></g></g></g></g><g clip-path="url(#__lottie_element_4997)" transform="matrix(0.20000000298023224,0,0,0.20000000298023224,106.5,144)" opacity="1" style="display: block;"><g clip-path="url(#__lottie_element_5237)" transform="matrix(0.5,0,0,0.5,125,125)" opacity="1" style="display: block;"><g transform="matrix(1,0,0,1,125,125)" opacity="1" style="display: block;"><g opacity="1" transform="matrix(1,0,0,1,0,0)"><path stroke-linecap="butt" stroke-linejoin="miter" fill-opacity="0" stroke-miterlimit="4" stroke="rgb(70,155,154)" stroke-opacity="1" stroke-width="20" d=" M50,-50 C50,-50 50,50 50,50 C50,50 -50,50 -50,50 C-50,50 -50,-50 -50,-50 C-50,-50 50,-50 50,-50z"></path></g></g></g><g clip-path="url(#__lottie_element_5241)" transform="matrix(0.5,0,0,0.5,125,0)" opacity="1" style="display: block;"><g transform="matrix(1,0,0,1,125,125)" opacity="1" style="display: block;"><g opacity="1" transform="matrix(1,0,0,1,0,0)"><path stroke-linecap="butt" stroke-linejoin="miter" fill-opacity="0" stroke-miterlimit="4" stroke="rgb(70,155,154)" stroke-opacity="1" stroke-width="20" d=" M50,-50 C50,-50 50,50 50,50 C50,50 -50,50 -50,50 C-50,50 -50,-50 -50,-50 C-50,-50 50,-50 50,-50z"></path></g></g></g><g clip-path="url(#__lottie_element_5245)" transform="matrix(0.5,0,0,0.5,0,0)" opacity="1" style="display: block;"><g transform="matrix(1,0,0,1,125,125)" opacity="1" style="display: block;"><g opacity="1" transform="matrix(1,0,0,1,0,0)"><path stroke-linecap="butt" stroke-linejoin="miter" fill-opacity="0" stroke-miterlimit="4" stroke="rgb(70,155,154)" stroke-opacity="1" stroke-width="20" d=" M50,-50 C50,-50 50,50 50,50 C50,50 -50,50 -50,50 C-50,50 -50,-50 -50,-50 C-50,-50 50,-50 50,-50z"></path></g></g></g><g clip-path="url(#__lottie_element_5249)" transform="matrix(0.5,0,0,0.5,0,125)" opacity="1" style="display: block;"><g transform="matrix(1,0,0,1,125,125)" opacity="1" style="display: block;"><g opacity="1" transform="matrix(1,0,0,1,0,0)"><path stroke-linecap="butt" stroke-linejoin="miter" fill-opacity="0" stroke-miterlimit="4" stroke="rgb(70,155,154)" stroke-opacity="1" stroke-width="20" d=" M50,-50 C50,-50 50,50 50,50 C50,50 -50,50 -50,50 C-50,50 -50,-50 -50,-50 C-50,-50 50,-50 50,-50z"></path></g></g></g></g><g clip-path="url(#__lottie_element_5001)" transform="matrix(0.20000000298023224,0,0,0.20000000298023224,106.5,194)" opacity="1" style="display: block;"><g clip-path="url(#__lottie_element_5265)" transform="matrix(0.5,0,0,0.5,125,125)" opacity="1" style="display: block;"><g transform="matrix(1,0,0,1,125,125)" opacity="1" style="display: block;"><g opacity="1" transform="matrix(1,0,0,1,0,0)"><path stroke-linecap="butt" stroke-linejoin="miter" fill-opacity="0" stroke-miterlimit="4" stroke="rgb(70,155,154)" stroke-opacity="1" stroke-width="20" d=" M50,-50 C50,-50 50,50 50,50 C50,50 -50,50 -50,50 C-50,50 -50,-50 -50,-50 C-50,-50 50,-50 50,-50z"></path></g></g></g><g clip-path="url(#__lottie_element_5269)" transform="matrix(0.5,0,0,0.5,125,0)" opacity="1" style="display: block;"><g transform="matrix(1,0,0,1,125,125)" opacity="1" style="display: block;"><g opacity="1" transform="matrix(1,0,0,1,0,0)"><path stroke-linecap="butt" stroke-linejoin="miter" fill-opacity="0" stroke-miterlimit="4" stroke="rgb(70,155,154)" stroke-opacity="1" stroke-width="20" d=" M50,-50 C50,-50 50,50 50,50 C50,50 -50,50 -50,50 C-50,50 -50,-50 -50,-50 C-50,-50 50,-50 50,-50z"></path></g></g></g><g clip-path="url(#__lottie_element_5273)" transform="matrix(0.5,0,0,0.5,0,0)" opacity="1" style="display: block;"><g transform="matrix(1,0,0,1,125,125)" opacity="1" style="display: block;"><g opacity="1" transform="matrix(1,0,0,1,0,0)"><path stroke-linecap="butt" stroke-linejoin="miter" fill-opacity="0" stroke-miterlimit="4" stroke="rgb(70,155,154)" stroke-opacity="1" stroke-width="20" d=" M50,-50 C50,-50 50,50 50,50 C50,50 -50,50 -50,50 C-50,50 -50,-50 -50,-50 C-50,-50 50,-50 50,-50z"></path></g></g></g><g clip-path="url(#__lottie_element_5277)" transform="matrix(0.5,0,0,0.5,0,125)" opacity="1" style="display: block;"><g transform="matrix(1,0,0,1,125,125)" opacity="1" style="display: block;"><g opacity="1" transform="matrix(1,0,0,1,0,0)"><path stroke-linecap="butt" stroke-linejoin="miter" fill-opacity="0" stroke-miterlimit="4" stroke="rgb(70,155,154)" stroke-opacity="1" stroke-width="20" d=" M50,-50 C50,-50 50,50 50,50 C50,50 -50,50 -50,50 C-50,50 -50,-50 -50,-50 C-50,-50 50,-50 50,-50z"></path></g></g></g></g><g clip-path="url(#__lottie_element_5005)" transform="matrix(0.20000000298023224,0,0,0.20000000298023224,106.5,244)" opacity="1" style="display: block;"><g clip-path="url(#__lottie_element_5293)" transform="matrix(0.5,0,0,0.5,125,125)" opacity="1" style="display: block;"><g transform="matrix(1,0,0,1,125,125)" opacity="1" style="display: block;"><g opacity="1" transform="matrix(1,0,0,1,0,0)"><path stroke-linecap="butt" stroke-linejoin="miter" fill-opacity="0" stroke-miterlimit="4" stroke="rgb(70,155,154)" stroke-opacity="1" stroke-width="20" d=" M50,-50 C50,-50 50,50 50,50 C50,50 -50,50 -50,50 C-50,50 -50,-50 -50,-50 C-50,-50 50,-50 50,-50z"></path></g></g></g><g clip-path="url(#__lottie_element_5297)" transform="matrix(0.5,0,0,0.5,125,0)" opacity="1" style="display: block;"><g transform="matrix(1,0,0,1,125,125)" opacity="1" style="display: block;"><g opacity="1" transform="matrix(1,0,0,1,0,0)"><path stroke-linecap="butt" stroke-linejoin="miter" fill-opacity="0" stroke-miterlimit="4" stroke="rgb(70,155,154)" stroke-opacity="1" stroke-width="20" d=" M50,-50 C50,-50 50,50 50,50 C50,50 -50,50 -50,50 C-50,50 -50,-50 -50,-50 C-50,-50 50,-50 50,-50z"></path></g></g></g><g clip-path="url(#__lottie_element_5301)" transform="matrix(0.5,0,0,0.5,0,0)" opacity="1" style="display: block;"><g transform="matrix(1,0,0,1,125,125)" opacity="1" style="display: block;"><g opacity="1" transform="matrix(1,0,0,1,0,0)"><path stroke-linecap="butt" stroke-linejoin="miter" fill-opacity="0" stroke-miterlimit="4" stroke="rgb(70,155,154)" stroke-opacity="1" stroke-width="20" d=" M50,-50 C50,-50 50,50 50,50 C50,50 -50,50 -50,50 C-50,50 -50,-50 -50,-50 C-50,-50 50,-50 50,-50z"></path></g></g></g><g clip-path="url(#__lottie_element_5305)" transform="matrix(0.5,0,0,0.5,0,125)" opacity="1" style="display: block;"><g transform="matrix(1,0,0,1,125,125)" opacity="1" style="display: block;"><g opacity="1" transform="matrix(1,0,0,1,0,0)"><path stroke-linecap="butt" stroke-linejoin="miter" fill-opacity="0" stroke-miterlimit="4" stroke="rgb(70,155,154)" stroke-opacity="1" stroke-width="20" d=" M50,-50 C50,-50 50,50 50,50 C50,50 -50,50 -50,50 C-50,50 -50,-50 -50,-50 C-50,-50 50,-50 50,-50z"></path></g></g></g></g><g clip-path="url(#__lottie_element_5009)" transform="matrix(0.20000000298023224,0,0,0.20000000298023224,106.5,94)" opacity="1" style="display: block;"><g clip-path="url(#__lottie_element_5321)" transform="matrix(0.5,0,0,0.5,125,125)" opacity="1" style="display: block;"><g transform="matrix(1,0,0,1,125,125)" opacity="1" style="display: block;"><g opacity="1" transform="matrix(1,0,0,1,0,0)"><path stroke-linecap="butt" stroke-linejoin="miter" fill-opacity="0" stroke-miterlimit="4" stroke="rgb(70,155,154)" stroke-opacity="1" stroke-width="20" d=" M50,-50 C50,-50 50,50 50,50 C50,50 -50,50 -50,50 C-50,50 -50,-50 -50,-50 C-50,-50 50,-50 50,-50z"></path></g></g></g><g clip-path="url(#__lottie_element_5325)" transform="matrix(0.5,0,0,0.5,125,0)" opacity="1" style="display: block;"><g transform="matrix(1,0,0,1,125,125)" opacity="1" style="display: block;"><g opacity="1" transform="matrix(1,0,0,1,0,0)"><path stroke-linecap="butt" stroke-linejoin="miter" fill-opacity="0" stroke-miterlimit="4" stroke="rgb(70,155,154)" stroke-opacity="1" stroke-width="20" d=" M50,-50 C50,-50 50,50 50,50 C50,50 -50,50 -50,50 C-50,50 -50,-50 -50,-50 C-50,-50 50,-50 50,-50z"></path></g></g></g><g clip-path="url(#__lottie_element_5329)" transform="matrix(0.5,0,0,0.5,0,0)" opacity="1" style="display: block;"><g transform="matrix(1,0,0,1,125,125)" opacity="1" style="display: block;"><g opacity="1" transform="matrix(1,0,0,1,0,0)"><path stroke-linecap="butt" stroke-linejoin="miter" fill-opacity="0" stroke-miterlimit="4" stroke="rgb(70,155,154)" stroke-opacity="1" stroke-width="20" d=" M50,-50 C50,-50 50,50 50,50 C50,50 -50,50 -50,50 C-50,50 -50,-50 -50,-50 C-50,-50 50,-50 50,-50z"></path></g></g></g><g clip-path="url(#__lottie_element_5333)" transform="matrix(0.5,0,0,0.5,0,125)" opacity="1" style="display: block;"><g transform="matrix(1,0,0,1,125,125)" opacity="1" style="display: block;"><g opacity="1" transform="matrix(1,0,0,1,0,0)"><path stroke-linecap="butt" stroke-linejoin="miter" fill-opacity="0" stroke-miterlimit="4" stroke="rgb(70,155,154)" stroke-opacity="1" stroke-width="20" d=" M50,-50 C50,-50 50,50 50,50 C50,50 -50,50 -50,50 C-50,50 -50,-50 -50,-50 C-50,-50 50,-50 50,-50z"></path></g></g></g></g><g fill="none" stroke-linecap="round" stroke-dashoffset="1" stroke="rgb(20,20,20)" stroke-width="4" opacity="1"><path d=" M125,87.5 C125,87.5 0,87.5 0,87.5 C0,87.5 0,300 0,300 C0,300 125,300 125,300 C125,300 125,87.5 125,87.5" stroke-dasharray="1 0.6"></path></g></g></g><g transform="matrix(1,0,0,1,250,250)" opacity="1" style="display: block;"><g opacity="1" transform="matrix(1,0,0,1,87.5,0)"><path fill="rgb(33,188,133)" fill-opacity="1" d=" M62.5,-150 C62.5,-150 62.5,150 62.5,150 C62.5,150 -62.5,150 -62.5,150 C-62.5,150 -62.5,-150 -62.5,-150 C-62.5,-150 62.5,-150 62.5,-150z"></path><path stroke-linecap="butt" stroke-linejoin="miter" fill-opacity="0" stroke-miterlimit="4" stroke="rgb(19,19,19)" stroke-opacity="1" stroke-width="2" d=" M62.5,-150 C62.5,-150 62.5,150 62.5,150 C62.5,150 -62.5,150 -62.5,150 C-62.5,150 -62.5,-150 -62.5,-150 C-62.5,-150 62.5,-150 62.5,-150z" style="mix-blend-mode: darken;"></path></g></g></g></svg>