<svg xmlns="http://www.w3.org/2000/svg" viewBox="0 0 500 500" width="500" height="500" preserveAspectRatio="xMidYMid meet" style="width: 100%; height: 100%; transform: translate3d(0px, 0px, 0px);"><defs><clipPath id="__lottie_element_6111"><rect width="500" height="500" x="0" y="0"></rect></clipPath><clipPath id="__lottie_element_6116"><path d="M0,0 L500,0 L500,500 L0,500z"></path></clipPath><path d=" M-123.89299774169922,-120.89299774169922 C-123.89299774169922,-120.89299774169922 -123.89299774169922,129.10699462890625 -123.89299774169922,129.10699462890625 C-123.89299774169922,129.10699462890625 126.10700225830078,129.10699462890625 126.10700225830078,129.10699462890625 C126.10700225830078,129.10699462890625 126.10700225830078,-120.89299774169922 126.10700225830078,-120.89299774169922 C126.10700225830078,-120.89299774169922 -123.89299774169922,-120.89299774169922 -123.89299774169922,-120.89299774169922" fill-opacity="1"></path><mask id="__lottie_element_6124"><rect fill="#ffffff" width="500" height="500" transform="matrix(1,0,0,1,-273.89300537109375,-270.89300537109375)"></rect><path fill="#000000" clip-rule="nonzero" d=" M-9.140000343322754,-3.6589999198913574 C-9.140000343322754,-3.6589999198913574 -9.140000343322754,-38.41999816894531 -9.140000343322754,-38.41999816894531 C-9.140000343322754,-38.41999816894531 58.83700180053711,-38.41999816894531 58.83700180053711,-38.41999816894531 C58.83700180053711,-38.41999816894531 58.83700180053711,-64.24199676513672 58.83700180053711,-64.24199676513672 C58.83700180053711,-64.24199676513672 -42.797000885009766,-64.24199676513672 -42.797000885009766,-64.24199676513672 C-42.797000885009766,-64.24199676513672 -42.797000885009766,80.31900024414062 -42.797000885009766,80.31900024414062 C-42.797000885009766,80.31900024414062 -9.140000343322754,80.31900024414062 -9.140000343322754,80.31900024414062 C-9.140000343322754,80.31900024414062 -9.140000343322754,22.163000106811523 -9.140000343322754,22.163000106811523 C-9.140000343322754,22.163000106811523 48.683998107910156,22.163000106811523 48.683998107910156,22.163000106811523 C48.683998107910156,22.163000106811523 48.683998107910156,-3.6589999198913574 48.683998107910156,-3.6589999198913574 C48.683998107910156,-3.6589999198913574 -9.140000343322754,-3.6589999198913574 -9.140000343322754,-3.6589999198913574" fill-opacity="1"></path></mask><mask id="__lottie_element_6126"><rect fill="#ffffff" width="500" height="500" transform="matrix(1,0,0,1,-273.89300537109375,-270.89300537109375)"></rect><path fill="#000000" clip-rule="nonzero" d=" M-9.140000343322754,-3.6589999198913574 C-9.140000343322754,-3.6589999198913574 -9.140000343322754,-38.41999816894531 -9.140000343322754,-38.41999816894531 C-9.140000343322754,-38.41999816894531 58.83700180053711,-38.41999816894531 58.83700180053711,-38.41999816894531 C58.83700180053711,-38.41999816894531 58.83700180053711,-64.24199676513672 58.83700180053711,-64.24199676513672 C58.83700180053711,-64.24199676513672 -42.797000885009766,-64.24199676513672 -42.797000885009766,-64.24199676513672 C-42.797000885009766,-64.24199676513672 -42.797000885009766,80.31900024414062 -42.797000885009766,80.31900024414062 C-42.797000885009766,80.31900024414062 -9.140000343322754,80.31900024414062 -9.140000343322754,80.31900024414062 C-9.140000343322754,80.31900024414062 -9.140000343322754,22.163000106811523 -9.140000343322754,22.163000106811523 C-9.140000343322754,22.163000106811523 48.683998107910156,22.163000106811523 48.683998107910156,22.163000106811523 C48.683998107910156,22.163000106811523 48.683998107910156,-3.6589999198913574 48.683998107910156,-3.6589999198913574 C48.683998107910156,-3.6589999198913574 -9.140000343322754,-3.6589999198913574 -9.140000343322754,-3.6589999198913574" fill-opacity="1"></path></mask><clipPath id="__lottie_element_6132"><path d="M0,0 L250,0 L250,250 L0,250z"></path></clipPath><clipPath id="__lottie_element_6136"><path d="M0,0 L250,0 L250,250 L0,250z"></path></clipPath><clipPath id="__lottie_element_6140"><path d="M0,0 L250,0 L250,250 L0,250z"></path></clipPath><clipPath id="__lottie_element_6144"><path d="M0,0 L250,0 L250,250 L0,250z"></path></clipPath><clipPath id="__lottie_element_6148"><path d="M0,0 L250,0 L250,250 L0,250z"></path></clipPath><clipPath id="__lottie_element_6152"><path d="M0,0 L250,0 L250,250 L0,250z"></path></clipPath><clipPath id="__lottie_element_6156"><path d="M0,0 L250,0 L250,250 L0,250z"></path></clipPath><clipPath id="__lottie_element_6160"><path d="M0,0 L250,0 L250,250 L0,250z"></path></clipPath><clipPath id="__lottie_element_6164"><path d="M0,0 L250,0 L250,250 L0,250z"></path></clipPath><clipPath id="__lottie_element_6168"><path d="M0,0 L250,0 L250,250 L0,250z"></path></clipPath><clipPath id="__lottie_element_6172"><path d="M0,0 L250,0 L250,250 L0,250z"></path></clipPath><clipPath id="__lottie_element_6176"><path d="M0,0 L250,0 L250,250 L0,250z"></path></clipPath><clipPath id="__lottie_element_6180"><path d="M0,0 L250,0 L250,250 L0,250z"></path></clipPath><clipPath id="__lottie_element_6184"><path d="M0,0 L250,0 L250,250 L0,250z"></path></clipPath><clipPath id="__lottie_element_6188"><path d="M0,0 L250,0 L250,250 L0,250z"></path></clipPath><clipPath id="__lottie_element_6192"><path d="M0,0 L250,0 L250,250 L0,250z"></path></clipPath><clipPath id="__lottie_element_6196"><path d="M0,0 L250,0 L250,250 L0,250z"></path></clipPath><clipPath id="__lottie_element_6200"><path d="M0,0 L250,0 L250,250 L0,250z"></path></clipPath><clipPath id="__lottie_element_6204"><path d="M0,0 L250,0 L250,250 L0,250z"></path></clipPath><clipPath id="__lottie_element_6208"><path d="M0,0 L250,0 L250,250 L0,250z"></path></clipPath></defs><g clip-path="url(#__lottie_element_6111)"><g transform="matrix(1,0,0,1,223.89300537109375,220.89300537109375)" opacity="1" style="display: block;"><g opacity="1" transform="matrix(1,0,0,1,1.1069999933242798,4.10699987411499)"><path fill="rgb(24,115,232)" fill-opacity="1" d=" M125,-125 C125,-125 125,125 125,125 C125,125 -125,125 -125,125 C-125,125 -125,-125 -125,-125 C-125,-125 125,-125 125,-125z"></path><path stroke-linecap="butt" stroke-linejoin="miter" fill-opacity="0" stroke-miterlimit="4" stroke="rgb(20,20,20)" stroke-opacity="1" stroke-width="2" d=" M125,-125 C125,-125 125,125 125,125 C125,125 -125,125 -125,125 C-125,125 -125,-125 -125,-125 C-125,-125 125,-125 125,-125z"></path></g></g><g clip-path="url(#__lottie_element_6116)" transform="matrix(0.5,0,0,0.5,125,125)" opacity="1" style="display: block;"><g transform="matrix(1,0,0,1,0,0)" opacity="1" style="display: block;"><rect width="500" height="500" fill="#e64f9b"></rect></g><g clip-path="url(#__lottie_element_6132)" transform="matrix(0.5699999928474426,0,0,0.5699999928474426,-28.75,-37.75)" opacity="1" style="display: block;"><g transform="matrix(-1.25,0,0,-1.25,143.1374969482422,131.38250732421875)" opacity="1" style="display: block;"><g opacity="1" transform="matrix(1,0,0,1,0.10999999940395355,0.10599999874830246)"><path stroke-linecap="butt" stroke-linejoin="miter" fill-opacity="0" stroke-miterlimit="4" stroke="rgb(249,214,72)" stroke-opacity="1" stroke-width="12" d=" M-53.599998474121094,-47 C-53.599998474121094,-47 -53.599998474121094,-67 -33.599998474121094,-67 C-13.600000381469727,-67 -13.600000381469727,-47 -13.600000381469727,-47 C-13.600000381469727,-47 -13.600000381469727,-27 6.400000095367432,-27 C26.399999618530273,-27 26.399999618530273,-47 26.399999618530273,-47"></path></g></g><g transform="matrix(1.25,0,0,1.25,88.75,126.25)" opacity="1" style="display: block;"><g opacity="1" transform="matrix(1,0,0,1,0,0)"><path stroke-linecap="butt" stroke-linejoin="miter" fill-opacity="0" stroke-miterlimit="4" stroke="rgb(249,214,72)" stroke-opacity="1" stroke-width="12" d=" M-55,-45 C-55,-45 -55,-65 -35,-65 C-15,-65 -15,-45 -15,-45 C-15,-45 -15,-25 5,-25 C25,-25 25,-45 25,-45"></path></g></g></g><g clip-path="url(#__lottie_element_6136)" transform="matrix(0.6098999977111816,0,0,0.6098999977111816,-33.73749923706055,99.76249694824219)" opacity="1" style="display: block;"><g transform="matrix(1.25,0,0,1.25,176.8625030517578,248.61749267578125)" opacity="1" style="display: block;"><g opacity="1" transform="matrix(1,0,0,1,0.10999999940395355,0.10599999874830246)"><path stroke-linecap="butt" stroke-linejoin="miter" fill-opacity="0" stroke-miterlimit="4" stroke="rgb(249,214,72)" stroke-opacity="1" stroke-width="12" d=" M-53.599998474121094,-47 C-53.599998474121094,-47 -53.599998474121094,-67 -33.599998474121094,-67 C-13.600000381469727,-67 -13.600000381469727,-47 -13.600000381469727,-47 C-13.600000381469727,-47 -13.600000381469727,-27 6.400000095367432,-27 C26.399999618530273,-27 26.399999618530273,-47 26.399999618530273,-47"></path></g></g><g transform="matrix(1.25,0,0,1.25,88.75,126.25)" opacity="1" style="display: block;"><g opacity="1" transform="matrix(1,0,0,1,0,0)"><path stroke-linecap="butt" stroke-linejoin="miter" fill-opacity="0" stroke-miterlimit="4" stroke="rgb(249,214,72)" stroke-opacity="1" stroke-width="12" d=" M-55,-45 C-55,-45 -55,-65 -35,-65 C-15,-65 -15,-45 -15,-45 C-15,-45 -15,-25 5,-25 C25,-25 25,-45 25,-45"></path></g></g></g><g clip-path="url(#__lottie_element_6140)" transform="matrix(0.6098999977111816,0,0,0.6098999977111816,-33.73749923706055,242.2624969482422)" opacity="1" style="display: block;"><g transform="matrix(-1.25,0,0,-1.25,143.1374969482422,131.38250732421875)" opacity="1" style="display: block;"><g opacity="1" transform="matrix(1,0,0,1,0.10999999940395355,0.10599999874830246)"><path stroke-linecap="butt" stroke-linejoin="miter" fill-opacity="0" stroke-miterlimit="4" stroke="rgb(249,214,72)" stroke-opacity="1" stroke-width="12" d=" M-53.599998474121094,-47 C-53.599998474121094,-47 -53.599998474121094,-67 -33.599998474121094,-67 C-13.600000381469727,-67 -13.600000381469727,-47 -13.600000381469727,-47 C-13.600000381469727,-47 -13.600000381469727,-27 6.400000095367432,-27 C26.399999618530273,-27 26.399999618530273,-47 26.399999618530273,-47"></path></g></g><g transform="matrix(1.25,0,0,1.25,88.75,126.25)" opacity="1" style="display: block;"><g opacity="1" transform="matrix(1,0,0,1,0,0)"><path stroke-linecap="butt" stroke-linejoin="miter" fill-opacity="0" stroke-miterlimit="4" stroke="rgb(249,214,72)" stroke-opacity="1" stroke-width="12" d=" M-55,-45 C-55,-45 -55,-65 -35,-65 C-15,-65 -15,-45 -15,-45 C-15,-45 -15,-25 5,-25 C25,-25 25,-45 25,-45"></path></g></g></g><g clip-path="url(#__lottie_element_6144)" transform="matrix(0.6098999977111816,0,0,0.6098999977111816,-33.73749923706055,384.7624816894531)" opacity="1" style="display: block;"><g transform="matrix(1.25,0,0,1.25,176.8625030517578,248.61749267578125)" opacity="1" style="display: block;"><g opacity="1" transform="matrix(1,0,0,1,0.10999999940395355,0.10599999874830246)"><path stroke-linecap="butt" stroke-linejoin="miter" fill-opacity="0" stroke-miterlimit="4" stroke="rgb(249,214,72)" stroke-opacity="1" stroke-width="12" d=" M-53.599998474121094,-47 C-53.599998474121094,-47 -53.599998474121094,-67 -33.599998474121094,-67 C-13.600000381469727,-67 -13.600000381469727,-47 -13.600000381469727,-47 C-13.600000381469727,-47 -13.600000381469727,-27 6.400000095367432,-27 C26.399999618530273,-27 26.399999618530273,-47 26.399999618530273,-47"></path></g></g><g transform="matrix(1.25,0,0,1.25,88.75,126.25)" opacity="1" style="display: block;"><g opacity="1" transform="matrix(1,0,0,1,0,0)"><path stroke-linecap="butt" stroke-linejoin="miter" fill-opacity="0" stroke-miterlimit="4" stroke="rgb(249,214,72)" stroke-opacity="1" stroke-width="12" d=" M-55,-45 C-55,-45 -55,-65 -35,-65 C-15,-65 -15,-45 -15,-45 C-15,-45 -15,-25 5,-25 C25,-25 25,-45 25,-45"></path></g></g></g><g clip-path="url(#__lottie_element_6148)" transform="matrix(0.6098999977111816,0,0,0.6098999977111816,181.15249633789062,-42.73749923706055)" opacity="1" style="display: block;"><g transform="matrix(-1.25,0,0,-1.25,143.1374969482422,131.38250732421875)" opacity="1" style="display: block;"><g opacity="1" transform="matrix(1,0,0,1,0.10999999940395355,0.10599999874830246)"><path stroke-linecap="butt" stroke-linejoin="miter" fill-opacity="0" stroke-miterlimit="4" stroke="rgb(249,214,72)" stroke-opacity="1" stroke-width="12" d=" M-53.599998474121094,-47 C-53.599998474121094,-47 -53.599998474121094,-67 -33.599998474121094,-67 C-13.600000381469727,-67 -13.600000381469727,-47 -13.600000381469727,-47 C-13.600000381469727,-47 -13.600000381469727,-27 6.400000095367432,-27 C26.399999618530273,-27 26.399999618530273,-47 26.399999618530273,-47"></path></g></g><g transform="matrix(1.25,0,0,1.25,88.75,126.25)" opacity="1" style="display: block;"><g opacity="1" transform="matrix(1,0,0,1,0,0)"><path stroke-linecap="butt" stroke-linejoin="miter" fill-opacity="0" stroke-miterlimit="4" stroke="rgb(249,214,72)" stroke-opacity="1" stroke-width="12" d=" M-55,-45 C-55,-45 -55,-65 -35,-65 C-15,-65 -15,-45 -15,-45 C-15,-45 -15,-25 5,-25 C25,-25 25,-45 25,-45"></path></g></g></g><g clip-path="url(#__lottie_element_6152)" transform="matrix(0.6098999977111816,0,0,0.6098999977111816,181.15249633789062,99.76249694824219)" opacity="1" style="display: block;"><g transform="matrix(1.25,0,0,1.25,176.8625030517578,248.61749267578125)" opacity="1" style="display: block;"><g opacity="1" transform="matrix(1,0,0,1,0.10999999940395355,0.10599999874830246)"><path stroke-linecap="butt" stroke-linejoin="miter" fill-opacity="0" stroke-miterlimit="4" stroke="rgb(249,214,72)" stroke-opacity="1" stroke-width="12" d=" M-53.599998474121094,-47 C-53.599998474121094,-47 -53.599998474121094,-67 -33.599998474121094,-67 C-13.600000381469727,-67 -13.600000381469727,-47 -13.600000381469727,-47 C-13.600000381469727,-47 -13.600000381469727,-27 6.400000095367432,-27 C26.399999618530273,-27 26.399999618530273,-47 26.399999618530273,-47"></path></g></g><g transform="matrix(1.25,0,0,1.25,88.75,126.25)" opacity="1" style="display: block;"><g opacity="1" transform="matrix(1,0,0,1,0,0)"><path stroke-linecap="butt" stroke-linejoin="miter" fill-opacity="0" stroke-miterlimit="4" stroke="rgb(249,214,72)" stroke-opacity="1" stroke-width="12" d=" M-55,-45 C-55,-45 -55,-65 -35,-65 C-15,-65 -15,-45 -15,-45 C-15,-45 -15,-25 5,-25 C25,-25 25,-45 25,-45"></path></g></g></g><g clip-path="url(#__lottie_element_6156)" transform="matrix(0.6098999977111816,0,0,0.6098999977111816,181.15249633789062,242.2624969482422)" opacity="1" style="display: block;"><g transform="matrix(-1.25,0,0,-1.25,143.1374969482422,131.38250732421875)" opacity="1" style="display: block;"><g opacity="1" transform="matrix(1,0,0,1,0.10999999940395355,0.10599999874830246)"><path stroke-linecap="butt" stroke-linejoin="miter" fill-opacity="0" stroke-miterlimit="4" stroke="rgb(249,214,72)" stroke-opacity="1" stroke-width="12" d=" M-53.599998474121094,-47 C-53.599998474121094,-47 -53.599998474121094,-67 -33.599998474121094,-67 C-13.600000381469727,-67 -13.600000381469727,-47 -13.600000381469727,-47 C-13.600000381469727,-47 -13.600000381469727,-27 6.400000095367432,-27 C26.399999618530273,-27 26.399999618530273,-47 26.399999618530273,-47"></path></g></g><g transform="matrix(1.25,0,0,1.25,88.75,126.25)" opacity="1" style="display: block;"><g opacity="1" transform="matrix(1,0,0,1,0,0)"><path stroke-linecap="butt" stroke-linejoin="miter" fill-opacity="0" stroke-miterlimit="4" stroke="rgb(249,214,72)" stroke-opacity="1" stroke-width="12" d=" M-55,-45 C-55,-45 -55,-65 -35,-65 C-15,-65 -15,-45 -15,-45 C-15,-45 -15,-25 5,-25 C25,-25 25,-45 25,-45"></path></g></g></g><g clip-path="url(#__lottie_element_6160)" transform="matrix(0.6098999977111816,0,0,0.6098999977111816,181.15249633789062,384.7624816894531)" opacity="1" style="display: block;"><g transform="matrix(1.25,0,0,1.25,176.8625030517578,248.61749267578125)" opacity="1" style="display: block;"><g opacity="1" transform="matrix(1,0,0,1,0.10999999940395355,0.10599999874830246)"><path stroke-linecap="butt" stroke-linejoin="miter" fill-opacity="0" stroke-miterlimit="4" stroke="rgb(249,214,72)" stroke-opacity="1" stroke-width="12" d=" M-53.599998474121094,-47 C-53.599998474121094,-47 -53.599998474121094,-67 -33.599998474121094,-67 C-13.600000381469727,-67 -13.600000381469727,-47 -13.600000381469727,-47 C-13.600000381469727,-47 -13.600000381469727,-27 6.400000095367432,-27 C26.399999618530273,-27 26.399999618530273,-47 26.399999618530273,-47"></path></g></g><g transform="matrix(1.25,0,0,1.25,88.75,126.25)" opacity="1" style="display: block;"><g opacity="1" transform="matrix(1,0,0,1,0,0)"><path stroke-linecap="butt" stroke-linejoin="miter" fill-opacity="0" stroke-miterlimit="4" stroke="rgb(249,214,72)" stroke-opacity="1" stroke-width="12" d=" M-55,-45 C-55,-45 -55,-65 -35,-65 C-15,-65 -15,-45 -15,-45 C-15,-45 -15,-25 5,-25 C25,-25 25,-45 25,-45"></path></g></g></g><g clip-path="url(#__lottie_element_6164)" transform="matrix(0.6098999977111816,0,0,0.6098999977111816,73.7074966430664,-42.73749923706055)" opacity="1" style="display: block;"><g transform="matrix(1.25,0,0,1.25,176.8625030517578,248.61749267578125)" opacity="1" style="display: block;"><g opacity="1" transform="matrix(1,0,0,1,0.10999999940395355,0.10599999874830246)"><path stroke-linecap="butt" stroke-linejoin="miter" fill-opacity="0" stroke-miterlimit="4" stroke="rgb(249,214,72)" stroke-opacity="1" stroke-width="12" d=" M-53.599998474121094,-47 C-53.599998474121094,-47 -53.599998474121094,-67 -33.599998474121094,-67 C-13.600000381469727,-67 -13.600000381469727,-47 -13.600000381469727,-47 C-13.600000381469727,-47 -13.600000381469727,-27 6.400000095367432,-27 C26.399999618530273,-27 26.399999618530273,-47 26.399999618530273,-47"></path></g></g><g transform="matrix(1.25,0,0,1.25,88.75,126.25)" opacity="1" style="display: block;"><g opacity="1" transform="matrix(1,0,0,1,0,0)"><path stroke-linecap="butt" stroke-linejoin="miter" fill-opacity="0" stroke-miterlimit="4" stroke="rgb(249,214,72)" stroke-opacity="1" stroke-width="12" d=" M-55,-45 C-55,-45 -55,-65 -35,-65 C-15,-65 -15,-45 -15,-45 C-15,-45 -15,-25 5,-25 C25,-25 25,-45 25,-45"></path></g></g></g><g clip-path="url(#__lottie_element_6168)" transform="matrix(0.6098999977111816,0,0,0.6098999977111816,73.7074966430664,99.76249694824219)" opacity="1" style="display: block;"><g transform="matrix(-1.25,0,0,-1.25,143.1374969482422,131.38250732421875)" opacity="1" style="display: block;"><g opacity="1" transform="matrix(1,0,0,1,0.10999999940395355,0.10599999874830246)"><path stroke-linecap="butt" stroke-linejoin="miter" fill-opacity="0" stroke-miterlimit="4" stroke="rgb(249,214,72)" stroke-opacity="1" stroke-width="12" d=" M-53.599998474121094,-47 C-53.599998474121094,-47 -53.599998474121094,-67 -33.599998474121094,-67 C-13.600000381469727,-67 -13.600000381469727,-47 -13.600000381469727,-47 C-13.600000381469727,-47 -13.600000381469727,-27 6.400000095367432,-27 C26.399999618530273,-27 26.399999618530273,-47 26.399999618530273,-47"></path></g></g><g transform="matrix(1.25,0,0,1.25,88.75,126.25)" opacity="1" style="display: block;"><g opacity="1" transform="matrix(1,0,0,1,0,0)"><path stroke-linecap="butt" stroke-linejoin="miter" fill-opacity="0" stroke-miterlimit="4" stroke="rgb(249,214,72)" stroke-opacity="1" stroke-width="12" d=" M-55,-45 C-55,-45 -55,-65 -35,-65 C-15,-65 -15,-45 -15,-45 C-15,-45 -15,-25 5,-25 C25,-25 25,-45 25,-45"></path></g></g></g><g clip-path="url(#__lottie_element_6172)" transform="matrix(0.6098999977111816,0,0,0.6098999977111816,73.7074966430664,242.2624969482422)" opacity="1" style="display: block;"><g transform="matrix(1.25,0,0,1.25,176.8625030517578,248.61749267578125)" opacity="1" style="display: block;"><g opacity="1" transform="matrix(1,0,0,1,0.10999999940395355,0.10599999874830246)"><path stroke-linecap="butt" stroke-linejoin="miter" fill-opacity="0" stroke-miterlimit="4" stroke="rgb(249,214,72)" stroke-opacity="1" stroke-width="12" d=" M-53.599998474121094,-47 C-53.599998474121094,-47 -53.599998474121094,-67 -33.599998474121094,-67 C-13.600000381469727,-67 -13.600000381469727,-47 -13.600000381469727,-47 C-13.600000381469727,-47 -13.600000381469727,-27 6.400000095367432,-27 C26.399999618530273,-27 26.399999618530273,-47 26.399999618530273,-47"></path></g></g><g transform="matrix(1.25,0,0,1.25,88.75,126.25)" opacity="1" style="display: block;"><g opacity="1" transform="matrix(1,0,0,1,0,0)"><path stroke-linecap="butt" stroke-linejoin="miter" fill-opacity="0" stroke-miterlimit="4" stroke="rgb(249,214,72)" stroke-opacity="1" stroke-width="12" d=" M-55,-45 C-55,-45 -55,-65 -35,-65 C-15,-65 -15,-45 -15,-45 C-15,-45 -15,-25 5,-25 C25,-25 25,-45 25,-45"></path></g></g></g><g clip-path="url(#__lottie_element_6176)" transform="matrix(0.6098999977111816,0,0,0.6098999977111816,73.7074966430664,384.7624816894531)" opacity="1" style="display: block;"><g transform="matrix(-1.25,0,0,-1.25,143.1374969482422,131.38250732421875)" opacity="1" style="display: block;"><g opacity="1" transform="matrix(1,0,0,1,0.10999999940395355,0.10599999874830246)"><path stroke-linecap="butt" stroke-linejoin="miter" fill-opacity="0" stroke-miterlimit="4" stroke="rgb(249,214,72)" stroke-opacity="1" stroke-width="12" d=" M-53.599998474121094,-47 C-53.599998474121094,-47 -53.599998474121094,-67 -33.599998474121094,-67 C-13.600000381469727,-67 -13.600000381469727,-47 -13.600000381469727,-47 C-13.600000381469727,-47 -13.600000381469727,-27 6.400000095367432,-27 C26.399999618530273,-27 26.399999618530273,-47 26.399999618530273,-47"></path></g></g><g transform="matrix(1.25,0,0,1.25,88.75,126.25)" opacity="1" style="display: block;"><g opacity="1" transform="matrix(1,0,0,1,0,0)"><path stroke-linecap="butt" stroke-linejoin="miter" fill-opacity="0" stroke-miterlimit="4" stroke="rgb(249,214,72)" stroke-opacity="1" stroke-width="12" d=" M-55,-45 C-55,-45 -55,-65 -35,-65 C-15,-65 -15,-45 -15,-45 C-15,-45 -15,-25 5,-25 C25,-25 25,-45 25,-45"></path></g></g></g><g clip-path="url(#__lottie_element_6180)" transform="matrix(0.6098999977111816,0,0,0.6098999977111816,396.04248046875,-42.73749923706055)" opacity="1" style="display: block;"><g transform="matrix(-1.25,0,0,-1.25,143.1374969482422,131.38250732421875)" opacity="1" style="display: block;"><g opacity="1" transform="matrix(1,0,0,1,0.10999999940395355,0.10599999874830246)"><path stroke-linecap="butt" stroke-linejoin="miter" fill-opacity="0" stroke-miterlimit="4" stroke="rgb(249,214,72)" stroke-opacity="1" stroke-width="12" d=" M-53.599998474121094,-47 C-53.599998474121094,-47 -53.599998474121094,-67 -33.599998474121094,-67 C-13.600000381469727,-67 -13.600000381469727,-47 -13.600000381469727,-47 C-13.600000381469727,-47 -13.600000381469727,-27 6.400000095367432,-27 C26.399999618530273,-27 26.399999618530273,-47 26.399999618530273,-47"></path></g></g><g transform="matrix(1.25,0,0,1.25,88.75,126.25)" opacity="1" style="display: block;"><g opacity="1" transform="matrix(1,0,0,1,0,0)"><path stroke-linecap="butt" stroke-linejoin="miter" fill-opacity="0" stroke-miterlimit="4" stroke="rgb(249,214,72)" stroke-opacity="1" stroke-width="12" d=" M-55,-45 C-55,-45 -55,-65 -35,-65 C-15,-65 -15,-45 -15,-45 C-15,-45 -15,-25 5,-25 C25,-25 25,-45 25,-45"></path></g></g></g><g clip-path="url(#__lottie_element_6184)" transform="matrix(0.6098999977111816,0,0,0.6098999977111816,396.04248046875,99.76249694824219)" opacity="1" style="display: block;"><g transform="matrix(1.25,0,0,1.25,176.8625030517578,248.61749267578125)" opacity="1" style="display: block;"><g opacity="1" transform="matrix(1,0,0,1,0.10999999940395355,0.10599999874830246)"><path stroke-linecap="butt" stroke-linejoin="miter" fill-opacity="0" stroke-miterlimit="4" stroke="rgb(249,214,72)" stroke-opacity="1" stroke-width="12" d=" M-53.599998474121094,-47 C-53.599998474121094,-47 -53.599998474121094,-67 -33.599998474121094,-67 C-13.600000381469727,-67 -13.600000381469727,-47 -13.600000381469727,-47 C-13.600000381469727,-47 -13.600000381469727,-27 6.400000095367432,-27 C26.399999618530273,-27 26.399999618530273,-47 26.399999618530273,-47"></path></g></g><g transform="matrix(1.25,0,0,1.25,88.75,126.25)" opacity="1" style="display: block;"><g opacity="1" transform="matrix(1,0,0,1,0,0)"><path stroke-linecap="butt" stroke-linejoin="miter" fill-opacity="0" stroke-miterlimit="4" stroke="rgb(249,214,72)" stroke-opacity="1" stroke-width="12" d=" M-55,-45 C-55,-45 -55,-65 -35,-65 C-15,-65 -15,-45 -15,-45 C-15,-45 -15,-25 5,-25 C25,-25 25,-45 25,-45"></path></g></g></g><g clip-path="url(#__lottie_element_6188)" transform="matrix(0.6098999977111816,0,0,0.6098999977111816,396.04248046875,242.2624969482422)" opacity="1" style="display: block;"><g transform="matrix(-1.25,0,0,-1.25,143.1374969482422,131.38250732421875)" opacity="1" style="display: block;"><g opacity="1" transform="matrix(1,0,0,1,0.10999999940395355,0.10599999874830246)"><path stroke-linecap="butt" stroke-linejoin="miter" fill-opacity="0" stroke-miterlimit="4" stroke="rgb(249,214,72)" stroke-opacity="1" stroke-width="12" d=" M-53.599998474121094,-47 C-53.599998474121094,-47 -53.599998474121094,-67 -33.599998474121094,-67 C-13.600000381469727,-67 -13.600000381469727,-47 -13.600000381469727,-47 C-13.600000381469727,-47 -13.600000381469727,-27 6.400000095367432,-27 C26.399999618530273,-27 26.399999618530273,-47 26.399999618530273,-47"></path></g></g><g transform="matrix(1.25,0,0,1.25,88.75,126.25)" opacity="1" style="display: block;"><g opacity="1" transform="matrix(1,0,0,1,0,0)"><path stroke-linecap="butt" stroke-linejoin="miter" fill-opacity="0" stroke-miterlimit="4" stroke="rgb(249,214,72)" stroke-opacity="1" stroke-width="12" d=" M-55,-45 C-55,-45 -55,-65 -35,-65 C-15,-65 -15,-45 -15,-45 C-15,-45 -15,-25 5,-25 C25,-25 25,-45 25,-45"></path></g></g></g><g clip-path="url(#__lottie_element_6192)" transform="matrix(0.6098999977111816,0,0,0.6098999977111816,396.04248046875,384.7624816894531)" opacity="1" style="display: block;"><g transform="matrix(1.25,0,0,1.25,176.8625030517578,248.61749267578125)" opacity="1" style="display: block;"><g opacity="1" transform="matrix(1,0,0,1,0.10999999940395355,0.10599999874830246)"><path stroke-linecap="butt" stroke-linejoin="miter" fill-opacity="0" stroke-miterlimit="4" stroke="rgb(249,214,72)" stroke-opacity="1" stroke-width="12" d=" M-53.599998474121094,-47 C-53.599998474121094,-47 -53.599998474121094,-67 -33.599998474121094,-67 C-13.600000381469727,-67 -13.600000381469727,-47 -13.600000381469727,-47 C-13.600000381469727,-47 -13.600000381469727,-27 6.400000095367432,-27 C26.399999618530273,-27 26.399999618530273,-47 26.399999618530273,-47"></path></g></g><g transform="matrix(1.25,0,0,1.25,88.75,126.25)" opacity="1" style="display: block;"><g opacity="1" transform="matrix(1,0,0,1,0,0)"><path stroke-linecap="butt" stroke-linejoin="miter" fill-opacity="0" stroke-miterlimit="4" stroke="rgb(249,214,72)" stroke-opacity="1" stroke-width="12" d=" M-55,-45 C-55,-45 -55,-65 -35,-65 C-15,-65 -15,-45 -15,-45 C-15,-45 -15,-25 5,-25 C25,-25 25,-45 25,-45"></path></g></g></g><g clip-path="url(#__lottie_element_6196)" transform="matrix(0.6098999977111816,0,0,0.6098999977111816,288.5975036621094,-42.73749923706055)" opacity="1" style="display: block;"><g transform="matrix(1.25,0,0,1.25,176.8625030517578,248.61749267578125)" opacity="1" style="display: block;"><g opacity="1" transform="matrix(1,0,0,1,0.10999999940395355,0.10599999874830246)"><path stroke-linecap="butt" stroke-linejoin="miter" fill-opacity="0" stroke-miterlimit="4" stroke="rgb(249,214,72)" stroke-opacity="1" stroke-width="12" d=" M-53.599998474121094,-47 C-53.599998474121094,-47 -53.599998474121094,-67 -33.599998474121094,-67 C-13.600000381469727,-67 -13.600000381469727,-47 -13.600000381469727,-47 C-13.600000381469727,-47 -13.600000381469727,-27 6.400000095367432,-27 C26.399999618530273,-27 26.399999618530273,-47 26.399999618530273,-47"></path></g></g><g transform="matrix(1.25,0,0,1.25,88.75,126.25)" opacity="1" style="display: block;"><g opacity="1" transform="matrix(1,0,0,1,0,0)"><path stroke-linecap="butt" stroke-linejoin="miter" fill-opacity="0" stroke-miterlimit="4" stroke="rgb(249,214,72)" stroke-opacity="1" stroke-width="12" d=" M-55,-45 C-55,-45 -55,-65 -35,-65 C-15,-65 -15,-45 -15,-45 C-15,-45 -15,-25 5,-25 C25,-25 25,-45 25,-45"></path></g></g></g><g clip-path="url(#__lottie_element_6200)" transform="matrix(0.6098999977111816,0,0,0.6098999977111816,288.5975036621094,99.76249694824219)" opacity="1" style="display: block;"><g transform="matrix(-1.25,0,0,-1.25,143.1374969482422,131.38250732421875)" opacity="1" style="display: block;"><g opacity="1" transform="matrix(1,0,0,1,0.10999999940395355,0.10599999874830246)"><path stroke-linecap="butt" stroke-linejoin="miter" fill-opacity="0" stroke-miterlimit="4" stroke="rgb(249,214,72)" stroke-opacity="1" stroke-width="12" d=" M-53.599998474121094,-47 C-53.599998474121094,-47 -53.599998474121094,-67 -33.599998474121094,-67 C-13.600000381469727,-67 -13.600000381469727,-47 -13.600000381469727,-47 C-13.600000381469727,-47 -13.600000381469727,-27 6.400000095367432,-27 C26.399999618530273,-27 26.399999618530273,-47 26.399999618530273,-47"></path></g></g><g transform="matrix(1.25,0,0,1.25,88.75,126.25)" opacity="1" style="display: block;"><g opacity="1" transform="matrix(1,0,0,1,0,0)"><path stroke-linecap="butt" stroke-linejoin="miter" fill-opacity="0" stroke-miterlimit="4" stroke="rgb(249,214,72)" stroke-opacity="1" stroke-width="12" d=" M-55,-45 C-55,-45 -55,-65 -35,-65 C-15,-65 -15,-45 -15,-45 C-15,-45 -15,-25 5,-25 C25,-25 25,-45 25,-45"></path></g></g></g><g clip-path="url(#__lottie_element_6204)" transform="matrix(0.6098999977111816,0,0,0.6098999977111816,288.5975036621094,242.2624969482422)" opacity="1" style="display: block;"><g transform="matrix(1.25,0,0,1.25,176.8625030517578,248.61749267578125)" opacity="1" style="display: block;"><g opacity="1" transform="matrix(1,0,0,1,0.10999999940395355,0.10599999874830246)"><path stroke-linecap="butt" stroke-linejoin="miter" fill-opacity="0" stroke-miterlimit="4" stroke="rgb(249,214,72)" stroke-opacity="1" stroke-width="12" d=" M-53.599998474121094,-47 C-53.599998474121094,-47 -53.599998474121094,-67 -33.599998474121094,-67 C-13.600000381469727,-67 -13.600000381469727,-47 -13.600000381469727,-47 C-13.600000381469727,-47 -13.600000381469727,-27 6.400000095367432,-27 C26.399999618530273,-27 26.399999618530273,-47 26.399999618530273,-47"></path></g></g><g transform="matrix(1.25,0,0,1.25,88.75,126.25)" opacity="1" style="display: block;"><g opacity="1" transform="matrix(1,0,0,1,0,0)"><path stroke-linecap="butt" stroke-linejoin="miter" fill-opacity="0" stroke-miterlimit="4" stroke="rgb(249,214,72)" stroke-opacity="1" stroke-width="12" d=" M-55,-45 C-55,-45 -55,-65 -35,-65 C-15,-65 -15,-45 -15,-45 C-15,-45 -15,-25 5,-25 C25,-25 25,-45 25,-45"></path></g></g></g><g clip-path="url(#__lottie_element_6208)" transform="matrix(0.6098999977111816,0,0,0.6098999977111816,288.5975036621094,384.7624816894531)" opacity="1" style="display: block;"><g transform="matrix(-1.25,0,0,-1.25,143.1374969482422,131.38250732421875)" opacity="1" style="display: block;"><g opacity="1" transform="matrix(1,0,0,1,0.10999999940395355,0.10599999874830246)"><path stroke-linecap="butt" stroke-linejoin="miter" fill-opacity="0" stroke-miterlimit="4" stroke="rgb(249,214,72)" stroke-opacity="1" stroke-width="12" d=" M-53.599998474121094,-47 C-53.599998474121094,-47 -53.599998474121094,-67 -33.599998474121094,-67 C-13.600000381469727,-67 -13.600000381469727,-47 -13.600000381469727,-47 C-13.600000381469727,-47 -13.600000381469727,-27 6.400000095367432,-27 C26.399999618530273,-27 26.399999618530273,-47 26.399999618530273,-47"></path></g></g><g transform="matrix(1.25,0,0,1.25,88.75,126.25)" opacity="1" style="display: block;"><g opacity="1" transform="matrix(1,0,0,1,0,0)"><path stroke-linecap="butt" stroke-linejoin="miter" fill-opacity="0" stroke-miterlimit="4" stroke="rgb(249,214,72)" stroke-opacity="1" stroke-width="12" d=" M-55,-45 C-55,-45 -55,-65 -35,-65 C-15,-65 -15,-45 -15,-45 C-15,-45 -15,-25 5,-25 C25,-25 25,-45 25,-45"></path></g></g></g></g><g transform="matrix(1,0,0,1,248.89300537109375,245.89300537109375)" opacity="1" style="display: block;"><g opacity="1" transform="matrix(1,0,0,1,1.1069999933242798,4.10699987411499)"><path stroke-linecap="butt" stroke-linejoin="miter" fill-opacity="0" stroke-miterlimit="4" stroke="rgb(20,20,20)" stroke-opacity="1" stroke-width="2" d=" M125,-125 C125,-125 125,125 125,125 C125,125 -125,125 -125,125 C-125,125 -125,-125 -125,-125 C-125,-125 125,-125 125,-125z"></path></g></g><g transform="matrix(1,0,0,1,273.89300537109375,270.89300537109375)" opacity="1" style="display: block;"><g fill="none" stroke-linecap="round" stroke-dashoffset="1" stroke="rgb(20,20,20)" stroke-width="4" opacity="1"><path d=" M-9.140000343322754,-3.6589999198913574 C-9.140000343322754,-3.6589999198913574 -9.140000343322754,-38.41999816894531 -9.140000343322754,-38.41999816894531 C-9.140000343322754,-38.41999816894531 58.83700180053711,-38.41999816894531 58.83700180053711,-38.41999816894531 C58.83700180053711,-38.41999816894531 58.83700180053711,-64.24199676513672 58.83700180053711,-64.24199676513672 C58.83700180053711,-64.24199676513672 -42.797000885009766,-64.24199676513672 -42.797000885009766,-64.24199676513672 C-42.797000885009766,-64.24199676513672 -42.797000885009766,80.31900024414062 -42.797000885009766,80.31900024414062 C-42.797000885009766,80.31900024414062 -9.140000343322754,80.31900024414062 -9.140000343322754,80.31900024414062 C-9.140000343322754,80.31900024414062 -9.140000343322754,22.163000106811523 -9.140000343322754,22.163000106811523 C-9.140000343322754,22.163000106811523 48.683998107910156,22.163000106811523 48.683998107910156,22.163000106811523 C48.683998107910156,22.163000106811523 48.683998107910156,-3.6589999198913574 48.683998107910156,-3.6589999198913574 C48.683998107910156,-3.6589999198913574 -9.140000343322754,-3.6589999198913574 -9.140000343322754,-3.6589999198913574" stroke-dasharray="1 0.6"></path></g></g><g mask="url(#__lottie_element_6124)" transform="matrix(1,0,0,1,273.89300537109375,270.89300537109375)" opacity="1" style="display: block;"><g opacity="1" transform="matrix(1,0,0,1,1.1069999933242798,4.10699987411499)"><path fill="rgb(223,196,206)" fill-opacity="1" d=" M125,-125 C125,-125 125,125 125,125 C125,125 -125,125 -125,125 C-125,125 -125,-125 -125,-125 C-125,-125 125,-125 125,-125z"></path><path stroke-linecap="butt" stroke-linejoin="miter" fill-opacity="0" stroke-miterlimit="4" stroke="rgb(20,20,20)" stroke-opacity="1" stroke-width="2" d=" M125,-125 C125,-125 125,125 125,125 C125,125 -125,125 -125,125 C-125,125 -125,-125 -125,-125 C-125,-125 125,-125 125,-125z"></path></g></g></g></svg>