<svg xmlns="http://www.w3.org/2000/svg" viewBox="0 0 500 500" width="500" height="500" preserveAspectRatio="xMidYMid meet" style="width: 100%; height: 100%; transform: translate3d(0px, 0px, 0px);"><defs><clipPath id="__lottie_element_6332"><rect width="500" height="500" x="0" y="0"></rect></clipPath><clipPath id="__lottie_element_6334"><path d="M0,0 L500,0 L500,500 L0,500z"></path></clipPath><clipPath id="__lottie_element_6335"><path fill="#ffffff" clip-rule="nonzero" d=" M400,100 C400,100 100,100 100,100 C100,100 100,400 100,400 C100,400 400,400 400,400 C400,400 400,100 400,100" fill-opacity="1"></path></clipPath><clipPath id="__lottie_element_6338"><path fill="#ffffff" clip-rule="nonzero" d=" M109.7040023803711,-18.402000427246094 C109.7040023803711,-18.402000427246094 2.9089999198913574,-18.402000427246094 2.9089999198913574,-18.402000427246094 C2.9089999198913574,-18.402000427246094 2.9089999198913574,24.222000122070312 2.9089999198913574,24.222000122070312 C2.9089999198913574,24.222000122070312 64.05699920654297,24.222000122070312 64.05699920654297,24.222000122070312 C61.316001892089844,38.20899963378906 53.32699966430664,50.0880012512207 41.375,58.055999755859375 C31.167999267578125,64.86000061035156 18.219999313354492,69.01899719238281 2.9089999198913574,69.01899719238281 C-26.672000885009766,69.01899719238281 -51.715999603271484,49.07699966430664 -60.694000244140625,22.142000198364258 C-63.05699920654297,15.338000297546387 -64.28600311279297,8.0600004196167 -64.28600311279297,0.5 C-64.28600311279297,-7.059999942779541 -62.96200180053711,-14.336999893188477 -60.694000244140625,-21.142000198364258 C-51.715999603271484,-48.07699966430664 -26.672000885009766,-68.01899719238281 2.9089999198913574,-68.01899719238281 C19.63800048828125,-68.01899719238281 34.56999969482422,-62.25299835205078 46.38399887084961,-51.00699996948242 C46.38399887084961,-51.00699996948242 78.70600128173828,-83.3290023803711 78.70600128173828,-83.3290023803711 C59.143001556396484,-101.66400146484375 33.529998779296875,-112.91000366210938 2.9089999198913574,-112.91000366210938 C-41.415000915527344,-112.91000366210938 -79.58399963378906,-87.33899688720703 -98.30899810791016,-50.345001220703125 C-106.05799865722656,-35.03499984741211 -110.5,-17.834999084472656 -110.5,0.5 C-110.5,18.834999084472656 -106.01399993896484,36.013999938964844 -98.30899810791016,51.34600067138672 C-79.69100189208984,88.39299774169922 -41.415000915527344,113.91000366210938 2.9089999198913574,113.91000366210938 C33.529998779296875,113.91000366210938 59.14799880981445,103.70899963378906 77.8550033569336,86.40799713134766 C99.21399688720703,66.65599822998047 111.5,37.547000885009766 111.5,3.052000045776367 C111.5,-4.414000034332275 110.83799743652344,-11.503000259399414 109.7040023803711,-18.402000427246094" fill-opacity="1"></path></clipPath><clipPath id="__lottie_element_6341"><path fill="#ffffff" clip-rule="nonzero" d=" M113.52300262451172,-90.30699920654297 C113.52300262451172,-90.30699920654297 91.30599975585938,-112.52300262451172 91.30599975585938,-112.52300262451172 C91.30599975585938,-112.52300262451172 0.5,-21.715999603271484 0.5,-21.715999603271484 C0.5,-21.715999603271484 -90.30699920654297,-112.52300262451172 -90.30699920654297,-112.52300262451172 C-90.30699920654297,-112.52300262451172 -112.52300262451172,-90.30699920654297 -112.52300262451172,-90.30699920654297 C-112.52300262451172,-90.30699920654297 -21.715999603271484,0.5 -21.715999603271484,0.5 C-21.715999603271484,0.5 -112.52300262451172,91.30699920654297 -112.52300262451172,91.30699920654297 C-112.52300262451172,91.30699920654297 -90.30699920654297,113.52300262451172 -90.30699920654297,113.52300262451172 C-90.30699920654297,113.52300262451172 0.5,22.715999603271484 0.5,22.715999603271484 C0.5,22.715999603271484 91.30599975585938,113.52300262451172 91.30599975585938,113.52300262451172 C91.30599975585938,113.52300262451172 113.52300262451172,91.30699920654297 113.52300262451172,91.30699920654297 C113.52300262451172,91.30699920654297 22.715999603271484,0.5 22.715999603271484,0.5 C22.715999603271484,0.5 113.52300262451172,-90.30699920654297 113.52300262451172,-90.30699920654297" fill-opacity="1"></path></clipPath><clipPath id="__lottie_element_6347"><path d="M0,0 L250,0 L250,250 L0,250z"></path></clipPath><clipPath id="__lottie_element_6351"><path d="M0,0 L250,0 L250,250 L0,250z"></path></clipPath><clipPath id="__lottie_element_6355"><path d="M0,0 L250,0 L250,250 L0,250z"></path></clipPath><clipPath id="__lottie_element_6359"><path d="M0,0 L250,0 L250,250 L0,250z"></path></clipPath><clipPath id="__lottie_element_6363"><path d="M0,0 L250,0 L250,250 L0,250z"></path></clipPath><clipPath id="__lottie_element_6367"><path d="M0,0 L250,0 L250,250 L0,250z"></path></clipPath><clipPath id="__lottie_element_6371"><path d="M0,0 L250,0 L250,250 L0,250z"></path></clipPath><clipPath id="__lottie_element_6375"><path d="M0,0 L250,0 L250,250 L0,250z"></path></clipPath><clipPath id="__lottie_element_6379"><path d="M0,0 L250,0 L250,250 L0,250z"></path></clipPath><clipPath id="__lottie_element_6383"><path d="M0,0 L250,0 L250,250 L0,250z"></path></clipPath><clipPath id="__lottie_element_6387"><path d="M0,0 L250,0 L250,250 L0,250z"></path></clipPath><clipPath id="__lottie_element_6391"><path d="M0,0 L250,0 L250,250 L0,250z"></path></clipPath><clipPath id="__lottie_element_6395"><path d="M0,0 L250,0 L250,250 L0,250z"></path></clipPath><clipPath id="__lottie_element_6399"><path d="M0,0 L250,0 L250,250 L0,250z"></path></clipPath><clipPath id="__lottie_element_6403"><path d="M0,0 L250,0 L250,250 L0,250z"></path></clipPath><clipPath id="__lottie_element_6407"><path d="M0,0 L250,0 L250,250 L0,250z"></path></clipPath></defs><g clip-path="url(#__lottie_element_6332)"><g clip-path="url(#__lottie_element_6334)" transform="matrix(1,0,0,1,0,0)" opacity="1" style="display: block;"><g clip-path="url(#__lottie_element_6335)"><g transform="matrix(1,0,0,1,0,0)" opacity="1" style="display: block;"><rect width="500" height="500" fill="#f9f5f4"></rect></g><g clip-path="url(#__lottie_element_6347)" transform="matrix(0.5,0,0,0.5,125,0)" opacity="1" style="display: block;"><g transform="matrix(1,0,0,1,75,-93.75)" opacity="1" style="display: block;"><g opacity="1" transform="matrix(1,0,0,1,0,250.60000610351562)"><g opacity="1" transform="matrix(1,0,0,1,0,0)"><path stroke-linecap="square" stroke-linejoin="miter" fill-opacity="0" stroke-miterlimit="4" stroke="rgb(70,155,154)" stroke-opacity="1" stroke-width="12" d=" M-125,118.5 C-125,118.5 -100,93.5 -100,93.5 C-100,93.5 -75,119 -75,119 C-75,119 -50,93.5 -50,93.5 C-50,93.5 -25,118.5 -25,118.5 C-25,118.5 0,93.5 0,93.5 C0,93.5 25,118.5 25,118.5 C25,118.5 50,93.5 50,93.5 C50,93.5 75,118.5 75,118.5 C75,118.5 100,93.5 100,93.5 C100,93.5 125,118.5 125,118.5 C125,118.5 150,93.75 150,93.75 C150,93.75 175,118.75 175,118.75"></path></g></g><g opacity="1" transform="matrix(1,0,0,1,0,214.8000030517578)"><g opacity="1" transform="matrix(1,0,0,1,0,0)"><path stroke-linecap="square" stroke-linejoin="miter" fill-opacity="0" stroke-miterlimit="4" stroke="rgb(70,155,154)" stroke-opacity="1" stroke-width="12" d=" M-125,118.5 C-125,118.5 -100,93.5 -100,93.5 C-100,93.5 -75,119 -75,119 C-75,119 -50,93.5 -50,93.5 C-50,93.5 -25,118.5 -25,118.5 C-25,118.5 0,93.5 0,93.5 C0,93.5 25,118.5 25,118.5 C25,118.5 50,93.5 50,93.5 C50,93.5 75,118.5 75,118.5 C75,118.5 100,93.5 100,93.5 C100,93.5 125,118.5 125,118.5 C125,118.5 150,93.75 150,93.75 C150,93.75 175,118.75 175,118.75"></path></g></g><g opacity="1" transform="matrix(1,0,0,1,0,179)"><g opacity="1" transform="matrix(1,0,0,1,0,0)"><path stroke-linecap="square" stroke-linejoin="miter" fill-opacity="0" stroke-miterlimit="4" stroke="rgb(70,155,154)" stroke-opacity="1" stroke-width="12" d=" M-125,118.5 C-125,118.5 -100,93.5 -100,93.5 C-100,93.5 -75,119 -75,119 C-75,119 -50,93.5 -50,93.5 C-50,93.5 -25,118.5 -25,118.5 C-25,118.5 0,93.5 0,93.5 C0,93.5 25,118.5 25,118.5 C25,118.5 50,93.5 50,93.5 C50,93.5 75,118.5 75,118.5 C75,118.5 100,93.5 100,93.5 C100,93.5 125,118.5 125,118.5 C125,118.5 150,93.75 150,93.75 C150,93.75 175,118.75 175,118.75"></path></g></g><g opacity="1" transform="matrix(1,0,0,1,0,143.1999969482422)"><g opacity="1" transform="matrix(1,0,0,1,0,0)"><path stroke-linecap="square" stroke-linejoin="miter" fill-opacity="0" stroke-miterlimit="4" stroke="rgb(70,155,154)" stroke-opacity="1" stroke-width="12" d=" M-125,118.5 C-125,118.5 -100,93.5 -100,93.5 C-100,93.5 -75,119 -75,119 C-75,119 -50,93.5 -50,93.5 C-50,93.5 -25,118.5 -25,118.5 C-25,118.5 0,93.5 0,93.5 C0,93.5 25,118.5 25,118.5 C25,118.5 50,93.5 50,93.5 C50,93.5 75,118.5 75,118.5 C75,118.5 100,93.5 100,93.5 C100,93.5 125,118.5 125,118.5 C125,118.5 150,93.75 150,93.75 C150,93.75 175,118.75 175,118.75"></path></g></g><g opacity="1" transform="matrix(1,0,0,1,0,107.39999389648438)"><g opacity="1" transform="matrix(1,0,0,1,0,0)"><path stroke-linecap="square" stroke-linejoin="miter" fill-opacity="0" stroke-miterlimit="4" stroke="rgb(70,155,154)" stroke-opacity="1" stroke-width="12" d=" M-125,118.5 C-125,118.5 -100,93.5 -100,93.5 C-100,93.5 -75,119 -75,119 C-75,119 -50,93.5 -50,93.5 C-50,93.5 -25,118.5 -25,118.5 C-25,118.5 0,93.5 0,93.5 C0,93.5 25,118.5 25,118.5 C25,118.5 50,93.5 50,93.5 C50,93.5 75,118.5 75,118.5 C75,118.5 100,93.5 100,93.5 C100,93.5 125,118.5 125,118.5 C125,118.5 150,93.75 150,93.75 C150,93.75 175,118.75 175,118.75"></path></g></g><g opacity="1" transform="matrix(1,0,0,1,0,71.5999984741211)"><g opacity="1" transform="matrix(1,0,0,1,0,0)"><path stroke-linecap="square" stroke-linejoin="miter" fill-opacity="0" stroke-miterlimit="4" stroke="rgb(70,155,154)" stroke-opacity="1" stroke-width="12" d=" M-125,118.5 C-125,118.5 -100,93.5 -100,93.5 C-100,93.5 -75,119 -75,119 C-75,119 -50,93.5 -50,93.5 C-50,93.5 -25,118.5 -25,118.5 C-25,118.5 0,93.5 0,93.5 C0,93.5 25,118.5 25,118.5 C25,118.5 50,93.5 50,93.5 C50,93.5 75,118.5 75,118.5 C75,118.5 100,93.5 100,93.5 C100,93.5 125,118.5 125,118.5 C125,118.5 150,93.75 150,93.75 C150,93.75 175,118.75 175,118.75"></path></g></g><g opacity="1" transform="matrix(1,0,0,1,0,35.79999923706055)"><g opacity="1" transform="matrix(1,0,0,1,0,0)"><path stroke-linecap="square" stroke-linejoin="miter" fill-opacity="0" stroke-miterlimit="4" stroke="rgb(70,155,154)" stroke-opacity="1" stroke-width="12" d=" M-125,118.5 C-125,118.5 -100,93.5 -100,93.5 C-100,93.5 -75,119 -75,119 C-75,119 -50,93.5 -50,93.5 C-50,93.5 -25,118.5 -25,118.5 C-25,118.5 0,93.5 0,93.5 C0,93.5 25,118.5 25,118.5 C25,118.5 50,93.5 50,93.5 C50,93.5 75,118.5 75,118.5 C75,118.5 100,93.5 100,93.5 C100,93.5 125,118.5 125,118.5 C125,118.5 150,93.75 150,93.75 C150,93.75 175,118.75 175,118.75"></path></g></g><g opacity="1" transform="matrix(1,0,0,1,0,0)"><g opacity="1" transform="matrix(1,0,0,1,0,0)"><path stroke-linecap="square" stroke-linejoin="miter" fill-opacity="0" stroke-miterlimit="4" stroke="rgb(70,155,154)" stroke-opacity="1" stroke-width="12" d=" M-125,118.5 C-125,118.5 -100,93.5 -100,93.5 C-100,93.5 -75,119 -75,119 C-75,119 -50,93.5 -50,93.5 C-50,93.5 -25,118.5 -25,118.5 C-25,118.5 0,93.5 0,93.5 C0,93.5 25,118.5 25,118.5 C25,118.5 50,93.5 50,93.5 C50,93.5 75,118.5 75,118.5 C75,118.5 100,93.5 100,93.5 C100,93.5 125,118.5 125,118.5 C125,118.5 150,93.75 150,93.75 C150,93.75 175,118.75 175,118.75"></path></g></g></g></g><g clip-path="url(#__lottie_element_6351)" transform="matrix(0.5,0,0,0.5,0,0)" opacity="1" style="display: block;"><g transform="matrix(1,0,0,1,75,-93.75)" opacity="1" style="display: block;"><g opacity="1" transform="matrix(1,0,0,1,0,250.60000610351562)"><g opacity="1" transform="matrix(1,0,0,1,0,0)"><path stroke-linecap="square" stroke-linejoin="miter" fill-opacity="0" stroke-miterlimit="4" stroke="rgb(70,155,154)" stroke-opacity="1" stroke-width="12" d=" M-125,118.5 C-125,118.5 -100,93.5 -100,93.5 C-100,93.5 -75,119 -75,119 C-75,119 -50,93.5 -50,93.5 C-50,93.5 -25,118.5 -25,118.5 C-25,118.5 0,93.5 0,93.5 C0,93.5 25,118.5 25,118.5 C25,118.5 50,93.5 50,93.5 C50,93.5 75,118.5 75,118.5 C75,118.5 100,93.5 100,93.5 C100,93.5 125,118.5 125,118.5 C125,118.5 150,93.75 150,93.75 C150,93.75 175,118.75 175,118.75"></path></g></g><g opacity="1" transform="matrix(1,0,0,1,0,214.8000030517578)"><g opacity="1" transform="matrix(1,0,0,1,0,0)"><path stroke-linecap="square" stroke-linejoin="miter" fill-opacity="0" stroke-miterlimit="4" stroke="rgb(70,155,154)" stroke-opacity="1" stroke-width="12" d=" M-125,118.5 C-125,118.5 -100,93.5 -100,93.5 C-100,93.5 -75,119 -75,119 C-75,119 -50,93.5 -50,93.5 C-50,93.5 -25,118.5 -25,118.5 C-25,118.5 0,93.5 0,93.5 C0,93.5 25,118.5 25,118.5 C25,118.5 50,93.5 50,93.5 C50,93.5 75,118.5 75,118.5 C75,118.5 100,93.5 100,93.5 C100,93.5 125,118.5 125,118.5 C125,118.5 150,93.75 150,93.75 C150,93.75 175,118.75 175,118.75"></path></g></g><g opacity="1" transform="matrix(1,0,0,1,0,179)"><g opacity="1" transform="matrix(1,0,0,1,0,0)"><path stroke-linecap="square" stroke-linejoin="miter" fill-opacity="0" stroke-miterlimit="4" stroke="rgb(70,155,154)" stroke-opacity="1" stroke-width="12" d=" M-125,118.5 C-125,118.5 -100,93.5 -100,93.5 C-100,93.5 -75,119 -75,119 C-75,119 -50,93.5 -50,93.5 C-50,93.5 -25,118.5 -25,118.5 C-25,118.5 0,93.5 0,93.5 C0,93.5 25,118.5 25,118.5 C25,118.5 50,93.5 50,93.5 C50,93.5 75,118.5 75,118.5 C75,118.5 100,93.5 100,93.5 C100,93.5 125,118.5 125,118.5 C125,118.5 150,93.75 150,93.75 C150,93.75 175,118.75 175,118.75"></path></g></g><g opacity="1" transform="matrix(1,0,0,1,0,143.1999969482422)"><g opacity="1" transform="matrix(1,0,0,1,0,0)"><path stroke-linecap="square" stroke-linejoin="miter" fill-opacity="0" stroke-miterlimit="4" stroke="rgb(70,155,154)" stroke-opacity="1" stroke-width="12" d=" M-125,118.5 C-125,118.5 -100,93.5 -100,93.5 C-100,93.5 -75,119 -75,119 C-75,119 -50,93.5 -50,93.5 C-50,93.5 -25,118.5 -25,118.5 C-25,118.5 0,93.5 0,93.5 C0,93.5 25,118.5 25,118.5 C25,118.5 50,93.5 50,93.5 C50,93.5 75,118.5 75,118.5 C75,118.5 100,93.5 100,93.5 C100,93.5 125,118.5 125,118.5 C125,118.5 150,93.75 150,93.75 C150,93.75 175,118.75 175,118.75"></path></g></g><g opacity="1" transform="matrix(1,0,0,1,0,107.39999389648438)"><g opacity="1" transform="matrix(1,0,0,1,0,0)"><path stroke-linecap="square" stroke-linejoin="miter" fill-opacity="0" stroke-miterlimit="4" stroke="rgb(70,155,154)" stroke-opacity="1" stroke-width="12" d=" M-125,118.5 C-125,118.5 -100,93.5 -100,93.5 C-100,93.5 -75,119 -75,119 C-75,119 -50,93.5 -50,93.5 C-50,93.5 -25,118.5 -25,118.5 C-25,118.5 0,93.5 0,93.5 C0,93.5 25,118.5 25,118.5 C25,118.5 50,93.5 50,93.5 C50,93.5 75,118.5 75,118.5 C75,118.5 100,93.5 100,93.5 C100,93.5 125,118.5 125,118.5 C125,118.5 150,93.75 150,93.75 C150,93.75 175,118.75 175,118.75"></path></g></g><g opacity="1" transform="matrix(1,0,0,1,0,71.5999984741211)"><g opacity="1" transform="matrix(1,0,0,1,0,0)"><path stroke-linecap="square" stroke-linejoin="miter" fill-opacity="0" stroke-miterlimit="4" stroke="rgb(70,155,154)" stroke-opacity="1" stroke-width="12" d=" M-125,118.5 C-125,118.5 -100,93.5 -100,93.5 C-100,93.5 -75,119 -75,119 C-75,119 -50,93.5 -50,93.5 C-50,93.5 -25,118.5 -25,118.5 C-25,118.5 0,93.5 0,93.5 C0,93.5 25,118.5 25,118.5 C25,118.5 50,93.5 50,93.5 C50,93.5 75,118.5 75,118.5 C75,118.5 100,93.5 100,93.5 C100,93.5 125,118.5 125,118.5 C125,118.5 150,93.75 150,93.75 C150,93.75 175,118.75 175,118.75"></path></g></g><g opacity="1" transform="matrix(1,0,0,1,0,35.79999923706055)"><g opacity="1" transform="matrix(1,0,0,1,0,0)"><path stroke-linecap="square" stroke-linejoin="miter" fill-opacity="0" stroke-miterlimit="4" stroke="rgb(70,155,154)" stroke-opacity="1" stroke-width="12" d=" M-125,118.5 C-125,118.5 -100,93.5 -100,93.5 C-100,93.5 -75,119 -75,119 C-75,119 -50,93.5 -50,93.5 C-50,93.5 -25,118.5 -25,118.5 C-25,118.5 0,93.5 0,93.5 C0,93.5 25,118.5 25,118.5 C25,118.5 50,93.5 50,93.5 C50,93.5 75,118.5 75,118.5 C75,118.5 100,93.5 100,93.5 C100,93.5 125,118.5 125,118.5 C125,118.5 150,93.75 150,93.75 C150,93.75 175,118.75 175,118.75"></path></g></g><g opacity="1" transform="matrix(1,0,0,1,0,0)"><g opacity="1" transform="matrix(1,0,0,1,0,0)"><path stroke-linecap="square" stroke-linejoin="miter" fill-opacity="0" stroke-miterlimit="4" stroke="rgb(70,155,154)" stroke-opacity="1" stroke-width="12" d=" M-125,118.5 C-125,118.5 -100,93.5 -100,93.5 C-100,93.5 -75,119 -75,119 C-75,119 -50,93.5 -50,93.5 C-50,93.5 -25,118.5 -25,118.5 C-25,118.5 0,93.5 0,93.5 C0,93.5 25,118.5 25,118.5 C25,118.5 50,93.5 50,93.5 C50,93.5 75,118.5 75,118.5 C75,118.5 100,93.5 100,93.5 C100,93.5 125,118.5 125,118.5 C125,118.5 150,93.75 150,93.75 C150,93.75 175,118.75 175,118.75"></path></g></g></g></g><g clip-path="url(#__lottie_element_6355)" transform="matrix(0.5,0,0,0.5,0,125)" opacity="1" style="display: block;"><g transform="matrix(1,0,0,1,75,-93.75)" opacity="1" style="display: block;"><g opacity="1" transform="matrix(1,0,0,1,0,250.60000610351562)"><g opacity="1" transform="matrix(1,0,0,1,0,0)"><path stroke-linecap="square" stroke-linejoin="miter" fill-opacity="0" stroke-miterlimit="4" stroke="rgb(70,155,154)" stroke-opacity="1" stroke-width="12" d=" M-125,118.5 C-125,118.5 -100,93.5 -100,93.5 C-100,93.5 -75,119 -75,119 C-75,119 -50,93.5 -50,93.5 C-50,93.5 -25,118.5 -25,118.5 C-25,118.5 0,93.5 0,93.5 C0,93.5 25,118.5 25,118.5 C25,118.5 50,93.5 50,93.5 C50,93.5 75,118.5 75,118.5 C75,118.5 100,93.5 100,93.5 C100,93.5 125,118.5 125,118.5 C125,118.5 150,93.75 150,93.75 C150,93.75 175,118.75 175,118.75"></path></g></g><g opacity="1" transform="matrix(1,0,0,1,0,214.8000030517578)"><g opacity="1" transform="matrix(1,0,0,1,0,0)"><path stroke-linecap="square" stroke-linejoin="miter" fill-opacity="0" stroke-miterlimit="4" stroke="rgb(70,155,154)" stroke-opacity="1" stroke-width="12" d=" M-125,118.5 C-125,118.5 -100,93.5 -100,93.5 C-100,93.5 -75,119 -75,119 C-75,119 -50,93.5 -50,93.5 C-50,93.5 -25,118.5 -25,118.5 C-25,118.5 0,93.5 0,93.5 C0,93.5 25,118.5 25,118.5 C25,118.5 50,93.5 50,93.5 C50,93.5 75,118.5 75,118.5 C75,118.5 100,93.5 100,93.5 C100,93.5 125,118.5 125,118.5 C125,118.5 150,93.75 150,93.75 C150,93.75 175,118.75 175,118.75"></path></g></g><g opacity="1" transform="matrix(1,0,0,1,0,179)"><g opacity="1" transform="matrix(1,0,0,1,0,0)"><path stroke-linecap="square" stroke-linejoin="miter" fill-opacity="0" stroke-miterlimit="4" stroke="rgb(70,155,154)" stroke-opacity="1" stroke-width="12" d=" M-125,118.5 C-125,118.5 -100,93.5 -100,93.5 C-100,93.5 -75,119 -75,119 C-75,119 -50,93.5 -50,93.5 C-50,93.5 -25,118.5 -25,118.5 C-25,118.5 0,93.5 0,93.5 C0,93.5 25,118.5 25,118.5 C25,118.5 50,93.5 50,93.5 C50,93.5 75,118.5 75,118.5 C75,118.5 100,93.5 100,93.5 C100,93.5 125,118.5 125,118.5 C125,118.5 150,93.75 150,93.75 C150,93.75 175,118.75 175,118.75"></path></g></g><g opacity="1" transform="matrix(1,0,0,1,0,143.1999969482422)"><g opacity="1" transform="matrix(1,0,0,1,0,0)"><path stroke-linecap="square" stroke-linejoin="miter" fill-opacity="0" stroke-miterlimit="4" stroke="rgb(70,155,154)" stroke-opacity="1" stroke-width="12" d=" M-125,118.5 C-125,118.5 -100,93.5 -100,93.5 C-100,93.5 -75,119 -75,119 C-75,119 -50,93.5 -50,93.5 C-50,93.5 -25,118.5 -25,118.5 C-25,118.5 0,93.5 0,93.5 C0,93.5 25,118.5 25,118.5 C25,118.5 50,93.5 50,93.5 C50,93.5 75,118.5 75,118.5 C75,118.5 100,93.5 100,93.5 C100,93.5 125,118.5 125,118.5 C125,118.5 150,93.75 150,93.75 C150,93.75 175,118.75 175,118.75"></path></g></g><g opacity="1" transform="matrix(1,0,0,1,0,107.39999389648438)"><g opacity="1" transform="matrix(1,0,0,1,0,0)"><path stroke-linecap="square" stroke-linejoin="miter" fill-opacity="0" stroke-miterlimit="4" stroke="rgb(70,155,154)" stroke-opacity="1" stroke-width="12" d=" M-125,118.5 C-125,118.5 -100,93.5 -100,93.5 C-100,93.5 -75,119 -75,119 C-75,119 -50,93.5 -50,93.5 C-50,93.5 -25,118.5 -25,118.5 C-25,118.5 0,93.5 0,93.5 C0,93.5 25,118.5 25,118.5 C25,118.5 50,93.5 50,93.5 C50,93.5 75,118.5 75,118.5 C75,118.5 100,93.5 100,93.5 C100,93.5 125,118.5 125,118.5 C125,118.5 150,93.75 150,93.75 C150,93.75 175,118.75 175,118.75"></path></g></g><g opacity="1" transform="matrix(1,0,0,1,0,71.5999984741211)"><g opacity="1" transform="matrix(1,0,0,1,0,0)"><path stroke-linecap="square" stroke-linejoin="miter" fill-opacity="0" stroke-miterlimit="4" stroke="rgb(70,155,154)" stroke-opacity="1" stroke-width="12" d=" M-125,118.5 C-125,118.5 -100,93.5 -100,93.5 C-100,93.5 -75,119 -75,119 C-75,119 -50,93.5 -50,93.5 C-50,93.5 -25,118.5 -25,118.5 C-25,118.5 0,93.5 0,93.5 C0,93.5 25,118.5 25,118.5 C25,118.5 50,93.5 50,93.5 C50,93.5 75,118.5 75,118.5 C75,118.5 100,93.5 100,93.5 C100,93.5 125,118.5 125,118.5 C125,118.5 150,93.75 150,93.75 C150,93.75 175,118.75 175,118.75"></path></g></g><g opacity="1" transform="matrix(1,0,0,1,0,35.79999923706055)"><g opacity="1" transform="matrix(1,0,0,1,0,0)"><path stroke-linecap="square" stroke-linejoin="miter" fill-opacity="0" stroke-miterlimit="4" stroke="rgb(70,155,154)" stroke-opacity="1" stroke-width="12" d=" M-125,118.5 C-125,118.5 -100,93.5 -100,93.5 C-100,93.5 -75,119 -75,119 C-75,119 -50,93.5 -50,93.5 C-50,93.5 -25,118.5 -25,118.5 C-25,118.5 0,93.5 0,93.5 C0,93.5 25,118.5 25,118.5 C25,118.5 50,93.5 50,93.5 C50,93.5 75,118.5 75,118.5 C75,118.5 100,93.5 100,93.5 C100,93.5 125,118.5 125,118.5 C125,118.5 150,93.75 150,93.75 C150,93.75 175,118.75 175,118.75"></path></g></g><g opacity="1" transform="matrix(1,0,0,1,0,0)"><g opacity="1" transform="matrix(1,0,0,1,0,0)"><path stroke-linecap="square" stroke-linejoin="miter" fill-opacity="0" stroke-miterlimit="4" stroke="rgb(70,155,154)" stroke-opacity="1" stroke-width="12" d=" M-125,118.5 C-125,118.5 -100,93.5 -100,93.5 C-100,93.5 -75,119 -75,119 C-75,119 -50,93.5 -50,93.5 C-50,93.5 -25,118.5 -25,118.5 C-25,118.5 0,93.5 0,93.5 C0,93.5 25,118.5 25,118.5 C25,118.5 50,93.5 50,93.5 C50,93.5 75,118.5 75,118.5 C75,118.5 100,93.5 100,93.5 C100,93.5 125,118.5 125,118.5 C125,118.5 150,93.75 150,93.75 C150,93.75 175,118.75 175,118.75"></path></g></g></g></g><g clip-path="url(#__lottie_element_6359)" transform="matrix(0.5,0,0,0.5,125,125)" opacity="1" style="display: block;"><g transform="matrix(1,0,0,1,75,-93.75)" opacity="1" style="display: block;"><g opacity="1" transform="matrix(1,0,0,1,0,250.60000610351562)"><g opacity="1" transform="matrix(1,0,0,1,0,0)"><path stroke-linecap="square" stroke-linejoin="miter" fill-opacity="0" stroke-miterlimit="4" stroke="rgb(70,155,154)" stroke-opacity="1" stroke-width="12" d=" M-125,118.5 C-125,118.5 -100,93.5 -100,93.5 C-100,93.5 -75,119 -75,119 C-75,119 -50,93.5 -50,93.5 C-50,93.5 -25,118.5 -25,118.5 C-25,118.5 0,93.5 0,93.5 C0,93.5 25,118.5 25,118.5 C25,118.5 50,93.5 50,93.5 C50,93.5 75,118.5 75,118.5 C75,118.5 100,93.5 100,93.5 C100,93.5 125,118.5 125,118.5 C125,118.5 150,93.75 150,93.75 C150,93.75 175,118.75 175,118.75"></path></g></g><g opacity="1" transform="matrix(1,0,0,1,0,214.8000030517578)"><g opacity="1" transform="matrix(1,0,0,1,0,0)"><path stroke-linecap="square" stroke-linejoin="miter" fill-opacity="0" stroke-miterlimit="4" stroke="rgb(70,155,154)" stroke-opacity="1" stroke-width="12" d=" M-125,118.5 C-125,118.5 -100,93.5 -100,93.5 C-100,93.5 -75,119 -75,119 C-75,119 -50,93.5 -50,93.5 C-50,93.5 -25,118.5 -25,118.5 C-25,118.5 0,93.5 0,93.5 C0,93.5 25,118.5 25,118.5 C25,118.5 50,93.5 50,93.5 C50,93.5 75,118.5 75,118.5 C75,118.5 100,93.5 100,93.5 C100,93.5 125,118.5 125,118.5 C125,118.5 150,93.75 150,93.75 C150,93.75 175,118.75 175,118.75"></path></g></g><g opacity="1" transform="matrix(1,0,0,1,0,179)"><g opacity="1" transform="matrix(1,0,0,1,0,0)"><path stroke-linecap="square" stroke-linejoin="miter" fill-opacity="0" stroke-miterlimit="4" stroke="rgb(70,155,154)" stroke-opacity="1" stroke-width="12" d=" M-125,118.5 C-125,118.5 -100,93.5 -100,93.5 C-100,93.5 -75,119 -75,119 C-75,119 -50,93.5 -50,93.5 C-50,93.5 -25,118.5 -25,118.5 C-25,118.5 0,93.5 0,93.5 C0,93.5 25,118.5 25,118.5 C25,118.5 50,93.5 50,93.5 C50,93.5 75,118.5 75,118.5 C75,118.5 100,93.5 100,93.5 C100,93.5 125,118.5 125,118.5 C125,118.5 150,93.75 150,93.75 C150,93.75 175,118.75 175,118.75"></path></g></g><g opacity="1" transform="matrix(1,0,0,1,0,143.1999969482422)"><g opacity="1" transform="matrix(1,0,0,1,0,0)"><path stroke-linecap="square" stroke-linejoin="miter" fill-opacity="0" stroke-miterlimit="4" stroke="rgb(70,155,154)" stroke-opacity="1" stroke-width="12" d=" M-125,118.5 C-125,118.5 -100,93.5 -100,93.5 C-100,93.5 -75,119 -75,119 C-75,119 -50,93.5 -50,93.5 C-50,93.5 -25,118.5 -25,118.5 C-25,118.5 0,93.5 0,93.5 C0,93.5 25,118.5 25,118.5 C25,118.5 50,93.5 50,93.5 C50,93.5 75,118.5 75,118.5 C75,118.5 100,93.5 100,93.5 C100,93.5 125,118.5 125,118.5 C125,118.5 150,93.75 150,93.75 C150,93.75 175,118.75 175,118.75"></path></g></g><g opacity="1" transform="matrix(1,0,0,1,0,107.39999389648438)"><g opacity="1" transform="matrix(1,0,0,1,0,0)"><path stroke-linecap="square" stroke-linejoin="miter" fill-opacity="0" stroke-miterlimit="4" stroke="rgb(70,155,154)" stroke-opacity="1" stroke-width="12" d=" M-125,118.5 C-125,118.5 -100,93.5 -100,93.5 C-100,93.5 -75,119 -75,119 C-75,119 -50,93.5 -50,93.5 C-50,93.5 -25,118.5 -25,118.5 C-25,118.5 0,93.5 0,93.5 C0,93.5 25,118.5 25,118.5 C25,118.5 50,93.5 50,93.5 C50,93.5 75,118.5 75,118.5 C75,118.5 100,93.5 100,93.5 C100,93.5 125,118.5 125,118.5 C125,118.5 150,93.75 150,93.75 C150,93.75 175,118.75 175,118.75"></path></g></g><g opacity="1" transform="matrix(1,0,0,1,0,71.5999984741211)"><g opacity="1" transform="matrix(1,0,0,1,0,0)"><path stroke-linecap="square" stroke-linejoin="miter" fill-opacity="0" stroke-miterlimit="4" stroke="rgb(70,155,154)" stroke-opacity="1" stroke-width="12" d=" M-125,118.5 C-125,118.5 -100,93.5 -100,93.5 C-100,93.5 -75,119 -75,119 C-75,119 -50,93.5 -50,93.5 C-50,93.5 -25,118.5 -25,118.5 C-25,118.5 0,93.5 0,93.5 C0,93.5 25,118.5 25,118.5 C25,118.5 50,93.5 50,93.5 C50,93.5 75,118.5 75,118.5 C75,118.5 100,93.5 100,93.5 C100,93.5 125,118.5 125,118.5 C125,118.5 150,93.75 150,93.75 C150,93.75 175,118.75 175,118.75"></path></g></g><g opacity="1" transform="matrix(1,0,0,1,0,35.79999923706055)"><g opacity="1" transform="matrix(1,0,0,1,0,0)"><path stroke-linecap="square" stroke-linejoin="miter" fill-opacity="0" stroke-miterlimit="4" stroke="rgb(70,155,154)" stroke-opacity="1" stroke-width="12" d=" M-125,118.5 C-125,118.5 -100,93.5 -100,93.5 C-100,93.5 -75,119 -75,119 C-75,119 -50,93.5 -50,93.5 C-50,93.5 -25,118.5 -25,118.5 C-25,118.5 0,93.5 0,93.5 C0,93.5 25,118.5 25,118.5 C25,118.5 50,93.5 50,93.5 C50,93.5 75,118.5 75,118.5 C75,118.5 100,93.5 100,93.5 C100,93.5 125,118.5 125,118.5 C125,118.5 150,93.75 150,93.75 C150,93.75 175,118.75 175,118.75"></path></g></g><g opacity="1" transform="matrix(1,0,0,1,0,0)"><g opacity="1" transform="matrix(1,0,0,1,0,0)"><path stroke-linecap="square" stroke-linejoin="miter" fill-opacity="0" stroke-miterlimit="4" stroke="rgb(70,155,154)" stroke-opacity="1" stroke-width="12" d=" M-125,118.5 C-125,118.5 -100,93.5 -100,93.5 C-100,93.5 -75,119 -75,119 C-75,119 -50,93.5 -50,93.5 C-50,93.5 -25,118.5 -25,118.5 C-25,118.5 0,93.5 0,93.5 C0,93.5 25,118.5 25,118.5 C25,118.5 50,93.5 50,93.5 C50,93.5 75,118.5 75,118.5 C75,118.5 100,93.5 100,93.5 C100,93.5 125,118.5 125,118.5 C125,118.5 150,93.75 150,93.75 C150,93.75 175,118.75 175,118.75"></path></g></g></g></g><g clip-path="url(#__lottie_element_6363)" transform="matrix(0.5,0,0,0.5,375,0)" opacity="1" style="display: block;"><g transform="matrix(1,0,0,1,75,-93.75)" opacity="1" style="display: block;"><g opacity="1" transform="matrix(1,0,0,1,0,250.60000610351562)"><g opacity="1" transform="matrix(1,0,0,1,0,0)"><path stroke-linecap="square" stroke-linejoin="miter" fill-opacity="0" stroke-miterlimit="4" stroke="rgb(70,155,154)" stroke-opacity="1" stroke-width="12" d=" M-125,118.5 C-125,118.5 -100,93.5 -100,93.5 C-100,93.5 -75,119 -75,119 C-75,119 -50,93.5 -50,93.5 C-50,93.5 -25,118.5 -25,118.5 C-25,118.5 0,93.5 0,93.5 C0,93.5 25,118.5 25,118.5 C25,118.5 50,93.5 50,93.5 C50,93.5 75,118.5 75,118.5 C75,118.5 100,93.5 100,93.5 C100,93.5 125,118.5 125,118.5 C125,118.5 150,93.75 150,93.75 C150,93.75 175,118.75 175,118.75"></path></g></g><g opacity="1" transform="matrix(1,0,0,1,0,214.8000030517578)"><g opacity="1" transform="matrix(1,0,0,1,0,0)"><path stroke-linecap="square" stroke-linejoin="miter" fill-opacity="0" stroke-miterlimit="4" stroke="rgb(70,155,154)" stroke-opacity="1" stroke-width="12" d=" M-125,118.5 C-125,118.5 -100,93.5 -100,93.5 C-100,93.5 -75,119 -75,119 C-75,119 -50,93.5 -50,93.5 C-50,93.5 -25,118.5 -25,118.5 C-25,118.5 0,93.5 0,93.5 C0,93.5 25,118.5 25,118.5 C25,118.5 50,93.5 50,93.5 C50,93.5 75,118.5 75,118.5 C75,118.5 100,93.5 100,93.5 C100,93.5 125,118.5 125,118.5 C125,118.5 150,93.75 150,93.75 C150,93.75 175,118.75 175,118.75"></path></g></g><g opacity="1" transform="matrix(1,0,0,1,0,179)"><g opacity="1" transform="matrix(1,0,0,1,0,0)"><path stroke-linecap="square" stroke-linejoin="miter" fill-opacity="0" stroke-miterlimit="4" stroke="rgb(70,155,154)" stroke-opacity="1" stroke-width="12" d=" M-125,118.5 C-125,118.5 -100,93.5 -100,93.5 C-100,93.5 -75,119 -75,119 C-75,119 -50,93.5 -50,93.5 C-50,93.5 -25,118.5 -25,118.5 C-25,118.5 0,93.5 0,93.5 C0,93.5 25,118.5 25,118.5 C25,118.5 50,93.5 50,93.5 C50,93.5 75,118.5 75,118.5 C75,118.5 100,93.5 100,93.5 C100,93.5 125,118.5 125,118.5 C125,118.5 150,93.75 150,93.75 C150,93.75 175,118.75 175,118.75"></path></g></g><g opacity="1" transform="matrix(1,0,0,1,0,143.1999969482422)"><g opacity="1" transform="matrix(1,0,0,1,0,0)"><path stroke-linecap="square" stroke-linejoin="miter" fill-opacity="0" stroke-miterlimit="4" stroke="rgb(70,155,154)" stroke-opacity="1" stroke-width="12" d=" M-125,118.5 C-125,118.5 -100,93.5 -100,93.5 C-100,93.5 -75,119 -75,119 C-75,119 -50,93.5 -50,93.5 C-50,93.5 -25,118.5 -25,118.5 C-25,118.5 0,93.5 0,93.5 C0,93.5 25,118.5 25,118.5 C25,118.5 50,93.5 50,93.5 C50,93.5 75,118.5 75,118.5 C75,118.5 100,93.5 100,93.5 C100,93.5 125,118.5 125,118.5 C125,118.5 150,93.75 150,93.75 C150,93.75 175,118.75 175,118.75"></path></g></g><g opacity="1" transform="matrix(1,0,0,1,0,107.39999389648438)"><g opacity="1" transform="matrix(1,0,0,1,0,0)"><path stroke-linecap="square" stroke-linejoin="miter" fill-opacity="0" stroke-miterlimit="4" stroke="rgb(70,155,154)" stroke-opacity="1" stroke-width="12" d=" M-125,118.5 C-125,118.5 -100,93.5 -100,93.5 C-100,93.5 -75,119 -75,119 C-75,119 -50,93.5 -50,93.5 C-50,93.5 -25,118.5 -25,118.5 C-25,118.5 0,93.5 0,93.5 C0,93.5 25,118.5 25,118.5 C25,118.5 50,93.5 50,93.5 C50,93.5 75,118.5 75,118.5 C75,118.5 100,93.5 100,93.5 C100,93.5 125,118.5 125,118.5 C125,118.5 150,93.75 150,93.75 C150,93.75 175,118.75 175,118.75"></path></g></g><g opacity="1" transform="matrix(1,0,0,1,0,71.5999984741211)"><g opacity="1" transform="matrix(1,0,0,1,0,0)"><path stroke-linecap="square" stroke-linejoin="miter" fill-opacity="0" stroke-miterlimit="4" stroke="rgb(70,155,154)" stroke-opacity="1" stroke-width="12" d=" M-125,118.5 C-125,118.5 -100,93.5 -100,93.5 C-100,93.5 -75,119 -75,119 C-75,119 -50,93.5 -50,93.5 C-50,93.5 -25,118.5 -25,118.5 C-25,118.5 0,93.5 0,93.5 C0,93.5 25,118.5 25,118.5 C25,118.5 50,93.5 50,93.5 C50,93.5 75,118.5 75,118.5 C75,118.5 100,93.5 100,93.5 C100,93.5 125,118.5 125,118.5 C125,118.5 150,93.75 150,93.75 C150,93.75 175,118.75 175,118.75"></path></g></g><g opacity="1" transform="matrix(1,0,0,1,0,35.79999923706055)"><g opacity="1" transform="matrix(1,0,0,1,0,0)"><path stroke-linecap="square" stroke-linejoin="miter" fill-opacity="0" stroke-miterlimit="4" stroke="rgb(70,155,154)" stroke-opacity="1" stroke-width="12" d=" M-125,118.5 C-125,118.5 -100,93.5 -100,93.5 C-100,93.5 -75,119 -75,119 C-75,119 -50,93.5 -50,93.5 C-50,93.5 -25,118.5 -25,118.5 C-25,118.5 0,93.5 0,93.5 C0,93.5 25,118.5 25,118.5 C25,118.5 50,93.5 50,93.5 C50,93.5 75,118.5 75,118.5 C75,118.5 100,93.5 100,93.5 C100,93.5 125,118.5 125,118.5 C125,118.5 150,93.75 150,93.75 C150,93.75 175,118.75 175,118.75"></path></g></g><g opacity="1" transform="matrix(1,0,0,1,0,0)"><g opacity="1" transform="matrix(1,0,0,1,0,0)"><path stroke-linecap="square" stroke-linejoin="miter" fill-opacity="0" stroke-miterlimit="4" stroke="rgb(70,155,154)" stroke-opacity="1" stroke-width="12" d=" M-125,118.5 C-125,118.5 -100,93.5 -100,93.5 C-100,93.5 -75,119 -75,119 C-75,119 -50,93.5 -50,93.5 C-50,93.5 -25,118.5 -25,118.5 C-25,118.5 0,93.5 0,93.5 C0,93.5 25,118.5 25,118.5 C25,118.5 50,93.5 50,93.5 C50,93.5 75,118.5 75,118.5 C75,118.5 100,93.5 100,93.5 C100,93.5 125,118.5 125,118.5 C125,118.5 150,93.75 150,93.75 C150,93.75 175,118.75 175,118.75"></path></g></g></g></g><g clip-path="url(#__lottie_element_6367)" transform="matrix(0.5,0,0,0.5,250,0)" opacity="1" style="display: block;"><g transform="matrix(1,0,0,1,75,-93.75)" opacity="1" style="display: block;"><g opacity="1" transform="matrix(1,0,0,1,0,250.60000610351562)"><g opacity="1" transform="matrix(1,0,0,1,0,0)"><path stroke-linecap="square" stroke-linejoin="miter" fill-opacity="0" stroke-miterlimit="4" stroke="rgb(70,155,154)" stroke-opacity="1" stroke-width="12" d=" M-125,118.5 C-125,118.5 -100,93.5 -100,93.5 C-100,93.5 -75,119 -75,119 C-75,119 -50,93.5 -50,93.5 C-50,93.5 -25,118.5 -25,118.5 C-25,118.5 0,93.5 0,93.5 C0,93.5 25,118.5 25,118.5 C25,118.5 50,93.5 50,93.5 C50,93.5 75,118.5 75,118.5 C75,118.5 100,93.5 100,93.5 C100,93.5 125,118.5 125,118.5 C125,118.5 150,93.75 150,93.75 C150,93.75 175,118.75 175,118.75"></path></g></g><g opacity="1" transform="matrix(1,0,0,1,0,214.8000030517578)"><g opacity="1" transform="matrix(1,0,0,1,0,0)"><path stroke-linecap="square" stroke-linejoin="miter" fill-opacity="0" stroke-miterlimit="4" stroke="rgb(70,155,154)" stroke-opacity="1" stroke-width="12" d=" M-125,118.5 C-125,118.5 -100,93.5 -100,93.5 C-100,93.5 -75,119 -75,119 C-75,119 -50,93.5 -50,93.5 C-50,93.5 -25,118.5 -25,118.5 C-25,118.5 0,93.5 0,93.5 C0,93.5 25,118.5 25,118.5 C25,118.5 50,93.5 50,93.5 C50,93.5 75,118.5 75,118.5 C75,118.5 100,93.5 100,93.5 C100,93.5 125,118.5 125,118.5 C125,118.5 150,93.75 150,93.75 C150,93.75 175,118.75 175,118.75"></path></g></g><g opacity="1" transform="matrix(1,0,0,1,0,179)"><g opacity="1" transform="matrix(1,0,0,1,0,0)"><path stroke-linecap="square" stroke-linejoin="miter" fill-opacity="0" stroke-miterlimit="4" stroke="rgb(70,155,154)" stroke-opacity="1" stroke-width="12" d=" M-125,118.5 C-125,118.5 -100,93.5 -100,93.5 C-100,93.5 -75,119 -75,119 C-75,119 -50,93.5 -50,93.5 C-50,93.5 -25,118.5 -25,118.5 C-25,118.5 0,93.5 0,93.5 C0,93.5 25,118.5 25,118.5 C25,118.5 50,93.5 50,93.5 C50,93.5 75,118.5 75,118.5 C75,118.5 100,93.5 100,93.5 C100,93.5 125,118.5 125,118.5 C125,118.5 150,93.75 150,93.75 C150,93.75 175,118.75 175,118.75"></path></g></g><g opacity="1" transform="matrix(1,0,0,1,0,143.1999969482422)"><g opacity="1" transform="matrix(1,0,0,1,0,0)"><path stroke-linecap="square" stroke-linejoin="miter" fill-opacity="0" stroke-miterlimit="4" stroke="rgb(70,155,154)" stroke-opacity="1" stroke-width="12" d=" M-125,118.5 C-125,118.5 -100,93.5 -100,93.5 C-100,93.5 -75,119 -75,119 C-75,119 -50,93.5 -50,93.5 C-50,93.5 -25,118.5 -25,118.5 C-25,118.5 0,93.5 0,93.5 C0,93.5 25,118.5 25,118.5 C25,118.5 50,93.5 50,93.5 C50,93.5 75,118.5 75,118.5 C75,118.5 100,93.5 100,93.5 C100,93.5 125,118.5 125,118.5 C125,118.5 150,93.75 150,93.75 C150,93.75 175,118.75 175,118.75"></path></g></g><g opacity="1" transform="matrix(1,0,0,1,0,107.39999389648438)"><g opacity="1" transform="matrix(1,0,0,1,0,0)"><path stroke-linecap="square" stroke-linejoin="miter" fill-opacity="0" stroke-miterlimit="4" stroke="rgb(70,155,154)" stroke-opacity="1" stroke-width="12" d=" M-125,118.5 C-125,118.5 -100,93.5 -100,93.5 C-100,93.5 -75,119 -75,119 C-75,119 -50,93.5 -50,93.5 C-50,93.5 -25,118.5 -25,118.5 C-25,118.5 0,93.5 0,93.5 C0,93.5 25,118.5 25,118.5 C25,118.5 50,93.5 50,93.5 C50,93.5 75,118.5 75,118.5 C75,118.5 100,93.5 100,93.5 C100,93.5 125,118.5 125,118.5 C125,118.5 150,93.75 150,93.75 C150,93.75 175,118.75 175,118.75"></path></g></g><g opacity="1" transform="matrix(1,0,0,1,0,71.5999984741211)"><g opacity="1" transform="matrix(1,0,0,1,0,0)"><path stroke-linecap="square" stroke-linejoin="miter" fill-opacity="0" stroke-miterlimit="4" stroke="rgb(70,155,154)" stroke-opacity="1" stroke-width="12" d=" M-125,118.5 C-125,118.5 -100,93.5 -100,93.5 C-100,93.5 -75,119 -75,119 C-75,119 -50,93.5 -50,93.5 C-50,93.5 -25,118.5 -25,118.5 C-25,118.5 0,93.5 0,93.5 C0,93.5 25,118.5 25,118.5 C25,118.5 50,93.5 50,93.5 C50,93.5 75,118.5 75,118.5 C75,118.5 100,93.5 100,93.5 C100,93.5 125,118.5 125,118.5 C125,118.5 150,93.75 150,93.75 C150,93.75 175,118.75 175,118.75"></path></g></g><g opacity="1" transform="matrix(1,0,0,1,0,35.79999923706055)"><g opacity="1" transform="matrix(1,0,0,1,0,0)"><path stroke-linecap="square" stroke-linejoin="miter" fill-opacity="0" stroke-miterlimit="4" stroke="rgb(70,155,154)" stroke-opacity="1" stroke-width="12" d=" M-125,118.5 C-125,118.5 -100,93.5 -100,93.5 C-100,93.5 -75,119 -75,119 C-75,119 -50,93.5 -50,93.5 C-50,93.5 -25,118.5 -25,118.5 C-25,118.5 0,93.5 0,93.5 C0,93.5 25,118.5 25,118.5 C25,118.5 50,93.5 50,93.5 C50,93.5 75,118.5 75,118.5 C75,118.5 100,93.5 100,93.5 C100,93.5 125,118.5 125,118.5 C125,118.5 150,93.75 150,93.75 C150,93.75 175,118.75 175,118.75"></path></g></g><g opacity="1" transform="matrix(1,0,0,1,0,0)"><g opacity="1" transform="matrix(1,0,0,1,0,0)"><path stroke-linecap="square" stroke-linejoin="miter" fill-opacity="0" stroke-miterlimit="4" stroke="rgb(70,155,154)" stroke-opacity="1" stroke-width="12" d=" M-125,118.5 C-125,118.5 -100,93.5 -100,93.5 C-100,93.5 -75,119 -75,119 C-75,119 -50,93.5 -50,93.5 C-50,93.5 -25,118.5 -25,118.5 C-25,118.5 0,93.5 0,93.5 C0,93.5 25,118.5 25,118.5 C25,118.5 50,93.5 50,93.5 C50,93.5 75,118.5 75,118.5 C75,118.5 100,93.5 100,93.5 C100,93.5 125,118.5 125,118.5 C125,118.5 150,93.75 150,93.75 C150,93.75 175,118.75 175,118.75"></path></g></g></g></g><g clip-path="url(#__lottie_element_6371)" transform="matrix(0.5,0,0,0.5,250,125)" opacity="1" style="display: block;"><g transform="matrix(1,0,0,1,75,-93.75)" opacity="1" style="display: block;"><g opacity="1" transform="matrix(1,0,0,1,0,250.60000610351562)"><g opacity="1" transform="matrix(1,0,0,1,0,0)"><path stroke-linecap="square" stroke-linejoin="miter" fill-opacity="0" stroke-miterlimit="4" stroke="rgb(70,155,154)" stroke-opacity="1" stroke-width="12" d=" M-125,118.5 C-125,118.5 -100,93.5 -100,93.5 C-100,93.5 -75,119 -75,119 C-75,119 -50,93.5 -50,93.5 C-50,93.5 -25,118.5 -25,118.5 C-25,118.5 0,93.5 0,93.5 C0,93.5 25,118.5 25,118.5 C25,118.5 50,93.5 50,93.5 C50,93.5 75,118.5 75,118.5 C75,118.5 100,93.5 100,93.5 C100,93.5 125,118.5 125,118.5 C125,118.5 150,93.75 150,93.75 C150,93.75 175,118.75 175,118.75"></path></g></g><g opacity="1" transform="matrix(1,0,0,1,0,214.8000030517578)"><g opacity="1" transform="matrix(1,0,0,1,0,0)"><path stroke-linecap="square" stroke-linejoin="miter" fill-opacity="0" stroke-miterlimit="4" stroke="rgb(70,155,154)" stroke-opacity="1" stroke-width="12" d=" M-125,118.5 C-125,118.5 -100,93.5 -100,93.5 C-100,93.5 -75,119 -75,119 C-75,119 -50,93.5 -50,93.5 C-50,93.5 -25,118.5 -25,118.5 C-25,118.5 0,93.5 0,93.5 C0,93.5 25,118.5 25,118.5 C25,118.5 50,93.5 50,93.5 C50,93.5 75,118.5 75,118.5 C75,118.5 100,93.5 100,93.5 C100,93.5 125,118.5 125,118.5 C125,118.5 150,93.75 150,93.75 C150,93.75 175,118.75 175,118.75"></path></g></g><g opacity="1" transform="matrix(1,0,0,1,0,179)"><g opacity="1" transform="matrix(1,0,0,1,0,0)"><path stroke-linecap="square" stroke-linejoin="miter" fill-opacity="0" stroke-miterlimit="4" stroke="rgb(70,155,154)" stroke-opacity="1" stroke-width="12" d=" M-125,118.5 C-125,118.5 -100,93.5 -100,93.5 C-100,93.5 -75,119 -75,119 C-75,119 -50,93.5 -50,93.5 C-50,93.5 -25,118.5 -25,118.5 C-25,118.5 0,93.5 0,93.5 C0,93.5 25,118.5 25,118.5 C25,118.5 50,93.5 50,93.5 C50,93.5 75,118.5 75,118.5 C75,118.5 100,93.5 100,93.5 C100,93.5 125,118.5 125,118.5 C125,118.5 150,93.75 150,93.75 C150,93.75 175,118.75 175,118.75"></path></g></g><g opacity="1" transform="matrix(1,0,0,1,0,143.1999969482422)"><g opacity="1" transform="matrix(1,0,0,1,0,0)"><path stroke-linecap="square" stroke-linejoin="miter" fill-opacity="0" stroke-miterlimit="4" stroke="rgb(70,155,154)" stroke-opacity="1" stroke-width="12" d=" M-125,118.5 C-125,118.5 -100,93.5 -100,93.5 C-100,93.5 -75,119 -75,119 C-75,119 -50,93.5 -50,93.5 C-50,93.5 -25,118.5 -25,118.5 C-25,118.5 0,93.5 0,93.5 C0,93.5 25,118.5 25,118.5 C25,118.5 50,93.5 50,93.5 C50,93.5 75,118.5 75,118.5 C75,118.5 100,93.5 100,93.5 C100,93.5 125,118.5 125,118.5 C125,118.5 150,93.75 150,93.75 C150,93.75 175,118.75 175,118.75"></path></g></g><g opacity="1" transform="matrix(1,0,0,1,0,107.39999389648438)"><g opacity="1" transform="matrix(1,0,0,1,0,0)"><path stroke-linecap="square" stroke-linejoin="miter" fill-opacity="0" stroke-miterlimit="4" stroke="rgb(70,155,154)" stroke-opacity="1" stroke-width="12" d=" M-125,118.5 C-125,118.5 -100,93.5 -100,93.5 C-100,93.5 -75,119 -75,119 C-75,119 -50,93.5 -50,93.5 C-50,93.5 -25,118.5 -25,118.5 C-25,118.5 0,93.5 0,93.5 C0,93.5 25,118.5 25,118.5 C25,118.5 50,93.5 50,93.5 C50,93.5 75,118.5 75,118.5 C75,118.5 100,93.5 100,93.5 C100,93.5 125,118.5 125,118.5 C125,118.5 150,93.75 150,93.75 C150,93.75 175,118.75 175,118.75"></path></g></g><g opacity="1" transform="matrix(1,0,0,1,0,71.5999984741211)"><g opacity="1" transform="matrix(1,0,0,1,0,0)"><path stroke-linecap="square" stroke-linejoin="miter" fill-opacity="0" stroke-miterlimit="4" stroke="rgb(70,155,154)" stroke-opacity="1" stroke-width="12" d=" M-125,118.5 C-125,118.5 -100,93.5 -100,93.5 C-100,93.5 -75,119 -75,119 C-75,119 -50,93.5 -50,93.5 C-50,93.5 -25,118.5 -25,118.5 C-25,118.5 0,93.5 0,93.5 C0,93.5 25,118.5 25,118.5 C25,118.5 50,93.5 50,93.5 C50,93.5 75,118.5 75,118.5 C75,118.5 100,93.5 100,93.5 C100,93.5 125,118.5 125,118.5 C125,118.5 150,93.75 150,93.75 C150,93.75 175,118.75 175,118.75"></path></g></g><g opacity="1" transform="matrix(1,0,0,1,0,35.79999923706055)"><g opacity="1" transform="matrix(1,0,0,1,0,0)"><path stroke-linecap="square" stroke-linejoin="miter" fill-opacity="0" stroke-miterlimit="4" stroke="rgb(70,155,154)" stroke-opacity="1" stroke-width="12" d=" M-125,118.5 C-125,118.5 -100,93.5 -100,93.5 C-100,93.5 -75,119 -75,119 C-75,119 -50,93.5 -50,93.5 C-50,93.5 -25,118.5 -25,118.5 C-25,118.5 0,93.5 0,93.5 C0,93.5 25,118.5 25,118.5 C25,118.5 50,93.5 50,93.5 C50,93.5 75,118.5 75,118.5 C75,118.5 100,93.5 100,93.5 C100,93.5 125,118.5 125,118.5 C125,118.5 150,93.75 150,93.75 C150,93.75 175,118.75 175,118.75"></path></g></g><g opacity="1" transform="matrix(1,0,0,1,0,0)"><g opacity="1" transform="matrix(1,0,0,1,0,0)"><path stroke-linecap="square" stroke-linejoin="miter" fill-opacity="0" stroke-miterlimit="4" stroke="rgb(70,155,154)" stroke-opacity="1" stroke-width="12" d=" M-125,118.5 C-125,118.5 -100,93.5 -100,93.5 C-100,93.5 -75,119 -75,119 C-75,119 -50,93.5 -50,93.5 C-50,93.5 -25,118.5 -25,118.5 C-25,118.5 0,93.5 0,93.5 C0,93.5 25,118.5 25,118.5 C25,118.5 50,93.5 50,93.5 C50,93.5 75,118.5 75,118.5 C75,118.5 100,93.5 100,93.5 C100,93.5 125,118.5 125,118.5 C125,118.5 150,93.75 150,93.75 C150,93.75 175,118.75 175,118.75"></path></g></g></g></g><g clip-path="url(#__lottie_element_6375)" transform="matrix(0.5,0,0,0.5,375,125)" opacity="1" style="display: block;"><g transform="matrix(1,0,0,1,75,-93.75)" opacity="1" style="display: block;"><g opacity="1" transform="matrix(1,0,0,1,0,250.60000610351562)"><g opacity="1" transform="matrix(1,0,0,1,0,0)"><path stroke-linecap="square" stroke-linejoin="miter" fill-opacity="0" stroke-miterlimit="4" stroke="rgb(70,155,154)" stroke-opacity="1" stroke-width="12" d=" M-125,118.5 C-125,118.5 -100,93.5 -100,93.5 C-100,93.5 -75,119 -75,119 C-75,119 -50,93.5 -50,93.5 C-50,93.5 -25,118.5 -25,118.5 C-25,118.5 0,93.5 0,93.5 C0,93.5 25,118.5 25,118.5 C25,118.5 50,93.5 50,93.5 C50,93.5 75,118.5 75,118.5 C75,118.5 100,93.5 100,93.5 C100,93.5 125,118.5 125,118.5 C125,118.5 150,93.75 150,93.75 C150,93.75 175,118.75 175,118.75"></path></g></g><g opacity="1" transform="matrix(1,0,0,1,0,214.8000030517578)"><g opacity="1" transform="matrix(1,0,0,1,0,0)"><path stroke-linecap="square" stroke-linejoin="miter" fill-opacity="0" stroke-miterlimit="4" stroke="rgb(70,155,154)" stroke-opacity="1" stroke-width="12" d=" M-125,118.5 C-125,118.5 -100,93.5 -100,93.5 C-100,93.5 -75,119 -75,119 C-75,119 -50,93.5 -50,93.5 C-50,93.5 -25,118.5 -25,118.5 C-25,118.5 0,93.5 0,93.5 C0,93.5 25,118.5 25,118.5 C25,118.5 50,93.5 50,93.5 C50,93.5 75,118.5 75,118.5 C75,118.5 100,93.5 100,93.5 C100,93.5 125,118.5 125,118.5 C125,118.5 150,93.75 150,93.75 C150,93.75 175,118.75 175,118.75"></path></g></g><g opacity="1" transform="matrix(1,0,0,1,0,179)"><g opacity="1" transform="matrix(1,0,0,1,0,0)"><path stroke-linecap="square" stroke-linejoin="miter" fill-opacity="0" stroke-miterlimit="4" stroke="rgb(70,155,154)" stroke-opacity="1" stroke-width="12" d=" M-125,118.5 C-125,118.5 -100,93.5 -100,93.5 C-100,93.5 -75,119 -75,119 C-75,119 -50,93.5 -50,93.5 C-50,93.5 -25,118.5 -25,118.5 C-25,118.5 0,93.5 0,93.5 C0,93.5 25,118.5 25,118.5 C25,118.5 50,93.5 50,93.5 C50,93.5 75,118.5 75,118.5 C75,118.5 100,93.5 100,93.5 C100,93.5 125,118.5 125,118.5 C125,118.5 150,93.75 150,93.75 C150,93.75 175,118.75 175,118.75"></path></g></g><g opacity="1" transform="matrix(1,0,0,1,0,143.1999969482422)"><g opacity="1" transform="matrix(1,0,0,1,0,0)"><path stroke-linecap="square" stroke-linejoin="miter" fill-opacity="0" stroke-miterlimit="4" stroke="rgb(70,155,154)" stroke-opacity="1" stroke-width="12" d=" M-125,118.5 C-125,118.5 -100,93.5 -100,93.5 C-100,93.5 -75,119 -75,119 C-75,119 -50,93.5 -50,93.5 C-50,93.5 -25,118.5 -25,118.5 C-25,118.5 0,93.5 0,93.5 C0,93.5 25,118.5 25,118.5 C25,118.5 50,93.5 50,93.5 C50,93.5 75,118.5 75,118.5 C75,118.5 100,93.5 100,93.5 C100,93.5 125,118.5 125,118.5 C125,118.5 150,93.75 150,93.75 C150,93.75 175,118.75 175,118.75"></path></g></g><g opacity="1" transform="matrix(1,0,0,1,0,107.39999389648438)"><g opacity="1" transform="matrix(1,0,0,1,0,0)"><path stroke-linecap="square" stroke-linejoin="miter" fill-opacity="0" stroke-miterlimit="4" stroke="rgb(70,155,154)" stroke-opacity="1" stroke-width="12" d=" M-125,118.5 C-125,118.5 -100,93.5 -100,93.5 C-100,93.5 -75,119 -75,119 C-75,119 -50,93.5 -50,93.5 C-50,93.5 -25,118.5 -25,118.5 C-25,118.5 0,93.5 0,93.5 C0,93.5 25,118.5 25,118.5 C25,118.5 50,93.5 50,93.5 C50,93.5 75,118.5 75,118.5 C75,118.5 100,93.5 100,93.5 C100,93.5 125,118.5 125,118.5 C125,118.5 150,93.75 150,93.75 C150,93.75 175,118.75 175,118.75"></path></g></g><g opacity="1" transform="matrix(1,0,0,1,0,71.5999984741211)"><g opacity="1" transform="matrix(1,0,0,1,0,0)"><path stroke-linecap="square" stroke-linejoin="miter" fill-opacity="0" stroke-miterlimit="4" stroke="rgb(70,155,154)" stroke-opacity="1" stroke-width="12" d=" M-125,118.5 C-125,118.5 -100,93.5 -100,93.5 C-100,93.5 -75,119 -75,119 C-75,119 -50,93.5 -50,93.5 C-50,93.5 -25,118.5 -25,118.5 C-25,118.5 0,93.5 0,93.5 C0,93.5 25,118.5 25,118.5 C25,118.5 50,93.5 50,93.5 C50,93.5 75,118.5 75,118.5 C75,118.5 100,93.5 100,93.5 C100,93.5 125,118.5 125,118.5 C125,118.5 150,93.75 150,93.75 C150,93.75 175,118.75 175,118.75"></path></g></g><g opacity="1" transform="matrix(1,0,0,1,0,35.79999923706055)"><g opacity="1" transform="matrix(1,0,0,1,0,0)"><path stroke-linecap="square" stroke-linejoin="miter" fill-opacity="0" stroke-miterlimit="4" stroke="rgb(70,155,154)" stroke-opacity="1" stroke-width="12" d=" M-125,118.5 C-125,118.5 -100,93.5 -100,93.5 C-100,93.5 -75,119 -75,119 C-75,119 -50,93.5 -50,93.5 C-50,93.5 -25,118.5 -25,118.5 C-25,118.5 0,93.5 0,93.5 C0,93.5 25,118.5 25,118.5 C25,118.5 50,93.5 50,93.5 C50,93.5 75,118.5 75,118.5 C75,118.5 100,93.5 100,93.5 C100,93.5 125,118.5 125,118.5 C125,118.5 150,93.75 150,93.75 C150,93.75 175,118.75 175,118.75"></path></g></g><g opacity="1" transform="matrix(1,0,0,1,0,0)"><g opacity="1" transform="matrix(1,0,0,1,0,0)"><path stroke-linecap="square" stroke-linejoin="miter" fill-opacity="0" stroke-miterlimit="4" stroke="rgb(70,155,154)" stroke-opacity="1" stroke-width="12" d=" M-125,118.5 C-125,118.5 -100,93.5 -100,93.5 C-100,93.5 -75,119 -75,119 C-75,119 -50,93.5 -50,93.5 C-50,93.5 -25,118.5 -25,118.5 C-25,118.5 0,93.5 0,93.5 C0,93.5 25,118.5 25,118.5 C25,118.5 50,93.5 50,93.5 C50,93.5 75,118.5 75,118.5 C75,118.5 100,93.5 100,93.5 C100,93.5 125,118.5 125,118.5 C125,118.5 150,93.75 150,93.75 C150,93.75 175,118.75 175,118.75"></path></g></g></g></g><g clip-path="url(#__lottie_element_6379)" transform="matrix(0.5,0,0,0.5,125,250)" opacity="1" style="display: block;"><g transform="matrix(1,0,0,1,75,-93.75)" opacity="1" style="display: block;"><g opacity="1" transform="matrix(1,0,0,1,0,250.60000610351562)"><g opacity="1" transform="matrix(1,0,0,1,0,0)"><path stroke-linecap="square" stroke-linejoin="miter" fill-opacity="0" stroke-miterlimit="4" stroke="rgb(70,155,154)" stroke-opacity="1" stroke-width="12" d=" M-125,118.5 C-125,118.5 -100,93.5 -100,93.5 C-100,93.5 -75,119 -75,119 C-75,119 -50,93.5 -50,93.5 C-50,93.5 -25,118.5 -25,118.5 C-25,118.5 0,93.5 0,93.5 C0,93.5 25,118.5 25,118.5 C25,118.5 50,93.5 50,93.5 C50,93.5 75,118.5 75,118.5 C75,118.5 100,93.5 100,93.5 C100,93.5 125,118.5 125,118.5 C125,118.5 150,93.75 150,93.75 C150,93.75 175,118.75 175,118.75"></path></g></g><g opacity="1" transform="matrix(1,0,0,1,0,214.8000030517578)"><g opacity="1" transform="matrix(1,0,0,1,0,0)"><path stroke-linecap="square" stroke-linejoin="miter" fill-opacity="0" stroke-miterlimit="4" stroke="rgb(70,155,154)" stroke-opacity="1" stroke-width="12" d=" M-125,118.5 C-125,118.5 -100,93.5 -100,93.5 C-100,93.5 -75,119 -75,119 C-75,119 -50,93.5 -50,93.5 C-50,93.5 -25,118.5 -25,118.5 C-25,118.5 0,93.5 0,93.5 C0,93.5 25,118.5 25,118.5 C25,118.5 50,93.5 50,93.5 C50,93.5 75,118.5 75,118.5 C75,118.5 100,93.5 100,93.5 C100,93.5 125,118.5 125,118.5 C125,118.5 150,93.75 150,93.75 C150,93.75 175,118.75 175,118.75"></path></g></g><g opacity="1" transform="matrix(1,0,0,1,0,179)"><g opacity="1" transform="matrix(1,0,0,1,0,0)"><path stroke-linecap="square" stroke-linejoin="miter" fill-opacity="0" stroke-miterlimit="4" stroke="rgb(70,155,154)" stroke-opacity="1" stroke-width="12" d=" M-125,118.5 C-125,118.5 -100,93.5 -100,93.5 C-100,93.5 -75,119 -75,119 C-75,119 -50,93.5 -50,93.5 C-50,93.5 -25,118.5 -25,118.5 C-25,118.5 0,93.5 0,93.5 C0,93.5 25,118.5 25,118.5 C25,118.5 50,93.5 50,93.5 C50,93.5 75,118.5 75,118.5 C75,118.5 100,93.5 100,93.5 C100,93.5 125,118.5 125,118.5 C125,118.5 150,93.75 150,93.75 C150,93.75 175,118.75 175,118.75"></path></g></g><g opacity="1" transform="matrix(1,0,0,1,0,143.1999969482422)"><g opacity="1" transform="matrix(1,0,0,1,0,0)"><path stroke-linecap="square" stroke-linejoin="miter" fill-opacity="0" stroke-miterlimit="4" stroke="rgb(70,155,154)" stroke-opacity="1" stroke-width="12" d=" M-125,118.5 C-125,118.5 -100,93.5 -100,93.5 C-100,93.5 -75,119 -75,119 C-75,119 -50,93.5 -50,93.5 C-50,93.5 -25,118.5 -25,118.5 C-25,118.5 0,93.5 0,93.5 C0,93.5 25,118.5 25,118.5 C25,118.5 50,93.5 50,93.5 C50,93.5 75,118.5 75,118.5 C75,118.5 100,93.5 100,93.5 C100,93.5 125,118.5 125,118.5 C125,118.5 150,93.75 150,93.75 C150,93.75 175,118.75 175,118.75"></path></g></g><g opacity="1" transform="matrix(1,0,0,1,0,107.39999389648438)"><g opacity="1" transform="matrix(1,0,0,1,0,0)"><path stroke-linecap="square" stroke-linejoin="miter" fill-opacity="0" stroke-miterlimit="4" stroke="rgb(70,155,154)" stroke-opacity="1" stroke-width="12" d=" M-125,118.5 C-125,118.5 -100,93.5 -100,93.5 C-100,93.5 -75,119 -75,119 C-75,119 -50,93.5 -50,93.5 C-50,93.5 -25,118.5 -25,118.5 C-25,118.5 0,93.5 0,93.5 C0,93.5 25,118.5 25,118.5 C25,118.5 50,93.5 50,93.5 C50,93.5 75,118.5 75,118.5 C75,118.5 100,93.5 100,93.5 C100,93.5 125,118.5 125,118.5 C125,118.5 150,93.75 150,93.75 C150,93.75 175,118.75 175,118.75"></path></g></g><g opacity="1" transform="matrix(1,0,0,1,0,71.5999984741211)"><g opacity="1" transform="matrix(1,0,0,1,0,0)"><path stroke-linecap="square" stroke-linejoin="miter" fill-opacity="0" stroke-miterlimit="4" stroke="rgb(70,155,154)" stroke-opacity="1" stroke-width="12" d=" M-125,118.5 C-125,118.5 -100,93.5 -100,93.5 C-100,93.5 -75,119 -75,119 C-75,119 -50,93.5 -50,93.5 C-50,93.5 -25,118.5 -25,118.5 C-25,118.5 0,93.5 0,93.5 C0,93.5 25,118.5 25,118.5 C25,118.5 50,93.5 50,93.5 C50,93.5 75,118.5 75,118.5 C75,118.5 100,93.5 100,93.5 C100,93.5 125,118.5 125,118.5 C125,118.5 150,93.75 150,93.75 C150,93.75 175,118.75 175,118.75"></path></g></g><g opacity="1" transform="matrix(1,0,0,1,0,35.79999923706055)"><g opacity="1" transform="matrix(1,0,0,1,0,0)"><path stroke-linecap="square" stroke-linejoin="miter" fill-opacity="0" stroke-miterlimit="4" stroke="rgb(70,155,154)" stroke-opacity="1" stroke-width="12" d=" M-125,118.5 C-125,118.5 -100,93.5 -100,93.5 C-100,93.5 -75,119 -75,119 C-75,119 -50,93.5 -50,93.5 C-50,93.5 -25,118.5 -25,118.5 C-25,118.5 0,93.5 0,93.5 C0,93.5 25,118.5 25,118.5 C25,118.5 50,93.5 50,93.5 C50,93.5 75,118.5 75,118.5 C75,118.5 100,93.5 100,93.5 C100,93.5 125,118.5 125,118.5 C125,118.5 150,93.75 150,93.75 C150,93.75 175,118.75 175,118.75"></path></g></g><g opacity="1" transform="matrix(1,0,0,1,0,0)"><g opacity="1" transform="matrix(1,0,0,1,0,0)"><path stroke-linecap="square" stroke-linejoin="miter" fill-opacity="0" stroke-miterlimit="4" stroke="rgb(70,155,154)" stroke-opacity="1" stroke-width="12" d=" M-125,118.5 C-125,118.5 -100,93.5 -100,93.5 C-100,93.5 -75,119 -75,119 C-75,119 -50,93.5 -50,93.5 C-50,93.5 -25,118.5 -25,118.5 C-25,118.5 0,93.5 0,93.5 C0,93.5 25,118.5 25,118.5 C25,118.5 50,93.5 50,93.5 C50,93.5 75,118.5 75,118.5 C75,118.5 100,93.5 100,93.5 C100,93.5 125,118.5 125,118.5 C125,118.5 150,93.75 150,93.75 C150,93.75 175,118.75 175,118.75"></path></g></g></g></g><g clip-path="url(#__lottie_element_6383)" transform="matrix(0.5,0,0,0.5,0,250)" opacity="1" style="display: block;"><g transform="matrix(1,0,0,1,75,-93.75)" opacity="1" style="display: block;"><g opacity="1" transform="matrix(1,0,0,1,0,250.60000610351562)"><g opacity="1" transform="matrix(1,0,0,1,0,0)"><path stroke-linecap="square" stroke-linejoin="miter" fill-opacity="0" stroke-miterlimit="4" stroke="rgb(70,155,154)" stroke-opacity="1" stroke-width="12" d=" M-125,118.5 C-125,118.5 -100,93.5 -100,93.5 C-100,93.5 -75,119 -75,119 C-75,119 -50,93.5 -50,93.5 C-50,93.5 -25,118.5 -25,118.5 C-25,118.5 0,93.5 0,93.5 C0,93.5 25,118.5 25,118.5 C25,118.5 50,93.5 50,93.5 C50,93.5 75,118.5 75,118.5 C75,118.5 100,93.5 100,93.5 C100,93.5 125,118.5 125,118.5 C125,118.5 150,93.75 150,93.75 C150,93.75 175,118.75 175,118.75"></path></g></g><g opacity="1" transform="matrix(1,0,0,1,0,214.8000030517578)"><g opacity="1" transform="matrix(1,0,0,1,0,0)"><path stroke-linecap="square" stroke-linejoin="miter" fill-opacity="0" stroke-miterlimit="4" stroke="rgb(70,155,154)" stroke-opacity="1" stroke-width="12" d=" M-125,118.5 C-125,118.5 -100,93.5 -100,93.5 C-100,93.5 -75,119 -75,119 C-75,119 -50,93.5 -50,93.5 C-50,93.5 -25,118.5 -25,118.5 C-25,118.5 0,93.5 0,93.5 C0,93.5 25,118.5 25,118.5 C25,118.5 50,93.5 50,93.5 C50,93.5 75,118.5 75,118.5 C75,118.5 100,93.5 100,93.5 C100,93.5 125,118.5 125,118.5 C125,118.5 150,93.75 150,93.75 C150,93.75 175,118.75 175,118.75"></path></g></g><g opacity="1" transform="matrix(1,0,0,1,0,179)"><g opacity="1" transform="matrix(1,0,0,1,0,0)"><path stroke-linecap="square" stroke-linejoin="miter" fill-opacity="0" stroke-miterlimit="4" stroke="rgb(70,155,154)" stroke-opacity="1" stroke-width="12" d=" M-125,118.5 C-125,118.5 -100,93.5 -100,93.5 C-100,93.5 -75,119 -75,119 C-75,119 -50,93.5 -50,93.5 C-50,93.5 -25,118.5 -25,118.5 C-25,118.5 0,93.5 0,93.5 C0,93.5 25,118.5 25,118.5 C25,118.5 50,93.5 50,93.5 C50,93.5 75,118.5 75,118.5 C75,118.5 100,93.5 100,93.5 C100,93.5 125,118.5 125,118.5 C125,118.5 150,93.75 150,93.75 C150,93.75 175,118.75 175,118.75"></path></g></g><g opacity="1" transform="matrix(1,0,0,1,0,143.1999969482422)"><g opacity="1" transform="matrix(1,0,0,1,0,0)"><path stroke-linecap="square" stroke-linejoin="miter" fill-opacity="0" stroke-miterlimit="4" stroke="rgb(70,155,154)" stroke-opacity="1" stroke-width="12" d=" M-125,118.5 C-125,118.5 -100,93.5 -100,93.5 C-100,93.5 -75,119 -75,119 C-75,119 -50,93.5 -50,93.5 C-50,93.5 -25,118.5 -25,118.5 C-25,118.5 0,93.5 0,93.5 C0,93.5 25,118.5 25,118.5 C25,118.5 50,93.5 50,93.5 C50,93.5 75,118.5 75,118.5 C75,118.5 100,93.5 100,93.5 C100,93.5 125,118.5 125,118.5 C125,118.5 150,93.75 150,93.75 C150,93.75 175,118.75 175,118.75"></path></g></g><g opacity="1" transform="matrix(1,0,0,1,0,107.39999389648438)"><g opacity="1" transform="matrix(1,0,0,1,0,0)"><path stroke-linecap="square" stroke-linejoin="miter" fill-opacity="0" stroke-miterlimit="4" stroke="rgb(70,155,154)" stroke-opacity="1" stroke-width="12" d=" M-125,118.5 C-125,118.5 -100,93.5 -100,93.5 C-100,93.5 -75,119 -75,119 C-75,119 -50,93.5 -50,93.5 C-50,93.5 -25,118.5 -25,118.5 C-25,118.5 0,93.5 0,93.5 C0,93.5 25,118.5 25,118.5 C25,118.5 50,93.5 50,93.5 C50,93.5 75,118.5 75,118.5 C75,118.5 100,93.5 100,93.5 C100,93.5 125,118.5 125,118.5 C125,118.5 150,93.75 150,93.75 C150,93.75 175,118.75 175,118.75"></path></g></g><g opacity="1" transform="matrix(1,0,0,1,0,71.5999984741211)"><g opacity="1" transform="matrix(1,0,0,1,0,0)"><path stroke-linecap="square" stroke-linejoin="miter" fill-opacity="0" stroke-miterlimit="4" stroke="rgb(70,155,154)" stroke-opacity="1" stroke-width="12" d=" M-125,118.5 C-125,118.5 -100,93.5 -100,93.5 C-100,93.5 -75,119 -75,119 C-75,119 -50,93.5 -50,93.5 C-50,93.5 -25,118.5 -25,118.5 C-25,118.5 0,93.5 0,93.5 C0,93.5 25,118.5 25,118.5 C25,118.5 50,93.5 50,93.5 C50,93.5 75,118.5 75,118.5 C75,118.5 100,93.5 100,93.5 C100,93.5 125,118.5 125,118.5 C125,118.5 150,93.75 150,93.75 C150,93.75 175,118.75 175,118.75"></path></g></g><g opacity="1" transform="matrix(1,0,0,1,0,35.79999923706055)"><g opacity="1" transform="matrix(1,0,0,1,0,0)"><path stroke-linecap="square" stroke-linejoin="miter" fill-opacity="0" stroke-miterlimit="4" stroke="rgb(70,155,154)" stroke-opacity="1" stroke-width="12" d=" M-125,118.5 C-125,118.5 -100,93.5 -100,93.5 C-100,93.5 -75,119 -75,119 C-75,119 -50,93.5 -50,93.5 C-50,93.5 -25,118.5 -25,118.5 C-25,118.5 0,93.5 0,93.5 C0,93.5 25,118.5 25,118.5 C25,118.5 50,93.5 50,93.5 C50,93.5 75,118.5 75,118.5 C75,118.5 100,93.5 100,93.5 C100,93.5 125,118.5 125,118.5 C125,118.5 150,93.75 150,93.75 C150,93.75 175,118.75 175,118.75"></path></g></g><g opacity="1" transform="matrix(1,0,0,1,0,0)"><g opacity="1" transform="matrix(1,0,0,1,0,0)"><path stroke-linecap="square" stroke-linejoin="miter" fill-opacity="0" stroke-miterlimit="4" stroke="rgb(70,155,154)" stroke-opacity="1" stroke-width="12" d=" M-125,118.5 C-125,118.5 -100,93.5 -100,93.5 C-100,93.5 -75,119 -75,119 C-75,119 -50,93.5 -50,93.5 C-50,93.5 -25,118.5 -25,118.5 C-25,118.5 0,93.5 0,93.5 C0,93.5 25,118.5 25,118.5 C25,118.5 50,93.5 50,93.5 C50,93.5 75,118.5 75,118.5 C75,118.5 100,93.5 100,93.5 C100,93.5 125,118.5 125,118.5 C125,118.5 150,93.75 150,93.75 C150,93.75 175,118.75 175,118.75"></path></g></g></g></g><g clip-path="url(#__lottie_element_6387)" transform="matrix(0.5,0,0,0.5,0,375)" opacity="1" style="display: block;"><g transform="matrix(1,0,0,1,75,-93.75)" opacity="1" style="display: block;"><g opacity="1" transform="matrix(1,0,0,1,0,250.60000610351562)"><g opacity="1" transform="matrix(1,0,0,1,0,0)"><path stroke-linecap="square" stroke-linejoin="miter" fill-opacity="0" stroke-miterlimit="4" stroke="rgb(70,155,154)" stroke-opacity="1" stroke-width="12" d=" M-125,118.5 C-125,118.5 -100,93.5 -100,93.5 C-100,93.5 -75,119 -75,119 C-75,119 -50,93.5 -50,93.5 C-50,93.5 -25,118.5 -25,118.5 C-25,118.5 0,93.5 0,93.5 C0,93.5 25,118.5 25,118.5 C25,118.5 50,93.5 50,93.5 C50,93.5 75,118.5 75,118.5 C75,118.5 100,93.5 100,93.5 C100,93.5 125,118.5 125,118.5 C125,118.5 150,93.75 150,93.75 C150,93.75 175,118.75 175,118.75"></path></g></g><g opacity="1" transform="matrix(1,0,0,1,0,214.8000030517578)"><g opacity="1" transform="matrix(1,0,0,1,0,0)"><path stroke-linecap="square" stroke-linejoin="miter" fill-opacity="0" stroke-miterlimit="4" stroke="rgb(70,155,154)" stroke-opacity="1" stroke-width="12" d=" M-125,118.5 C-125,118.5 -100,93.5 -100,93.5 C-100,93.5 -75,119 -75,119 C-75,119 -50,93.5 -50,93.5 C-50,93.5 -25,118.5 -25,118.5 C-25,118.5 0,93.5 0,93.5 C0,93.5 25,118.5 25,118.5 C25,118.5 50,93.5 50,93.5 C50,93.5 75,118.5 75,118.5 C75,118.5 100,93.5 100,93.5 C100,93.5 125,118.5 125,118.5 C125,118.5 150,93.75 150,93.75 C150,93.75 175,118.75 175,118.75"></path></g></g><g opacity="1" transform="matrix(1,0,0,1,0,179)"><g opacity="1" transform="matrix(1,0,0,1,0,0)"><path stroke-linecap="square" stroke-linejoin="miter" fill-opacity="0" stroke-miterlimit="4" stroke="rgb(70,155,154)" stroke-opacity="1" stroke-width="12" d=" M-125,118.5 C-125,118.5 -100,93.5 -100,93.5 C-100,93.5 -75,119 -75,119 C-75,119 -50,93.5 -50,93.5 C-50,93.5 -25,118.5 -25,118.5 C-25,118.5 0,93.5 0,93.5 C0,93.5 25,118.5 25,118.5 C25,118.5 50,93.5 50,93.5 C50,93.5 75,118.5 75,118.5 C75,118.5 100,93.5 100,93.5 C100,93.5 125,118.5 125,118.5 C125,118.5 150,93.75 150,93.75 C150,93.75 175,118.75 175,118.75"></path></g></g><g opacity="1" transform="matrix(1,0,0,1,0,143.1999969482422)"><g opacity="1" transform="matrix(1,0,0,1,0,0)"><path stroke-linecap="square" stroke-linejoin="miter" fill-opacity="0" stroke-miterlimit="4" stroke="rgb(70,155,154)" stroke-opacity="1" stroke-width="12" d=" M-125,118.5 C-125,118.5 -100,93.5 -100,93.5 C-100,93.5 -75,119 -75,119 C-75,119 -50,93.5 -50,93.5 C-50,93.5 -25,118.5 -25,118.5 C-25,118.5 0,93.5 0,93.5 C0,93.5 25,118.5 25,118.5 C25,118.5 50,93.5 50,93.5 C50,93.5 75,118.5 75,118.5 C75,118.5 100,93.5 100,93.5 C100,93.5 125,118.5 125,118.5 C125,118.5 150,93.75 150,93.75 C150,93.75 175,118.75 175,118.75"></path></g></g><g opacity="1" transform="matrix(1,0,0,1,0,107.39999389648438)"><g opacity="1" transform="matrix(1,0,0,1,0,0)"><path stroke-linecap="square" stroke-linejoin="miter" fill-opacity="0" stroke-miterlimit="4" stroke="rgb(70,155,154)" stroke-opacity="1" stroke-width="12" d=" M-125,118.5 C-125,118.5 -100,93.5 -100,93.5 C-100,93.5 -75,119 -75,119 C-75,119 -50,93.5 -50,93.5 C-50,93.5 -25,118.5 -25,118.5 C-25,118.5 0,93.5 0,93.5 C0,93.5 25,118.5 25,118.5 C25,118.5 50,93.5 50,93.5 C50,93.5 75,118.5 75,118.5 C75,118.5 100,93.5 100,93.5 C100,93.5 125,118.5 125,118.5 C125,118.5 150,93.75 150,93.75 C150,93.75 175,118.75 175,118.75"></path></g></g><g opacity="1" transform="matrix(1,0,0,1,0,71.5999984741211)"><g opacity="1" transform="matrix(1,0,0,1,0,0)"><path stroke-linecap="square" stroke-linejoin="miter" fill-opacity="0" stroke-miterlimit="4" stroke="rgb(70,155,154)" stroke-opacity="1" stroke-width="12" d=" M-125,118.5 C-125,118.5 -100,93.5 -100,93.5 C-100,93.5 -75,119 -75,119 C-75,119 -50,93.5 -50,93.5 C-50,93.5 -25,118.5 -25,118.5 C-25,118.5 0,93.5 0,93.5 C0,93.5 25,118.5 25,118.5 C25,118.5 50,93.5 50,93.5 C50,93.5 75,118.5 75,118.5 C75,118.5 100,93.5 100,93.5 C100,93.5 125,118.5 125,118.5 C125,118.5 150,93.75 150,93.75 C150,93.75 175,118.75 175,118.75"></path></g></g><g opacity="1" transform="matrix(1,0,0,1,0,35.79999923706055)"><g opacity="1" transform="matrix(1,0,0,1,0,0)"><path stroke-linecap="square" stroke-linejoin="miter" fill-opacity="0" stroke-miterlimit="4" stroke="rgb(70,155,154)" stroke-opacity="1" stroke-width="12" d=" M-125,118.5 C-125,118.5 -100,93.5 -100,93.5 C-100,93.5 -75,119 -75,119 C-75,119 -50,93.5 -50,93.5 C-50,93.5 -25,118.5 -25,118.5 C-25,118.5 0,93.5 0,93.5 C0,93.5 25,118.5 25,118.5 C25,118.5 50,93.5 50,93.5 C50,93.5 75,118.5 75,118.5 C75,118.5 100,93.5 100,93.5 C100,93.5 125,118.5 125,118.5 C125,118.5 150,93.75 150,93.75 C150,93.75 175,118.75 175,118.75"></path></g></g><g opacity="1" transform="matrix(1,0,0,1,0,0)"><g opacity="1" transform="matrix(1,0,0,1,0,0)"><path stroke-linecap="square" stroke-linejoin="miter" fill-opacity="0" stroke-miterlimit="4" stroke="rgb(70,155,154)" stroke-opacity="1" stroke-width="12" d=" M-125,118.5 C-125,118.5 -100,93.5 -100,93.5 C-100,93.5 -75,119 -75,119 C-75,119 -50,93.5 -50,93.5 C-50,93.5 -25,118.5 -25,118.5 C-25,118.5 0,93.5 0,93.5 C0,93.5 25,118.5 25,118.5 C25,118.5 50,93.5 50,93.5 C50,93.5 75,118.5 75,118.5 C75,118.5 100,93.5 100,93.5 C100,93.5 125,118.5 125,118.5 C125,118.5 150,93.75 150,93.75 C150,93.75 175,118.75 175,118.75"></path></g></g></g></g><g clip-path="url(#__lottie_element_6391)" transform="matrix(0.5,0,0,0.5,125,375)" opacity="1" style="display: block;"><g transform="matrix(1,0,0,1,75,-93.75)" opacity="1" style="display: block;"><g opacity="1" transform="matrix(1,0,0,1,0,250.60000610351562)"><g opacity="1" transform="matrix(1,0,0,1,0,0)"><path stroke-linecap="square" stroke-linejoin="miter" fill-opacity="0" stroke-miterlimit="4" stroke="rgb(70,155,154)" stroke-opacity="1" stroke-width="12" d=" M-125,118.5 C-125,118.5 -100,93.5 -100,93.5 C-100,93.5 -75,119 -75,119 C-75,119 -50,93.5 -50,93.5 C-50,93.5 -25,118.5 -25,118.5 C-25,118.5 0,93.5 0,93.5 C0,93.5 25,118.5 25,118.5 C25,118.5 50,93.5 50,93.5 C50,93.5 75,118.5 75,118.5 C75,118.5 100,93.5 100,93.5 C100,93.5 125,118.5 125,118.5 C125,118.5 150,93.75 150,93.75 C150,93.75 175,118.75 175,118.75"></path></g></g><g opacity="1" transform="matrix(1,0,0,1,0,214.8000030517578)"><g opacity="1" transform="matrix(1,0,0,1,0,0)"><path stroke-linecap="square" stroke-linejoin="miter" fill-opacity="0" stroke-miterlimit="4" stroke="rgb(70,155,154)" stroke-opacity="1" stroke-width="12" d=" M-125,118.5 C-125,118.5 -100,93.5 -100,93.5 C-100,93.5 -75,119 -75,119 C-75,119 -50,93.5 -50,93.5 C-50,93.5 -25,118.5 -25,118.5 C-25,118.5 0,93.5 0,93.5 C0,93.5 25,118.5 25,118.5 C25,118.5 50,93.5 50,93.5 C50,93.5 75,118.5 75,118.5 C75,118.5 100,93.5 100,93.5 C100,93.5 125,118.5 125,118.5 C125,118.5 150,93.75 150,93.75 C150,93.75 175,118.75 175,118.75"></path></g></g><g opacity="1" transform="matrix(1,0,0,1,0,179)"><g opacity="1" transform="matrix(1,0,0,1,0,0)"><path stroke-linecap="square" stroke-linejoin="miter" fill-opacity="0" stroke-miterlimit="4" stroke="rgb(70,155,154)" stroke-opacity="1" stroke-width="12" d=" M-125,118.5 C-125,118.5 -100,93.5 -100,93.5 C-100,93.5 -75,119 -75,119 C-75,119 -50,93.5 -50,93.5 C-50,93.5 -25,118.5 -25,118.5 C-25,118.5 0,93.5 0,93.5 C0,93.5 25,118.5 25,118.5 C25,118.5 50,93.5 50,93.5 C50,93.5 75,118.5 75,118.5 C75,118.5 100,93.5 100,93.5 C100,93.5 125,118.5 125,118.5 C125,118.5 150,93.75 150,93.75 C150,93.75 175,118.75 175,118.75"></path></g></g><g opacity="1" transform="matrix(1,0,0,1,0,143.1999969482422)"><g opacity="1" transform="matrix(1,0,0,1,0,0)"><path stroke-linecap="square" stroke-linejoin="miter" fill-opacity="0" stroke-miterlimit="4" stroke="rgb(70,155,154)" stroke-opacity="1" stroke-width="12" d=" M-125,118.5 C-125,118.5 -100,93.5 -100,93.5 C-100,93.5 -75,119 -75,119 C-75,119 -50,93.5 -50,93.5 C-50,93.5 -25,118.5 -25,118.5 C-25,118.5 0,93.5 0,93.5 C0,93.5 25,118.5 25,118.5 C25,118.5 50,93.5 50,93.5 C50,93.5 75,118.5 75,118.5 C75,118.5 100,93.5 100,93.5 C100,93.5 125,118.5 125,118.5 C125,118.5 150,93.75 150,93.75 C150,93.75 175,118.75 175,118.75"></path></g></g><g opacity="1" transform="matrix(1,0,0,1,0,107.39999389648438)"><g opacity="1" transform="matrix(1,0,0,1,0,0)"><path stroke-linecap="square" stroke-linejoin="miter" fill-opacity="0" stroke-miterlimit="4" stroke="rgb(70,155,154)" stroke-opacity="1" stroke-width="12" d=" M-125,118.5 C-125,118.5 -100,93.5 -100,93.5 C-100,93.5 -75,119 -75,119 C-75,119 -50,93.5 -50,93.5 C-50,93.5 -25,118.5 -25,118.5 C-25,118.5 0,93.5 0,93.5 C0,93.5 25,118.5 25,118.5 C25,118.5 50,93.5 50,93.5 C50,93.5 75,118.5 75,118.5 C75,118.5 100,93.5 100,93.5 C100,93.5 125,118.5 125,118.5 C125,118.5 150,93.75 150,93.75 C150,93.75 175,118.75 175,118.75"></path></g></g><g opacity="1" transform="matrix(1,0,0,1,0,71.5999984741211)"><g opacity="1" transform="matrix(1,0,0,1,0,0)"><path stroke-linecap="square" stroke-linejoin="miter" fill-opacity="0" stroke-miterlimit="4" stroke="rgb(70,155,154)" stroke-opacity="1" stroke-width="12" d=" M-125,118.5 C-125,118.5 -100,93.5 -100,93.5 C-100,93.5 -75,119 -75,119 C-75,119 -50,93.5 -50,93.5 C-50,93.5 -25,118.5 -25,118.5 C-25,118.5 0,93.5 0,93.5 C0,93.5 25,118.5 25,118.5 C25,118.5 50,93.5 50,93.5 C50,93.5 75,118.5 75,118.5 C75,118.5 100,93.5 100,93.5 C100,93.5 125,118.5 125,118.5 C125,118.5 150,93.75 150,93.75 C150,93.75 175,118.75 175,118.75"></path></g></g><g opacity="1" transform="matrix(1,0,0,1,0,35.79999923706055)"><g opacity="1" transform="matrix(1,0,0,1,0,0)"><path stroke-linecap="square" stroke-linejoin="miter" fill-opacity="0" stroke-miterlimit="4" stroke="rgb(70,155,154)" stroke-opacity="1" stroke-width="12" d=" M-125,118.5 C-125,118.5 -100,93.5 -100,93.5 C-100,93.5 -75,119 -75,119 C-75,119 -50,93.5 -50,93.5 C-50,93.5 -25,118.5 -25,118.5 C-25,118.5 0,93.5 0,93.5 C0,93.5 25,118.5 25,118.5 C25,118.5 50,93.5 50,93.5 C50,93.5 75,118.5 75,118.5 C75,118.5 100,93.5 100,93.5 C100,93.5 125,118.5 125,118.5 C125,118.5 150,93.75 150,93.75 C150,93.75 175,118.75 175,118.75"></path></g></g><g opacity="1" transform="matrix(1,0,0,1,0,0)"><g opacity="1" transform="matrix(1,0,0,1,0,0)"><path stroke-linecap="square" stroke-linejoin="miter" fill-opacity="0" stroke-miterlimit="4" stroke="rgb(70,155,154)" stroke-opacity="1" stroke-width="12" d=" M-125,118.5 C-125,118.5 -100,93.5 -100,93.5 C-100,93.5 -75,119 -75,119 C-75,119 -50,93.5 -50,93.5 C-50,93.5 -25,118.5 -25,118.5 C-25,118.5 0,93.5 0,93.5 C0,93.5 25,118.5 25,118.5 C25,118.5 50,93.5 50,93.5 C50,93.5 75,118.5 75,118.5 C75,118.5 100,93.5 100,93.5 C100,93.5 125,118.5 125,118.5 C125,118.5 150,93.75 150,93.75 C150,93.75 175,118.75 175,118.75"></path></g></g></g></g><g clip-path="url(#__lottie_element_6395)" transform="matrix(0.5,0,0,0.5,375,250)" opacity="1" style="display: block;"><g transform="matrix(1,0,0,1,75,-93.75)" opacity="1" style="display: block;"><g opacity="1" transform="matrix(1,0,0,1,0,250.60000610351562)"><g opacity="1" transform="matrix(1,0,0,1,0,0)"><path stroke-linecap="square" stroke-linejoin="miter" fill-opacity="0" stroke-miterlimit="4" stroke="rgb(70,155,154)" stroke-opacity="1" stroke-width="12" d=" M-125,118.5 C-125,118.5 -100,93.5 -100,93.5 C-100,93.5 -75,119 -75,119 C-75,119 -50,93.5 -50,93.5 C-50,93.5 -25,118.5 -25,118.5 C-25,118.5 0,93.5 0,93.5 C0,93.5 25,118.5 25,118.5 C25,118.5 50,93.5 50,93.5 C50,93.5 75,118.5 75,118.5 C75,118.5 100,93.5 100,93.5 C100,93.5 125,118.5 125,118.5 C125,118.5 150,93.75 150,93.75 C150,93.75 175,118.75 175,118.75"></path></g></g><g opacity="1" transform="matrix(1,0,0,1,0,214.8000030517578)"><g opacity="1" transform="matrix(1,0,0,1,0,0)"><path stroke-linecap="square" stroke-linejoin="miter" fill-opacity="0" stroke-miterlimit="4" stroke="rgb(70,155,154)" stroke-opacity="1" stroke-width="12" d=" M-125,118.5 C-125,118.5 -100,93.5 -100,93.5 C-100,93.5 -75,119 -75,119 C-75,119 -50,93.5 -50,93.5 C-50,93.5 -25,118.5 -25,118.5 C-25,118.5 0,93.5 0,93.5 C0,93.5 25,118.5 25,118.5 C25,118.5 50,93.5 50,93.5 C50,93.5 75,118.5 75,118.5 C75,118.5 100,93.5 100,93.5 C100,93.5 125,118.5 125,118.5 C125,118.5 150,93.75 150,93.75 C150,93.75 175,118.75 175,118.75"></path></g></g><g opacity="1" transform="matrix(1,0,0,1,0,179)"><g opacity="1" transform="matrix(1,0,0,1,0,0)"><path stroke-linecap="square" stroke-linejoin="miter" fill-opacity="0" stroke-miterlimit="4" stroke="rgb(70,155,154)" stroke-opacity="1" stroke-width="12" d=" M-125,118.5 C-125,118.5 -100,93.5 -100,93.5 C-100,93.5 -75,119 -75,119 C-75,119 -50,93.5 -50,93.5 C-50,93.5 -25,118.5 -25,118.5 C-25,118.5 0,93.5 0,93.5 C0,93.5 25,118.5 25,118.5 C25,118.5 50,93.5 50,93.5 C50,93.5 75,118.5 75,118.5 C75,118.5 100,93.5 100,93.5 C100,93.5 125,118.5 125,118.5 C125,118.5 150,93.75 150,93.75 C150,93.75 175,118.75 175,118.75"></path></g></g><g opacity="1" transform="matrix(1,0,0,1,0,143.1999969482422)"><g opacity="1" transform="matrix(1,0,0,1,0,0)"><path stroke-linecap="square" stroke-linejoin="miter" fill-opacity="0" stroke-miterlimit="4" stroke="rgb(70,155,154)" stroke-opacity="1" stroke-width="12" d=" M-125,118.5 C-125,118.5 -100,93.5 -100,93.5 C-100,93.5 -75,119 -75,119 C-75,119 -50,93.5 -50,93.5 C-50,93.5 -25,118.5 -25,118.5 C-25,118.5 0,93.5 0,93.5 C0,93.5 25,118.5 25,118.5 C25,118.5 50,93.5 50,93.5 C50,93.5 75,118.5 75,118.5 C75,118.5 100,93.5 100,93.5 C100,93.5 125,118.5 125,118.5 C125,118.5 150,93.75 150,93.75 C150,93.75 175,118.75 175,118.75"></path></g></g><g opacity="1" transform="matrix(1,0,0,1,0,107.39999389648438)"><g opacity="1" transform="matrix(1,0,0,1,0,0)"><path stroke-linecap="square" stroke-linejoin="miter" fill-opacity="0" stroke-miterlimit="4" stroke="rgb(70,155,154)" stroke-opacity="1" stroke-width="12" d=" M-125,118.5 C-125,118.5 -100,93.5 -100,93.5 C-100,93.5 -75,119 -75,119 C-75,119 -50,93.5 -50,93.5 C-50,93.5 -25,118.5 -25,118.5 C-25,118.5 0,93.5 0,93.5 C0,93.5 25,118.5 25,118.5 C25,118.5 50,93.5 50,93.5 C50,93.5 75,118.5 75,118.5 C75,118.5 100,93.5 100,93.5 C100,93.5 125,118.5 125,118.5 C125,118.5 150,93.75 150,93.75 C150,93.75 175,118.75 175,118.75"></path></g></g><g opacity="1" transform="matrix(1,0,0,1,0,71.5999984741211)"><g opacity="1" transform="matrix(1,0,0,1,0,0)"><path stroke-linecap="square" stroke-linejoin="miter" fill-opacity="0" stroke-miterlimit="4" stroke="rgb(70,155,154)" stroke-opacity="1" stroke-width="12" d=" M-125,118.5 C-125,118.5 -100,93.5 -100,93.5 C-100,93.5 -75,119 -75,119 C-75,119 -50,93.5 -50,93.5 C-50,93.5 -25,118.5 -25,118.5 C-25,118.5 0,93.5 0,93.5 C0,93.5 25,118.5 25,118.5 C25,118.5 50,93.5 50,93.5 C50,93.5 75,118.5 75,118.5 C75,118.5 100,93.5 100,93.5 C100,93.5 125,118.5 125,118.5 C125,118.5 150,93.75 150,93.75 C150,93.75 175,118.75 175,118.75"></path></g></g><g opacity="1" transform="matrix(1,0,0,1,0,35.79999923706055)"><g opacity="1" transform="matrix(1,0,0,1,0,0)"><path stroke-linecap="square" stroke-linejoin="miter" fill-opacity="0" stroke-miterlimit="4" stroke="rgb(70,155,154)" stroke-opacity="1" stroke-width="12" d=" M-125,118.5 C-125,118.5 -100,93.5 -100,93.5 C-100,93.5 -75,119 -75,119 C-75,119 -50,93.5 -50,93.5 C-50,93.5 -25,118.5 -25,118.5 C-25,118.5 0,93.5 0,93.5 C0,93.5 25,118.5 25,118.5 C25,118.5 50,93.5 50,93.5 C50,93.5 75,118.5 75,118.5 C75,118.5 100,93.5 100,93.5 C100,93.5 125,118.5 125,118.5 C125,118.5 150,93.75 150,93.75 C150,93.75 175,118.75 175,118.75"></path></g></g><g opacity="1" transform="matrix(1,0,0,1,0,0)"><g opacity="1" transform="matrix(1,0,0,1,0,0)"><path stroke-linecap="square" stroke-linejoin="miter" fill-opacity="0" stroke-miterlimit="4" stroke="rgb(70,155,154)" stroke-opacity="1" stroke-width="12" d=" M-125,118.5 C-125,118.5 -100,93.5 -100,93.5 C-100,93.5 -75,119 -75,119 C-75,119 -50,93.5 -50,93.5 C-50,93.5 -25,118.5 -25,118.5 C-25,118.5 0,93.5 0,93.5 C0,93.5 25,118.5 25,118.5 C25,118.5 50,93.5 50,93.5 C50,93.5 75,118.5 75,118.5 C75,118.5 100,93.5 100,93.5 C100,93.5 125,118.5 125,118.5 C125,118.5 150,93.75 150,93.75 C150,93.75 175,118.75 175,118.75"></path></g></g></g></g><g clip-path="url(#__lottie_element_6399)" transform="matrix(0.5,0,0,0.5,250,250)" opacity="1" style="display: block;"><g transform="matrix(1,0,0,1,75,-93.75)" opacity="1" style="display: block;"><g opacity="1" transform="matrix(1,0,0,1,0,250.60000610351562)"><g opacity="1" transform="matrix(1,0,0,1,0,0)"><path stroke-linecap="square" stroke-linejoin="miter" fill-opacity="0" stroke-miterlimit="4" stroke="rgb(70,155,154)" stroke-opacity="1" stroke-width="12" d=" M-125,118.5 C-125,118.5 -100,93.5 -100,93.5 C-100,93.5 -75,119 -75,119 C-75,119 -50,93.5 -50,93.5 C-50,93.5 -25,118.5 -25,118.5 C-25,118.5 0,93.5 0,93.5 C0,93.5 25,118.5 25,118.5 C25,118.5 50,93.5 50,93.5 C50,93.5 75,118.5 75,118.5 C75,118.5 100,93.5 100,93.5 C100,93.5 125,118.5 125,118.5 C125,118.5 150,93.75 150,93.75 C150,93.75 175,118.75 175,118.75"></path></g></g><g opacity="1" transform="matrix(1,0,0,1,0,214.8000030517578)"><g opacity="1" transform="matrix(1,0,0,1,0,0)"><path stroke-linecap="square" stroke-linejoin="miter" fill-opacity="0" stroke-miterlimit="4" stroke="rgb(70,155,154)" stroke-opacity="1" stroke-width="12" d=" M-125,118.5 C-125,118.5 -100,93.5 -100,93.5 C-100,93.5 -75,119 -75,119 C-75,119 -50,93.5 -50,93.5 C-50,93.5 -25,118.5 -25,118.5 C-25,118.5 0,93.5 0,93.5 C0,93.5 25,118.5 25,118.5 C25,118.5 50,93.5 50,93.5 C50,93.5 75,118.5 75,118.5 C75,118.5 100,93.5 100,93.5 C100,93.5 125,118.5 125,118.5 C125,118.5 150,93.75 150,93.75 C150,93.75 175,118.75 175,118.75"></path></g></g><g opacity="1" transform="matrix(1,0,0,1,0,179)"><g opacity="1" transform="matrix(1,0,0,1,0,0)"><path stroke-linecap="square" stroke-linejoin="miter" fill-opacity="0" stroke-miterlimit="4" stroke="rgb(70,155,154)" stroke-opacity="1" stroke-width="12" d=" M-125,118.5 C-125,118.5 -100,93.5 -100,93.5 C-100,93.5 -75,119 -75,119 C-75,119 -50,93.5 -50,93.5 C-50,93.5 -25,118.5 -25,118.5 C-25,118.5 0,93.5 0,93.5 C0,93.5 25,118.5 25,118.5 C25,118.5 50,93.5 50,93.5 C50,93.5 75,118.5 75,118.5 C75,118.5 100,93.5 100,93.5 C100,93.5 125,118.5 125,118.5 C125,118.5 150,93.75 150,93.75 C150,93.75 175,118.75 175,118.75"></path></g></g><g opacity="1" transform="matrix(1,0,0,1,0,143.1999969482422)"><g opacity="1" transform="matrix(1,0,0,1,0,0)"><path stroke-linecap="square" stroke-linejoin="miter" fill-opacity="0" stroke-miterlimit="4" stroke="rgb(70,155,154)" stroke-opacity="1" stroke-width="12" d=" M-125,118.5 C-125,118.5 -100,93.5 -100,93.5 C-100,93.5 -75,119 -75,119 C-75,119 -50,93.5 -50,93.5 C-50,93.5 -25,118.5 -25,118.5 C-25,118.5 0,93.5 0,93.5 C0,93.5 25,118.5 25,118.5 C25,118.5 50,93.5 50,93.5 C50,93.5 75,118.5 75,118.5 C75,118.5 100,93.5 100,93.5 C100,93.5 125,118.5 125,118.5 C125,118.5 150,93.75 150,93.75 C150,93.75 175,118.75 175,118.75"></path></g></g><g opacity="1" transform="matrix(1,0,0,1,0,107.39999389648438)"><g opacity="1" transform="matrix(1,0,0,1,0,0)"><path stroke-linecap="square" stroke-linejoin="miter" fill-opacity="0" stroke-miterlimit="4" stroke="rgb(70,155,154)" stroke-opacity="1" stroke-width="12" d=" M-125,118.5 C-125,118.5 -100,93.5 -100,93.5 C-100,93.5 -75,119 -75,119 C-75,119 -50,93.5 -50,93.5 C-50,93.5 -25,118.5 -25,118.5 C-25,118.5 0,93.5 0,93.5 C0,93.5 25,118.5 25,118.5 C25,118.5 50,93.5 50,93.5 C50,93.5 75,118.5 75,118.5 C75,118.5 100,93.5 100,93.5 C100,93.5 125,118.5 125,118.5 C125,118.5 150,93.75 150,93.75 C150,93.75 175,118.75 175,118.75"></path></g></g><g opacity="1" transform="matrix(1,0,0,1,0,71.5999984741211)"><g opacity="1" transform="matrix(1,0,0,1,0,0)"><path stroke-linecap="square" stroke-linejoin="miter" fill-opacity="0" stroke-miterlimit="4" stroke="rgb(70,155,154)" stroke-opacity="1" stroke-width="12" d=" M-125,118.5 C-125,118.5 -100,93.5 -100,93.5 C-100,93.5 -75,119 -75,119 C-75,119 -50,93.5 -50,93.5 C-50,93.5 -25,118.5 -25,118.5 C-25,118.5 0,93.5 0,93.5 C0,93.5 25,118.5 25,118.5 C25,118.5 50,93.5 50,93.5 C50,93.5 75,118.5 75,118.5 C75,118.5 100,93.5 100,93.5 C100,93.5 125,118.5 125,118.5 C125,118.5 150,93.75 150,93.75 C150,93.75 175,118.75 175,118.75"></path></g></g><g opacity="1" transform="matrix(1,0,0,1,0,35.79999923706055)"><g opacity="1" transform="matrix(1,0,0,1,0,0)"><path stroke-linecap="square" stroke-linejoin="miter" fill-opacity="0" stroke-miterlimit="4" stroke="rgb(70,155,154)" stroke-opacity="1" stroke-width="12" d=" M-125,118.5 C-125,118.5 -100,93.5 -100,93.5 C-100,93.5 -75,119 -75,119 C-75,119 -50,93.5 -50,93.5 C-50,93.5 -25,118.5 -25,118.5 C-25,118.5 0,93.5 0,93.5 C0,93.5 25,118.5 25,118.5 C25,118.5 50,93.5 50,93.5 C50,93.5 75,118.5 75,118.5 C75,118.5 100,93.5 100,93.5 C100,93.5 125,118.5 125,118.5 C125,118.5 150,93.75 150,93.75 C150,93.75 175,118.75 175,118.75"></path></g></g><g opacity="1" transform="matrix(1,0,0,1,0,0)"><g opacity="1" transform="matrix(1,0,0,1,0,0)"><path stroke-linecap="square" stroke-linejoin="miter" fill-opacity="0" stroke-miterlimit="4" stroke="rgb(70,155,154)" stroke-opacity="1" stroke-width="12" d=" M-125,118.5 C-125,118.5 -100,93.5 -100,93.5 C-100,93.5 -75,119 -75,119 C-75,119 -50,93.5 -50,93.5 C-50,93.5 -25,118.5 -25,118.5 C-25,118.5 0,93.5 0,93.5 C0,93.5 25,118.5 25,118.5 C25,118.5 50,93.5 50,93.5 C50,93.5 75,118.5 75,118.5 C75,118.5 100,93.5 100,93.5 C100,93.5 125,118.5 125,118.5 C125,118.5 150,93.75 150,93.75 C150,93.75 175,118.75 175,118.75"></path></g></g></g></g><g clip-path="url(#__lottie_element_6403)" transform="matrix(0.5,0,0,0.5,250,375)" opacity="1" style="display: block;"><g transform="matrix(1,0,0,1,75,-93.75)" opacity="1" style="display: block;"><g opacity="1" transform="matrix(1,0,0,1,0,250.60000610351562)"><g opacity="1" transform="matrix(1,0,0,1,0,0)"><path stroke-linecap="square" stroke-linejoin="miter" fill-opacity="0" stroke-miterlimit="4" stroke="rgb(70,155,154)" stroke-opacity="1" stroke-width="12" d=" M-125,118.5 C-125,118.5 -100,93.5 -100,93.5 C-100,93.5 -75,119 -75,119 C-75,119 -50,93.5 -50,93.5 C-50,93.5 -25,118.5 -25,118.5 C-25,118.5 0,93.5 0,93.5 C0,93.5 25,118.5 25,118.5 C25,118.5 50,93.5 50,93.5 C50,93.5 75,118.5 75,118.5 C75,118.5 100,93.5 100,93.5 C100,93.5 125,118.5 125,118.5 C125,118.5 150,93.75 150,93.75 C150,93.75 175,118.75 175,118.75"></path></g></g><g opacity="1" transform="matrix(1,0,0,1,0,214.8000030517578)"><g opacity="1" transform="matrix(1,0,0,1,0,0)"><path stroke-linecap="square" stroke-linejoin="miter" fill-opacity="0" stroke-miterlimit="4" stroke="rgb(70,155,154)" stroke-opacity="1" stroke-width="12" d=" M-125,118.5 C-125,118.5 -100,93.5 -100,93.5 C-100,93.5 -75,119 -75,119 C-75,119 -50,93.5 -50,93.5 C-50,93.5 -25,118.5 -25,118.5 C-25,118.5 0,93.5 0,93.5 C0,93.5 25,118.5 25,118.5 C25,118.5 50,93.5 50,93.5 C50,93.5 75,118.5 75,118.5 C75,118.5 100,93.5 100,93.5 C100,93.5 125,118.5 125,118.5 C125,118.5 150,93.75 150,93.75 C150,93.75 175,118.75 175,118.75"></path></g></g><g opacity="1" transform="matrix(1,0,0,1,0,179)"><g opacity="1" transform="matrix(1,0,0,1,0,0)"><path stroke-linecap="square" stroke-linejoin="miter" fill-opacity="0" stroke-miterlimit="4" stroke="rgb(70,155,154)" stroke-opacity="1" stroke-width="12" d=" M-125,118.5 C-125,118.5 -100,93.5 -100,93.5 C-100,93.5 -75,119 -75,119 C-75,119 -50,93.5 -50,93.5 C-50,93.5 -25,118.5 -25,118.5 C-25,118.5 0,93.5 0,93.5 C0,93.5 25,118.5 25,118.5 C25,118.5 50,93.5 50,93.5 C50,93.5 75,118.5 75,118.5 C75,118.5 100,93.5 100,93.5 C100,93.5 125,118.5 125,118.5 C125,118.5 150,93.75 150,93.75 C150,93.75 175,118.75 175,118.75"></path></g></g><g opacity="1" transform="matrix(1,0,0,1,0,143.1999969482422)"><g opacity="1" transform="matrix(1,0,0,1,0,0)"><path stroke-linecap="square" stroke-linejoin="miter" fill-opacity="0" stroke-miterlimit="4" stroke="rgb(70,155,154)" stroke-opacity="1" stroke-width="12" d=" M-125,118.5 C-125,118.5 -100,93.5 -100,93.5 C-100,93.5 -75,119 -75,119 C-75,119 -50,93.5 -50,93.5 C-50,93.5 -25,118.5 -25,118.5 C-25,118.5 0,93.5 0,93.5 C0,93.5 25,118.5 25,118.5 C25,118.5 50,93.5 50,93.5 C50,93.5 75,118.5 75,118.5 C75,118.5 100,93.5 100,93.5 C100,93.5 125,118.5 125,118.5 C125,118.5 150,93.75 150,93.75 C150,93.75 175,118.75 175,118.75"></path></g></g><g opacity="1" transform="matrix(1,0,0,1,0,107.39999389648438)"><g opacity="1" transform="matrix(1,0,0,1,0,0)"><path stroke-linecap="square" stroke-linejoin="miter" fill-opacity="0" stroke-miterlimit="4" stroke="rgb(70,155,154)" stroke-opacity="1" stroke-width="12" d=" M-125,118.5 C-125,118.5 -100,93.5 -100,93.5 C-100,93.5 -75,119 -75,119 C-75,119 -50,93.5 -50,93.5 C-50,93.5 -25,118.5 -25,118.5 C-25,118.5 0,93.5 0,93.5 C0,93.5 25,118.5 25,118.5 C25,118.5 50,93.5 50,93.5 C50,93.5 75,118.5 75,118.5 C75,118.5 100,93.5 100,93.5 C100,93.5 125,118.5 125,118.5 C125,118.5 150,93.75 150,93.75 C150,93.75 175,118.75 175,118.75"></path></g></g><g opacity="1" transform="matrix(1,0,0,1,0,71.5999984741211)"><g opacity="1" transform="matrix(1,0,0,1,0,0)"><path stroke-linecap="square" stroke-linejoin="miter" fill-opacity="0" stroke-miterlimit="4" stroke="rgb(70,155,154)" stroke-opacity="1" stroke-width="12" d=" M-125,118.5 C-125,118.5 -100,93.5 -100,93.5 C-100,93.5 -75,119 -75,119 C-75,119 -50,93.5 -50,93.5 C-50,93.5 -25,118.5 -25,118.5 C-25,118.5 0,93.5 0,93.5 C0,93.5 25,118.5 25,118.5 C25,118.5 50,93.5 50,93.5 C50,93.5 75,118.5 75,118.5 C75,118.5 100,93.5 100,93.5 C100,93.5 125,118.5 125,118.5 C125,118.5 150,93.75 150,93.75 C150,93.75 175,118.75 175,118.75"></path></g></g><g opacity="1" transform="matrix(1,0,0,1,0,35.79999923706055)"><g opacity="1" transform="matrix(1,0,0,1,0,0)"><path stroke-linecap="square" stroke-linejoin="miter" fill-opacity="0" stroke-miterlimit="4" stroke="rgb(70,155,154)" stroke-opacity="1" stroke-width="12" d=" M-125,118.5 C-125,118.5 -100,93.5 -100,93.5 C-100,93.5 -75,119 -75,119 C-75,119 -50,93.5 -50,93.5 C-50,93.5 -25,118.5 -25,118.5 C-25,118.5 0,93.5 0,93.5 C0,93.5 25,118.5 25,118.5 C25,118.5 50,93.5 50,93.5 C50,93.5 75,118.5 75,118.5 C75,118.5 100,93.5 100,93.5 C100,93.5 125,118.5 125,118.5 C125,118.5 150,93.75 150,93.75 C150,93.75 175,118.75 175,118.75"></path></g></g><g opacity="1" transform="matrix(1,0,0,1,0,0)"><g opacity="1" transform="matrix(1,0,0,1,0,0)"><path stroke-linecap="square" stroke-linejoin="miter" fill-opacity="0" stroke-miterlimit="4" stroke="rgb(70,155,154)" stroke-opacity="1" stroke-width="12" d=" M-125,118.5 C-125,118.5 -100,93.5 -100,93.5 C-100,93.5 -75,119 -75,119 C-75,119 -50,93.5 -50,93.5 C-50,93.5 -25,118.5 -25,118.5 C-25,118.5 0,93.5 0,93.5 C0,93.5 25,118.5 25,118.5 C25,118.5 50,93.5 50,93.5 C50,93.5 75,118.5 75,118.5 C75,118.5 100,93.5 100,93.5 C100,93.5 125,118.5 125,118.5 C125,118.5 150,93.75 150,93.75 C150,93.75 175,118.75 175,118.75"></path></g></g></g></g><g clip-path="url(#__lottie_element_6407)" transform="matrix(0.5,0,0,0.5,375,375)" opacity="1" style="display: block;"><g transform="matrix(1,0,0,1,75,-93.75)" opacity="1" style="display: block;"><g opacity="1" transform="matrix(1,0,0,1,0,250.60000610351562)"><g opacity="1" transform="matrix(1,0,0,1,0,0)"><path stroke-linecap="square" stroke-linejoin="miter" fill-opacity="0" stroke-miterlimit="4" stroke="rgb(70,155,154)" stroke-opacity="1" stroke-width="12" d=" M-125,118.5 C-125,118.5 -100,93.5 -100,93.5 C-100,93.5 -75,119 -75,119 C-75,119 -50,93.5 -50,93.5 C-50,93.5 -25,118.5 -25,118.5 C-25,118.5 0,93.5 0,93.5 C0,93.5 25,118.5 25,118.5 C25,118.5 50,93.5 50,93.5 C50,93.5 75,118.5 75,118.5 C75,118.5 100,93.5 100,93.5 C100,93.5 125,118.5 125,118.5 C125,118.5 150,93.75 150,93.75 C150,93.75 175,118.75 175,118.75"></path></g></g><g opacity="1" transform="matrix(1,0,0,1,0,214.8000030517578)"><g opacity="1" transform="matrix(1,0,0,1,0,0)"><path stroke-linecap="square" stroke-linejoin="miter" fill-opacity="0" stroke-miterlimit="4" stroke="rgb(70,155,154)" stroke-opacity="1" stroke-width="12" d=" M-125,118.5 C-125,118.5 -100,93.5 -100,93.5 C-100,93.5 -75,119 -75,119 C-75,119 -50,93.5 -50,93.5 C-50,93.5 -25,118.5 -25,118.5 C-25,118.5 0,93.5 0,93.5 C0,93.5 25,118.5 25,118.5 C25,118.5 50,93.5 50,93.5 C50,93.5 75,118.5 75,118.5 C75,118.5 100,93.5 100,93.5 C100,93.5 125,118.5 125,118.5 C125,118.5 150,93.75 150,93.75 C150,93.75 175,118.75 175,118.75"></path></g></g><g opacity="1" transform="matrix(1,0,0,1,0,179)"><g opacity="1" transform="matrix(1,0,0,1,0,0)"><path stroke-linecap="square" stroke-linejoin="miter" fill-opacity="0" stroke-miterlimit="4" stroke="rgb(70,155,154)" stroke-opacity="1" stroke-width="12" d=" M-125,118.5 C-125,118.5 -100,93.5 -100,93.5 C-100,93.5 -75,119 -75,119 C-75,119 -50,93.5 -50,93.5 C-50,93.5 -25,118.5 -25,118.5 C-25,118.5 0,93.5 0,93.5 C0,93.5 25,118.5 25,118.5 C25,118.5 50,93.5 50,93.5 C50,93.5 75,118.5 75,118.5 C75,118.5 100,93.5 100,93.5 C100,93.5 125,118.5 125,118.5 C125,118.5 150,93.75 150,93.75 C150,93.75 175,118.75 175,118.75"></path></g></g><g opacity="1" transform="matrix(1,0,0,1,0,143.1999969482422)"><g opacity="1" transform="matrix(1,0,0,1,0,0)"><path stroke-linecap="square" stroke-linejoin="miter" fill-opacity="0" stroke-miterlimit="4" stroke="rgb(70,155,154)" stroke-opacity="1" stroke-width="12" d=" M-125,118.5 C-125,118.5 -100,93.5 -100,93.5 C-100,93.5 -75,119 -75,119 C-75,119 -50,93.5 -50,93.5 C-50,93.5 -25,118.5 -25,118.5 C-25,118.5 0,93.5 0,93.5 C0,93.5 25,118.5 25,118.5 C25,118.5 50,93.5 50,93.5 C50,93.5 75,118.5 75,118.5 C75,118.5 100,93.5 100,93.5 C100,93.5 125,118.5 125,118.5 C125,118.5 150,93.75 150,93.75 C150,93.75 175,118.75 175,118.75"></path></g></g><g opacity="1" transform="matrix(1,0,0,1,0,107.39999389648438)"><g opacity="1" transform="matrix(1,0,0,1,0,0)"><path stroke-linecap="square" stroke-linejoin="miter" fill-opacity="0" stroke-miterlimit="4" stroke="rgb(70,155,154)" stroke-opacity="1" stroke-width="12" d=" M-125,118.5 C-125,118.5 -100,93.5 -100,93.5 C-100,93.5 -75,119 -75,119 C-75,119 -50,93.5 -50,93.5 C-50,93.5 -25,118.5 -25,118.5 C-25,118.5 0,93.5 0,93.5 C0,93.5 25,118.5 25,118.5 C25,118.5 50,93.5 50,93.5 C50,93.5 75,118.5 75,118.5 C75,118.5 100,93.5 100,93.5 C100,93.5 125,118.5 125,118.5 C125,118.5 150,93.75 150,93.75 C150,93.75 175,118.75 175,118.75"></path></g></g><g opacity="1" transform="matrix(1,0,0,1,0,71.5999984741211)"><g opacity="1" transform="matrix(1,0,0,1,0,0)"><path stroke-linecap="square" stroke-linejoin="miter" fill-opacity="0" stroke-miterlimit="4" stroke="rgb(70,155,154)" stroke-opacity="1" stroke-width="12" d=" M-125,118.5 C-125,118.5 -100,93.5 -100,93.5 C-100,93.5 -75,119 -75,119 C-75,119 -50,93.5 -50,93.5 C-50,93.5 -25,118.5 -25,118.5 C-25,118.5 0,93.5 0,93.5 C0,93.5 25,118.5 25,118.5 C25,118.5 50,93.5 50,93.5 C50,93.5 75,118.5 75,118.5 C75,118.5 100,93.5 100,93.5 C100,93.5 125,118.5 125,118.5 C125,118.5 150,93.75 150,93.75 C150,93.75 175,118.75 175,118.75"></path></g></g><g opacity="1" transform="matrix(1,0,0,1,0,35.79999923706055)"><g opacity="1" transform="matrix(1,0,0,1,0,0)"><path stroke-linecap="square" stroke-linejoin="miter" fill-opacity="0" stroke-miterlimit="4" stroke="rgb(70,155,154)" stroke-opacity="1" stroke-width="12" d=" M-125,118.5 C-125,118.5 -100,93.5 -100,93.5 C-100,93.5 -75,119 -75,119 C-75,119 -50,93.5 -50,93.5 C-50,93.5 -25,118.5 -25,118.5 C-25,118.5 0,93.5 0,93.5 C0,93.5 25,118.5 25,118.5 C25,118.5 50,93.5 50,93.5 C50,93.5 75,118.5 75,118.5 C75,118.5 100,93.5 100,93.5 C100,93.5 125,118.5 125,118.5 C125,118.5 150,93.75 150,93.75 C150,93.75 175,118.75 175,118.75"></path></g></g><g opacity="1" transform="matrix(1,0,0,1,0,0)"><g opacity="1" transform="matrix(1,0,0,1,0,0)"><path stroke-linecap="square" stroke-linejoin="miter" fill-opacity="0" stroke-miterlimit="4" stroke="rgb(70,155,154)" stroke-opacity="1" stroke-width="12" d=" M-125,118.5 C-125,118.5 -100,93.5 -100,93.5 C-100,93.5 -75,119 -75,119 C-75,119 -50,93.5 -50,93.5 C-50,93.5 -25,118.5 -25,118.5 C-25,118.5 0,93.5 0,93.5 C0,93.5 25,118.5 25,118.5 C25,118.5 50,93.5 50,93.5 C50,93.5 75,118.5 75,118.5 C75,118.5 100,93.5 100,93.5 C100,93.5 125,118.5 125,118.5 C125,118.5 150,93.75 150,93.75 C150,93.75 175,118.75 175,118.75"></path></g></g></g></g><g fill="none" stroke-linecap="round" stroke-dashoffset="1" stroke="rgb(20,20,20)" stroke-width="4" opacity="1"><path d=" M400,100 C400,100 100,100 100,100 C100,100 100,400 100,400 C100,400 400,400 400,400 C400,400 400,100 400,100" stroke-dasharray="1 0.6"></path></g></g></g><g clip-path="url(#__lottie_element_6338)" transform="matrix(1,0,0,1,250,250)" opacity="1" style="display: block;"><g opacity="1" transform="matrix(0.6383900046348572,0,0,0.5916200280189514,-1.0870000123977661,0.052000001072883606)"><path fill="rgb(230,79,155)" fill-opacity="1" d=" M187.5,-200 C187.5,-200 187.5,200 187.5,200 C187.5,200 -187.5,200 -187.5,200 C-187.5,200 -187.5,-200 -187.5,-200 C-187.5,-200 187.5,-200 187.5,-200z"></path></g><g fill="none" stroke-linecap="round" stroke-dashoffset="1" stroke="rgb(20,20,20)" stroke-width="4" opacity="1"><path d=" M109.7040023803711,-18.402000427246094 C109.7040023803711,-18.402000427246094 2.9089999198913574,-18.402000427246094 2.9089999198913574,-18.402000427246094 C2.9089999198913574,-18.402000427246094 2.9089999198913574,24.222000122070312 2.9089999198913574,24.222000122070312 C2.9089999198913574,24.222000122070312 64.05699920654297,24.222000122070312 64.05699920654297,24.222000122070312 C61.316001892089844,38.20899963378906 53.32699966430664,50.0880012512207 41.375,58.055999755859375 C31.167999267578125,64.86000061035156 18.219999313354492,69.01899719238281 2.9089999198913574,69.01899719238281 C-26.672000885009766,69.01899719238281 -51.715999603271484,49.07699966430664 -60.694000244140625,22.142000198364258 C-63.05699920654297,15.338000297546387 -64.28600311279297,8.0600004196167 -64.28600311279297,0.5 C-64.28600311279297,-7.059999942779541 -62.96200180053711,-14.336999893188477 -60.694000244140625,-21.142000198364258 C-51.715999603271484,-48.07699966430664 -26.672000885009766,-68.01899719238281 2.9089999198913574,-68.01899719238281 C19.63800048828125,-68.01899719238281 34.56999969482422,-62.25299835205078 46.38399887084961,-51.00699996948242 C46.38399887084961,-51.00699996948242 78.70600128173828,-83.3290023803711 78.70600128173828,-83.3290023803711 C59.143001556396484,-101.66400146484375 33.529998779296875,-112.91000366210938 2.9089999198913574,-112.91000366210938 C-41.415000915527344,-112.91000366210938 -79.58399963378906,-87.33899688720703 -98.30899810791016,-50.345001220703125 C-106.05799865722656,-35.03499984741211 -110.5,-17.834999084472656 -110.5,0.5 C-110.5,18.834999084472656 -106.01399993896484,36.013999938964844 -98.30899810791016,51.34600067138672 C-79.69100189208984,88.39299774169922 -41.415000915527344,113.91000366210938 2.9089999198913574,113.91000366210938 C33.529998779296875,113.91000366210938 59.14799880981445,103.70899963378906 77.8550033569336,86.40799713134766 C99.21399688720703,66.65599822998047 111.5,37.547000885009766 111.5,3.052000045776367 C111.5,-4.414000034332275 110.83799743652344,-11.503000259399414 109.7040023803711,-18.402000427246094" stroke-dasharray="1 0.6"></path></g></g><g clip-path="url(#__lottie_element_6341)" transform="matrix(1,0,0,1,249.4770050048828,249.2949981689453)" opacity="1" style="display: block;"><g opacity="1" transform="matrix(2.299999952316284,0,0,2.299999952316284,12.5,0)"><path fill="rgb(243,216,152)" fill-opacity="1" d=" M175,-162.5 C175,-162.5 175,162.5 175,162.5 C175,162.5 -175,162.5 -175,162.5 C-175,162.5 -175,-162.5 -175,-162.5 C-175,-162.5 175,-162.5 175,-162.5z"></path></g><g fill="none" stroke-linecap="round" stroke-dashoffset="1" stroke="rgb(20,20,20)" stroke-width="4" opacity="1"><path d=" M113.52300262451172,-90.30699920654297 C113.52300262451172,-90.30699920654297 91.30599975585938,-112.52300262451172 91.30599975585938,-112.52300262451172 C91.30599975585938,-112.52300262451172 0.5,-21.715999603271484 0.5,-21.715999603271484 C0.5,-21.715999603271484 -90.30699920654297,-112.52300262451172 -90.30699920654297,-112.52300262451172 C-90.30699920654297,-112.52300262451172 -112.52300262451172,-90.30699920654297 -112.52300262451172,-90.30699920654297 C-112.52300262451172,-90.30699920654297 -21.715999603271484,0.5 -21.715999603271484,0.5 C-21.715999603271484,0.5 -112.52300262451172,91.30699920654297 -112.52300262451172,91.30699920654297 C-112.52300262451172,91.30699920654297 -90.30699920654297,113.52300262451172 -90.30699920654297,113.52300262451172 C-90.30699920654297,113.52300262451172 0.5,22.715999603271484 0.5,22.715999603271484 C0.5,22.715999603271484 91.30599975585938,113.52300262451172 91.30599975585938,113.52300262451172 C91.30599975585938,113.52300262451172 113.52300262451172,91.30699920654297 113.52300262451172,91.30699920654297 C113.52300262451172,91.30699920654297 22.715999603271484,0.5 22.715999603271484,0.5 C22.715999603271484,0.5 113.52300262451172,-90.30699920654297 113.52300262451172,-90.30699920654297" stroke-dasharray="1 0.6"></path></g></g></g></svg>