<svg xmlns="http://www.w3.org/2000/svg" viewBox="0 0 500 500" width="500" height="500" preserveAspectRatio="xMidYMid meet" style="width: 100%; height: 100%; transform: translate3d(0px, 0px, 0px);"><defs><clipPath id="__lottie_element_6459"><rect width="500" height="500" x="0" y="0"></rect></clipPath><clipPath id="__lottie_element_6464"><path d="M0,0 L300,0 L300,300 L0,300z"></path></clipPath><clipPath id="__lottie_element_6465"><path fill="#ffffff" clip-rule="nonzero" d=" M227.49600219726562,104.93299865722656 C227.49600219726562,147.83999633789062 192.71299743652344,182.6219940185547 149.80599975585938,182.6219940185547 C106.89900207519531,182.6219940185547 72.11699676513672,147.83999633789062 72.11699676513672,104.93299865722656 C72.11699676513672,62.0260009765625 106.89900207519531,27.243000030517578 149.80599975585938,27.243000030517578 C192.71299743652344,27.243000030517578 227.49600219726562,62.0260009765625 227.49600219726562,104.93299865722656" fill-opacity="1"></path></clipPath><clipPath id="__lottie_element_6471"><path d="M0,0 L300,0 L300,300 L0,300z"></path></clipPath></defs><g clip-path="url(#__lottie_element_6459)"><g transform="matrix(1,0,0,1,250,250)" opacity="1" style="display: block;"><g opacity="1" transform="matrix(1,0,0,1,0,0)"><path fill="rgb(243,216,152)" fill-opacity="1" d=" M96.11599731445312,-97.01000213623047 C96.11599731445312,-97.01000213623047 96.11599731445312,-97.01000213623047 96.11599731445312,-97.01000213623047 C96.11599731445312,-97.01000213623047 96.11599731445312,-97.01000213623047 96.11599731445312,-97.01000213623047 C82.96099853515625,-122.37899780273438 60.15999984741211,-141.59100341796875 32.69200134277344,-150.33200073242188 C22.356000900268555,-153.62100219726562 11.081000328063965,-155.5 -0.42899999022483826,-155.5 C-33.54999923706055,-155.5 -63.43899917602539,-140.51400756835938 -83.3489990234375,-116.74099731445312 C-99.08699798583984,-97.9489974975586 -108.71900177001953,-73.51899719238281 -108.71900177001953,-47.209999084472656 C-108.71900177001953,-26.773000717163086 -104.7249984741211,-10.331000328063965 -97.91300201416016,4.4679999351501465 C-86.63800048828125,29.368000030517578 -67.81999969482422,49.54899978637695 -48.58399963378906,74.7040023803711 C-42.47700119018555,82.69100189208984 -36.12300109863281,91.84500122070312 -30.027000427246094,101.24800109863281 C-7.946000099182129,135.3090057373047 -14.053000450134277,155.50999450683594 0.04100000113248825,155.50999450683594 C14.135000228881836,155.50999450683594 8.027000427246094,135.07400512695312 30.107999801635742,101.01300048828125 C66.28299713134766,44.4010009765625 108.33100128173828,18.79800033569336 108.33100128173828,-46.974998474121094 C108.33100128173828,-65.06300354003906 103.86799621582031,-81.97599792480469 96.11599731445312,-97.01000213623047z"></path><path stroke-linecap="butt" stroke-linejoin="miter" fill-opacity="0" stroke-miterlimit="4" stroke="rgb(20,20,20)" stroke-opacity="1" stroke-width="2" d=" M96.11599731445312,-97.01000213623047 C96.11599731445312,-97.01000213623047 96.11599731445312,-97.01000213623047 96.11599731445312,-97.01000213623047 C96.11599731445312,-97.01000213623047 96.11599731445312,-97.01000213623047 96.11599731445312,-97.01000213623047 C82.96099853515625,-122.37899780273438 60.15999984741211,-141.59100341796875 32.69200134277344,-150.33200073242188 C22.356000900268555,-153.62100219726562 11.081000328063965,-155.5 -0.42899999022483826,-155.5 C-33.54999923706055,-155.5 -63.43899917602539,-140.51400756835938 -83.3489990234375,-116.74099731445312 C-99.08699798583984,-97.9489974975586 -108.71900177001953,-73.51899719238281 -108.71900177001953,-47.209999084472656 C-108.71900177001953,-26.773000717163086 -104.7249984741211,-10.331000328063965 -97.91300201416016,4.4679999351501465 C-86.63800048828125,29.368000030517578 -67.81999969482422,49.54899978637695 -48.58399963378906,74.7040023803711 C-42.47700119018555,82.69100189208984 -36.12300109863281,91.84500122070312 -30.027000427246094,101.24800109863281 C-7.946000099182129,135.3090057373047 -14.053000450134277,155.50999450683594 0.04100000113248825,155.50999450683594 C14.135000228881836,155.50999450683594 8.027000427246094,135.07400512695312 30.107999801635742,101.01300048828125 C66.28299713134766,44.4010009765625 108.33100128173828,18.79800033569336 108.33100128173828,-46.974998474121094 C108.33100128173828,-65.06300354003906 103.86799621582031,-81.97599792480469 96.11599731445312,-97.01000213623047z"></path></g></g><g clip-path="url(#__lottie_element_6464)" transform="matrix(1,0,0,1,100,100)" opacity="1" style="display: block;"><g clip-path="url(#__lottie_element_6465)"><g clip-path="url(#__lottie_element_6471)" transform="matrix(0,0.75,-0.75,0,262.5,15.5)" opacity="1" style="display: block;"><g transform="matrix(1,0,0,1,0,0)" opacity="1" style="display: block;"><rect width="300" height="300" fill="#78a9f7"></rect></g><g transform="matrix(1,0,0,1,150,150)" opacity="1" style="display: block;"></g><g transform="matrix(1,0,0,1,300,0)" opacity="1" style="display: block;"><g opacity="1" transform="matrix(1,0,0,1,0,0)"><path stroke-linecap="butt" stroke-linejoin="miter" fill-opacity="0" stroke-miterlimit="4" stroke="rgb(230,79,155)" stroke-opacity="1" stroke-width="6" d=" M-150,-150 C-150,-150 150,150 150,150"></path></g></g><g transform="matrix(1,0,0,1,150,150)" opacity="1" style="display: block;"><g opacity="1" transform="matrix(1,0,0,1,0,0)"><path stroke-linecap="butt" stroke-linejoin="miter" fill-opacity="0" stroke-miterlimit="4" stroke="rgb(230,79,155)" stroke-opacity="1" stroke-width="6" d=" M-150,-150 C-150,-150 150,150 150,150"></path></g></g><g transform="matrix(1,0,0,1,262.5,37.5)" opacity="1" style="display: block;"><g opacity="1" transform="matrix(1,0,0,1,0,0)"><path stroke-linecap="butt" stroke-linejoin="miter" fill-opacity="0" stroke-miterlimit="4" stroke="rgb(230,79,155)" stroke-opacity="1" stroke-width="6" d=" M-150,-150 C-150,-150 150,150 150,150"></path></g></g><g transform="matrix(1,0,0,1,287.5,12.5)" opacity="1" style="display: block;"><g opacity="1" transform="matrix(1,0,0,1,0,0)"><path stroke-linecap="butt" stroke-linejoin="miter" fill-opacity="0" stroke-miterlimit="4" stroke="rgb(230,79,155)" stroke-opacity="1" stroke-width="6" d=" M-150,-150 C-150,-150 150,150 150,150"></path></g></g><g transform="matrix(1,0,0,1,275,25)" opacity="1" style="display: block;"><g opacity="1" transform="matrix(1,0,0,1,0,0)"><path stroke-linecap="butt" stroke-linejoin="miter" fill-opacity="0" stroke-miterlimit="4" stroke="rgb(230,79,155)" stroke-opacity="1" stroke-width="6" d=" M-150,-150 C-150,-150 150,150 150,150"></path></g></g><g transform="matrix(1,0,0,1,250,50)" opacity="1" style="display: block;"><g opacity="1" transform="matrix(1,0,0,1,0,0)"><path stroke-linecap="butt" stroke-linejoin="miter" fill-opacity="0" stroke-miterlimit="4" stroke="rgb(230,79,155)" stroke-opacity="1" stroke-width="6" d=" M-150,-150 C-150,-150 150,150 150,150"></path></g></g><g transform="matrix(1,0,0,1,237.5,62.5)" opacity="1" style="display: block;"><g opacity="1" transform="matrix(1,0,0,1,0,0)"><path stroke-linecap="butt" stroke-linejoin="miter" fill-opacity="0" stroke-miterlimit="4" stroke="rgb(230,79,155)" stroke-opacity="1" stroke-width="6" d=" M-150,-150 C-150,-150 150,150 150,150"></path></g></g><g transform="matrix(1,0,0,1,225,75)" opacity="1" style="display: block;"><g opacity="1" transform="matrix(1,0,0,1,0,0)"><path stroke-linecap="butt" stroke-linejoin="miter" fill-opacity="0" stroke-miterlimit="4" stroke="rgb(230,79,155)" stroke-opacity="1" stroke-width="6" d=" M-150,-150 C-150,-150 150,150 150,150"></path></g></g><g transform="matrix(1,0,0,1,212.5,87.5)" opacity="1" style="display: block;"><g opacity="1" transform="matrix(1,0,0,1,0,0)"><path stroke-linecap="butt" stroke-linejoin="miter" fill-opacity="0" stroke-miterlimit="4" stroke="rgb(230,79,155)" stroke-opacity="1" stroke-width="6" d=" M-150,-150 C-150,-150 150,150 150,150"></path></g></g><g transform="matrix(1,0,0,1,200,100)" opacity="1" style="display: block;"><g opacity="1" transform="matrix(1,0,0,1,0,0)"><path stroke-linecap="butt" stroke-linejoin="miter" fill-opacity="0" stroke-miterlimit="4" stroke="rgb(230,79,155)" stroke-opacity="1" stroke-width="6" d=" M-150,-150 C-150,-150 150,150 150,150"></path></g></g><g transform="matrix(1,0,0,1,187.5,112.5)" opacity="1" style="display: block;"><g opacity="1" transform="matrix(1,0,0,1,0,0)"><path stroke-linecap="butt" stroke-linejoin="miter" fill-opacity="0" stroke-miterlimit="4" stroke="rgb(230,79,155)" stroke-opacity="1" stroke-width="6" d=" M-150,-150 C-150,-150 150,150 150,150"></path></g></g><g transform="matrix(1,0,0,1,175,125)" opacity="1" style="display: block;"><g opacity="1" transform="matrix(1,0,0,1,0,0)"><path stroke-linecap="butt" stroke-linejoin="miter" fill-opacity="0" stroke-miterlimit="4" stroke="rgb(230,79,155)" stroke-opacity="1" stroke-width="6" d=" M-150,-150 C-150,-150 150,150 150,150"></path></g></g><g transform="matrix(1,0,0,1,162.5,137.5)" opacity="1" style="display: block;"><g opacity="1" transform="matrix(1,0,0,1,0,0)"><path stroke-linecap="butt" stroke-linejoin="miter" fill-opacity="0" stroke-miterlimit="4" stroke="rgb(230,79,155)" stroke-opacity="1" stroke-width="6" d=" M-150,-150 C-150,-150 150,150 150,150"></path></g></g><g transform="matrix(1,0,0,1,137.5,162.5)" opacity="1" style="display: block;"><g opacity="1" transform="matrix(1,0,0,1,0,0)"><path stroke-linecap="butt" stroke-linejoin="miter" fill-opacity="0" stroke-miterlimit="4" stroke="rgb(230,79,155)" stroke-opacity="1" stroke-width="6" d=" M-150,-150 C-150,-150 150,150 150,150"></path></g></g><g transform="matrix(1,0,0,1,-12.5,312.5)" opacity="1" style="display: block;"><g opacity="1" transform="matrix(1,0,0,1,0,0)"><path stroke-linecap="butt" stroke-linejoin="miter" fill-opacity="0" stroke-miterlimit="4" stroke="rgb(230,79,155)" stroke-opacity="1" stroke-width="6" d=" M-150,-150 C-150,-150 150,150 150,150"></path></g></g><g transform="matrix(1,0,0,1,100,200)" opacity="1" style="display: block;"><g opacity="1" transform="matrix(1,0,0,1,0,0)"><path stroke-linecap="butt" stroke-linejoin="miter" fill-opacity="0" stroke-miterlimit="4" stroke="rgb(230,79,155)" stroke-opacity="1" stroke-width="6" d=" M-150,-150 C-150,-150 150,150 150,150"></path></g></g><g transform="matrix(1,0,0,1,125,175)" opacity="1" style="display: block;"><g opacity="1" transform="matrix(1,0,0,1,0,0)"><path stroke-linecap="butt" stroke-linejoin="miter" fill-opacity="0" stroke-miterlimit="4" stroke="rgb(230,79,155)" stroke-opacity="1" stroke-width="6" d=" M-150,-150 C-150,-150 150,150 150,150"></path></g></g><g transform="matrix(1,0,0,1,112.5,187.5)" opacity="1" style="display: block;"><g opacity="1" transform="matrix(1,0,0,1,0,0)"><path stroke-linecap="butt" stroke-linejoin="miter" fill-opacity="0" stroke-miterlimit="4" stroke="rgb(230,79,155)" stroke-opacity="1" stroke-width="6" d=" M-150,-150 C-150,-150 150,150 150,150"></path></g></g><g transform="matrix(1,0,0,1,87.5,212.5)" opacity="1" style="display: block;"><g opacity="1" transform="matrix(1,0,0,1,0,0)"><path stroke-linecap="butt" stroke-linejoin="miter" fill-opacity="0" stroke-miterlimit="4" stroke="rgb(230,79,155)" stroke-opacity="1" stroke-width="6" d=" M-150,-150 C-150,-150 150,150 150,150"></path></g></g><g transform="matrix(1,0,0,1,75,225)" opacity="1" style="display: block;"><g opacity="1" transform="matrix(1,0,0,1,0,0)"><path stroke-linecap="butt" stroke-linejoin="miter" fill-opacity="0" stroke-miterlimit="4" stroke="rgb(230,79,155)" stroke-opacity="1" stroke-width="6" d=" M-150,-150 C-150,-150 150,150 150,150"></path></g></g><g transform="matrix(1,0,0,1,62.5,237.5)" opacity="1" style="display: block;"><g opacity="1" transform="matrix(1,0,0,1,0,0)"><path stroke-linecap="butt" stroke-linejoin="miter" fill-opacity="0" stroke-miterlimit="4" stroke="rgb(230,79,155)" stroke-opacity="1" stroke-width="6" d=" M-150,-150 C-150,-150 150,150 150,150"></path></g></g><g transform="matrix(1,0,0,1,50,250)" opacity="1" style="display: block;"><g opacity="1" transform="matrix(1,0,0,1,0,0)"><path stroke-linecap="butt" stroke-linejoin="miter" fill-opacity="0" stroke-miterlimit="4" stroke="rgb(230,79,155)" stroke-opacity="1" stroke-width="6" d=" M-150,-150 C-150,-150 150,150 150,150"></path></g></g><g transform="matrix(1,0,0,1,37.5,262.5)" opacity="1" style="display: block;"><g opacity="1" transform="matrix(1,0,0,1,0,0)"><path stroke-linecap="butt" stroke-linejoin="miter" fill-opacity="0" stroke-miterlimit="4" stroke="rgb(230,79,155)" stroke-opacity="1" stroke-width="6" d=" M-150,-150 C-150,-150 150,150 150,150"></path></g></g><g transform="matrix(1,0,0,1,25,275)" opacity="1" style="display: block;"><g opacity="1" transform="matrix(1,0,0,1,0,0)"><path stroke-linecap="butt" stroke-linejoin="miter" fill-opacity="0" stroke-miterlimit="4" stroke="rgb(230,79,155)" stroke-opacity="1" stroke-width="6" d=" M-150,-150 C-150,-150 150,150 150,150"></path></g></g><g transform="matrix(1,0,0,1,12.5,287.5)" opacity="1" style="display: block;"><g opacity="1" transform="matrix(1,0,0,1,0,0)"><path stroke-linecap="butt" stroke-linejoin="miter" fill-opacity="0" stroke-miterlimit="4" stroke="rgb(230,79,155)" stroke-opacity="1" stroke-width="6" d=" M-150,-150 C-150,-150 150,150 150,150"></path></g></g><g transform="matrix(1,0,0,1,0,300)" opacity="1" style="display: block;"><g opacity="1" transform="matrix(1,0,0,1,0,0)"><path stroke-linecap="butt" stroke-linejoin="miter" fill-opacity="0" stroke-miterlimit="4" stroke="rgb(230,79,155)" stroke-opacity="1" stroke-width="6" d=" M-150,-150 C-150,-150 150,150 150,150"></path></g></g></g><g fill="none" stroke-linecap="round" stroke-dashoffset="1" stroke="rgb(20,20,20)" stroke-width="4" opacity="1"><path d=" M227.49600219726562,104.93299865722656 C227.49600219726562,147.83999633789062 192.71299743652344,182.6219940185547 149.80599975585938,182.6219940185547 C106.89900207519531,182.6219940185547 72.11699676513672,147.83999633789062 72.11699676513672,104.93299865722656 C72.11699676513672,62.0260009765625 106.89900207519531,27.243000030517578 149.80599975585938,27.243000030517578 C192.71299743652344,27.243000030517578 227.49600219726562,62.0260009765625 227.49600219726562,104.93299865722656" stroke-dasharray="1 0.6"></path></g></g></g><g transform="matrix(1,0,0,1,250,250)" opacity="1" style="display: block;"><g opacity="1" transform="matrix(1,0,0,1,0,0)"><path fill="rgb(70,155,154)" fill-opacity="1" d=" M32.90700149536133,-22.000999450683594 C25.155000686645508,-12.84000015258789 12.491000175476074,-5.632999897003174 -0.1940000057220459,-5.632999897003174 C-23.214000701904297,-5.632999897003174 -41.77199935913086,-24.190000534057617 -41.77199935913086,-47.209999084472656 C-41.77199935913086,-57.31100082397461 -38.25600051879883,-66.71299743652344 -32.14099884033203,-73.75399780273438 C-24.388999938964844,-82.68000030517578 -13.11400032043457,-88.5530014038086 -0.1940000057220459,-88.5530014038086 C22.826000213623047,-88.5530014038086 41.38399887084961,-69.99500274658203 41.38399887084961,-46.974998474121094 C41.38399887084961,-37.68000030517578 38.17399978637695,-29.003999710083008 32.90700149536133,-22.000999450683594z"></path><path stroke-linecap="butt" stroke-linejoin="miter" fill-opacity="0" stroke-miterlimit="4" stroke="rgb(20,20,20)" stroke-opacity="1" stroke-width="2" d=" M32.90700149536133,-22.000999450683594 C25.155000686645508,-12.84000015258789 12.491000175476074,-5.632999897003174 -0.1940000057220459,-5.632999897003174 C-23.214000701904297,-5.632999897003174 -41.77199935913086,-24.190000534057617 -41.77199935913086,-47.209999084472656 C-41.77199935913086,-57.31100082397461 -38.25600051879883,-66.71299743652344 -32.14099884033203,-73.75399780273438 C-24.388999938964844,-82.68000030517578 -13.11400032043457,-88.5530014038086 -0.1940000057220459,-88.5530014038086 C22.826000213623047,-88.5530014038086 41.38399887084961,-69.99500274658203 41.38399887084961,-46.974998474121094 C41.38399887084961,-37.68000030517578 38.17399978637695,-29.003999710083008 32.90700149536133,-22.000999450683594z"></path></g></g></g></svg>