<svg xmlns="http://www.w3.org/2000/svg" viewBox="0 0 500 500" width="500" height="500" preserveAspectRatio="xMidYMid meet" style="width: 100%; height: 100%; transform: translate3d(0px, 0px, 0px);"><defs><clipPath id="__lottie_element_6559"><rect width="500" height="500" x="0" y="0"></rect></clipPath><clipPath id="__lottie_element_6565"><path d="M0,0 L300,0 L300,300 L0,300z"></path></clipPath><clipPath id="__lottie_element_6566"><path fill="#ffffff" clip-rule="nonzero" d=" M149.7270050048828,-0.5 C101.0199966430664,-0.5 57.749000549316406,22.816999435424805 30.395000457763672,58.926998138427734 C30.395000457763672,58.926998138427734 85.40599822998047,114.67900085449219 85.40599822998047,114.67900085449219 C90.7969970703125,104.67900085449219 98.45600128173828,96.09100341796875 107.69000244140625,89.60399627685547 C117.29399871826172,82.08699798583984 130.90199279785156,75.94100189208984 149.7259979248047,75.94100189208984 C152,75.94100189208984 153.7550048828125,76.20800018310547 155.0449981689453,76.70999908447266 C178.3679962158203,78.55599975585938 198.5850067138672,91.46600341796875 210.48800659179688,110.2020034790039 C210.48800659179688,110.2020034790039 171.54800415039062,149.2550048828125 171.54800415039062,149.2550048828125 C220.8699951171875,149.06100463867188 276.5889892578125,148.94700622558594 299.4960021972656,149.27999877929688 C299.4960021972656,149.27999877929688 299.34698486328125,21.097999572753906 299.34698486328125,21.097999572753906 C299.34698486328125,21.097999572753906 265.7850036621094,54.75699996948242 265.7850036621094,54.75699996948242 C238.31700134277344,21.03700065612793 196.531005859375,-0.5 149.7270050048828,-0.5" fill-opacity="1"></path></clipPath></defs><g clip-path="url(#__lottie_element_6559)"><g transform="matrix(1,0,0,1,250,251)" opacity="1" style="display: block;"><g opacity="1" transform="matrix(1,0,0,1,0,0)"><path fill="rgb(230,79,155)" fill-opacity="1" d=" M149.5,-0.7110000252723694 C149.4929962158203,-2.86899995803833 149.4429931640625,-5.013999938964844 149.3470001220703,-7.150000095367432 C149.3470001220703,-7.150000095367432 149.3470001220703,-128.90199279785156 149.3470001220703,-128.90199279785156 C149.3470001220703,-128.90199279785156 115.78500366210938,-95.24299621582031 115.78500366210938,-95.24299621582031 C88.31700134277344,-128.96299743652344 46.53099822998047,-150.5 -0.27300000190734863,-150.5 C-48.97999954223633,-150.5 -92.2509994506836,-127.18299865722656 -119.6050033569336,-91.072998046875 C-119.6050033569336,-91.072998046875 -64.59400177001953,-35.32099914550781 -64.59400177001953,-35.32099914550781 C-59.202999114990234,-45.32099914550781 -51.54399871826172,-53.909000396728516 -42.310001373291016,-60.395999908447266 C-32.70600128173828,-67.91300201416016 -19.097999572753906,-74.05899810791016 -0.27399998903274536,-74.05899810791016 C2,-74.05899810791016 3.755000114440918,-73.79199981689453 5.045000076293945,-73.29000091552734 C28.368000030517578,-71.44400024414062 48.584999084472656,-58.534000396728516 60.487998962402344,-39.79800033569336 C60.487998962402344,-39.79800033569336 21.54800033569336,-0.7450000047683716 21.54800033569336,-0.7450000047683716 C70.87000274658203,-0.9390000104904175 126.58899688720703,-1.0529999732971191 149.49600219726562,-0.7200000286102295"></path><path stroke-linecap="butt" stroke-linejoin="miter" fill-opacity="0" stroke-miterlimit="4" stroke="rgb(19,19,19)" stroke-opacity="1" stroke-width="2" d=" M149.5,-0.7110000252723694 C149.4929962158203,-2.86899995803833 149.4429931640625,-5.013999938964844 149.3470001220703,-7.150000095367432 C149.3470001220703,-7.150000095367432 149.3470001220703,-128.90199279785156 149.3470001220703,-128.90199279785156 C149.3470001220703,-128.90199279785156 115.78500366210938,-95.24299621582031 115.78500366210938,-95.24299621582031 C88.31700134277344,-128.96299743652344 46.53099822998047,-150.5 -0.27300000190734863,-150.5 C-48.97999954223633,-150.5 -92.2509994506836,-127.18299865722656 -119.6050033569336,-91.072998046875 C-119.6050033569336,-91.072998046875 -64.59400177001953,-35.32099914550781 -64.59400177001953,-35.32099914550781 C-59.202999114990234,-45.32099914550781 -51.54399871826172,-53.909000396728516 -42.310001373291016,-60.395999908447266 C-32.70600128173828,-67.91300201416016 -19.097999572753906,-74.05899810791016 -0.27399998903274536,-74.05899810791016 C2,-74.05899810791016 3.755000114440918,-73.79199981689453 5.045000076293945,-73.29000091552734 C28.368000030517578,-71.44400024414062 48.584999084472656,-58.534000396728516 60.487998962402344,-39.79800033569336 C60.487998962402344,-39.79800033569336 21.54800033569336,-0.7450000047683716 21.54800033569336,-0.7450000047683716 C70.87000274658203,-0.9390000104904175 126.58899688720703,-1.0529999732971191 149.49600219726562,-0.7200000286102295"></path></g></g><g clip-path="url(#__lottie_element_6565)" transform="matrix(0,-1,1,0,100,400)" opacity="1" style="display: block;"><g clip-path="url(#__lottie_element_6566)"><g transform="matrix(1,0,0,1,0,0)" opacity="1" style="display: block;"><rect width="300" height="300" fill="#469b9a"></rect></g><g transform="matrix(1,0,0,1,150,150)" opacity="1" style="display: block;"></g><g transform="matrix(1,0,0,1,300,0)" opacity="1" style="display: block;"><g opacity="1" transform="matrix(1,0,0,1,0,0)"><path stroke-linecap="butt" stroke-linejoin="miter" fill-opacity="0" stroke-miterlimit="4" stroke="rgb(249,214,72)" stroke-opacity="1" stroke-width="6" d=" M-150,-150 C-150,-150 150,150 150,150"></path></g></g><g transform="matrix(1,0,0,1,150,150)" opacity="1" style="display: block;"><g opacity="1" transform="matrix(1,0,0,1,0,0)"><path stroke-linecap="butt" stroke-linejoin="miter" fill-opacity="0" stroke-miterlimit="4" stroke="rgb(249,214,72)" stroke-opacity="1" stroke-width="6" d=" M-150,-150 C-150,-150 150,150 150,150"></path></g></g><g transform="matrix(1,0,0,1,262.5,37.5)" opacity="1" style="display: block;"><g opacity="1" transform="matrix(1,0,0,1,0,0)"><path stroke-linecap="butt" stroke-linejoin="miter" fill-opacity="0" stroke-miterlimit="4" stroke="rgb(249,214,72)" stroke-opacity="1" stroke-width="6" d=" M-150,-150 C-150,-150 150,150 150,150"></path></g></g><g transform="matrix(1,0,0,1,287.5,12.5)" opacity="1" style="display: block;"><g opacity="1" transform="matrix(1,0,0,1,0,0)"><path stroke-linecap="butt" stroke-linejoin="miter" fill-opacity="0" stroke-miterlimit="4" stroke="rgb(249,214,72)" stroke-opacity="1" stroke-width="6" d=" M-150,-150 C-150,-150 150,150 150,150"></path></g></g><g transform="matrix(1,0,0,1,275,25)" opacity="1" style="display: block;"><g opacity="1" transform="matrix(1,0,0,1,0,0)"><path stroke-linecap="butt" stroke-linejoin="miter" fill-opacity="0" stroke-miterlimit="4" stroke="rgb(249,214,72)" stroke-opacity="1" stroke-width="6" d=" M-150,-150 C-150,-150 150,150 150,150"></path></g></g><g transform="matrix(1,0,0,1,250,50)" opacity="1" style="display: block;"><g opacity="1" transform="matrix(1,0,0,1,0,0)"><path stroke-linecap="butt" stroke-linejoin="miter" fill-opacity="0" stroke-miterlimit="4" stroke="rgb(249,214,72)" stroke-opacity="1" stroke-width="6" d=" M-150,-150 C-150,-150 150,150 150,150"></path></g></g><g transform="matrix(1,0,0,1,237.5,62.5)" opacity="1" style="display: block;"><g opacity="1" transform="matrix(1,0,0,1,0,0)"><path stroke-linecap="butt" stroke-linejoin="miter" fill-opacity="0" stroke-miterlimit="4" stroke="rgb(249,214,72)" stroke-opacity="1" stroke-width="6" d=" M-150,-150 C-150,-150 150,150 150,150"></path></g></g><g transform="matrix(1,0,0,1,225,75)" opacity="1" style="display: block;"><g opacity="1" transform="matrix(1,0,0,1,0,0)"><path stroke-linecap="butt" stroke-linejoin="miter" fill-opacity="0" stroke-miterlimit="4" stroke="rgb(249,214,72)" stroke-opacity="1" stroke-width="6" d=" M-150,-150 C-150,-150 150,150 150,150"></path></g></g><g transform="matrix(1,0,0,1,212.5,87.5)" opacity="1" style="display: block;"><g opacity="1" transform="matrix(1,0,0,1,0,0)"><path stroke-linecap="butt" stroke-linejoin="miter" fill-opacity="0" stroke-miterlimit="4" stroke="rgb(249,214,72)" stroke-opacity="1" stroke-width="6" d=" M-150,-150 C-150,-150 150,150 150,150"></path></g></g><g transform="matrix(1,0,0,1,200,100)" opacity="1" style="display: block;"><g opacity="1" transform="matrix(1,0,0,1,0,0)"><path stroke-linecap="butt" stroke-linejoin="miter" fill-opacity="0" stroke-miterlimit="4" stroke="rgb(249,214,72)" stroke-opacity="1" stroke-width="6" d=" M-150,-150 C-150,-150 150,150 150,150"></path></g></g><g transform="matrix(1,0,0,1,187.5,112.5)" opacity="1" style="display: block;"><g opacity="1" transform="matrix(1,0,0,1,0,0)"><path stroke-linecap="butt" stroke-linejoin="miter" fill-opacity="0" stroke-miterlimit="4" stroke="rgb(249,214,72)" stroke-opacity="1" stroke-width="6" d=" M-150,-150 C-150,-150 150,150 150,150"></path></g></g><g transform="matrix(1,0,0,1,175,125)" opacity="1" style="display: block;"><g opacity="1" transform="matrix(1,0,0,1,0,0)"><path stroke-linecap="butt" stroke-linejoin="miter" fill-opacity="0" stroke-miterlimit="4" stroke="rgb(249,214,72)" stroke-opacity="1" stroke-width="6" d=" M-150,-150 C-150,-150 150,150 150,150"></path></g></g><g transform="matrix(1,0,0,1,162.5,137.5)" opacity="1" style="display: block;"><g opacity="1" transform="matrix(1,0,0,1,0,0)"><path stroke-linecap="butt" stroke-linejoin="miter" fill-opacity="0" stroke-miterlimit="4" stroke="rgb(249,214,72)" stroke-opacity="1" stroke-width="6" d=" M-150,-150 C-150,-150 150,150 150,150"></path></g></g><g transform="matrix(1,0,0,1,137.5,162.5)" opacity="1" style="display: block;"><g opacity="1" transform="matrix(1,0,0,1,0,0)"><path stroke-linecap="butt" stroke-linejoin="miter" fill-opacity="0" stroke-miterlimit="4" stroke="rgb(249,214,72)" stroke-opacity="1" stroke-width="6" d=" M-150,-150 C-150,-150 150,150 150,150"></path></g></g><g transform="matrix(1,0,0,1,-12.5,312.5)" opacity="1" style="display: block;"><g opacity="1" transform="matrix(1,0,0,1,0,0)"><path stroke-linecap="butt" stroke-linejoin="miter" fill-opacity="0" stroke-miterlimit="4" stroke="rgb(249,214,72)" stroke-opacity="1" stroke-width="6" d=" M-150,-150 C-150,-150 150,150 150,150"></path></g></g><g transform="matrix(1,0,0,1,100,200)" opacity="1" style="display: block;"><g opacity="1" transform="matrix(1,0,0,1,0,0)"><path stroke-linecap="butt" stroke-linejoin="miter" fill-opacity="0" stroke-miterlimit="4" stroke="rgb(249,214,72)" stroke-opacity="1" stroke-width="6" d=" M-150,-150 C-150,-150 150,150 150,150"></path></g></g><g transform="matrix(1,0,0,1,125,175)" opacity="1" style="display: block;"><g opacity="1" transform="matrix(1,0,0,1,0,0)"><path stroke-linecap="butt" stroke-linejoin="miter" fill-opacity="0" stroke-miterlimit="4" stroke="rgb(249,214,72)" stroke-opacity="1" stroke-width="6" d=" M-150,-150 C-150,-150 150,150 150,150"></path></g></g><g transform="matrix(1,0,0,1,112.5,187.5)" opacity="1" style="display: block;"><g opacity="1" transform="matrix(1,0,0,1,0,0)"><path stroke-linecap="butt" stroke-linejoin="miter" fill-opacity="0" stroke-miterlimit="4" stroke="rgb(249,214,72)" stroke-opacity="1" stroke-width="6" d=" M-150,-150 C-150,-150 150,150 150,150"></path></g></g><g transform="matrix(1,0,0,1,87.5,212.5)" opacity="1" style="display: block;"><g opacity="1" transform="matrix(1,0,0,1,0,0)"><path stroke-linecap="butt" stroke-linejoin="miter" fill-opacity="0" stroke-miterlimit="4" stroke="rgb(249,214,72)" stroke-opacity="1" stroke-width="6" d=" M-150,-150 C-150,-150 150,150 150,150"></path></g></g><g transform="matrix(1,0,0,1,75,225)" opacity="1" style="display: block;"><g opacity="1" transform="matrix(1,0,0,1,0,0)"><path stroke-linecap="butt" stroke-linejoin="miter" fill-opacity="0" stroke-miterlimit="4" stroke="rgb(249,214,72)" stroke-opacity="1" stroke-width="6" d=" M-150,-150 C-150,-150 150,150 150,150"></path></g></g><g transform="matrix(1,0,0,1,62.5,237.5)" opacity="1" style="display: block;"><g opacity="1" transform="matrix(1,0,0,1,0,0)"><path stroke-linecap="butt" stroke-linejoin="miter" fill-opacity="0" stroke-miterlimit="4" stroke="rgb(249,214,72)" stroke-opacity="1" stroke-width="6" d=" M-150,-150 C-150,-150 150,150 150,150"></path></g></g><g transform="matrix(1,0,0,1,50,250)" opacity="1" style="display: block;"><g opacity="1" transform="matrix(1,0,0,1,0,0)"><path stroke-linecap="butt" stroke-linejoin="miter" fill-opacity="0" stroke-miterlimit="4" stroke="rgb(249,214,72)" stroke-opacity="1" stroke-width="6" d=" M-150,-150 C-150,-150 150,150 150,150"></path></g></g><g transform="matrix(1,0,0,1,37.5,262.5)" opacity="1" style="display: block;"><g opacity="1" transform="matrix(1,0,0,1,0,0)"><path stroke-linecap="butt" stroke-linejoin="miter" fill-opacity="0" stroke-miterlimit="4" stroke="rgb(249,214,72)" stroke-opacity="1" stroke-width="6" d=" M-150,-150 C-150,-150 150,150 150,150"></path></g></g><g transform="matrix(1,0,0,1,25,275)" opacity="1" style="display: block;"><g opacity="1" transform="matrix(1,0,0,1,0,0)"><path stroke-linecap="butt" stroke-linejoin="miter" fill-opacity="0" stroke-miterlimit="4" stroke="rgb(249,214,72)" stroke-opacity="1" stroke-width="6" d=" M-150,-150 C-150,-150 150,150 150,150"></path></g></g><g transform="matrix(1,0,0,1,12.5,287.5)" opacity="1" style="display: block;"><g opacity="1" transform="matrix(1,0,0,1,0,0)"><path stroke-linecap="butt" stroke-linejoin="miter" fill-opacity="0" stroke-miterlimit="4" stroke="rgb(249,214,72)" stroke-opacity="1" stroke-width="6" d=" M-150,-150 C-150,-150 150,150 150,150"></path></g></g><g transform="matrix(1,0,0,1,0,300)" opacity="1" style="display: block;"><g opacity="1" transform="matrix(1,0,0,1,0,0)"><path stroke-linecap="butt" stroke-linejoin="miter" fill-opacity="0" stroke-miterlimit="4" stroke="rgb(249,214,72)" stroke-opacity="1" stroke-width="6" d=" M-150,-150 C-150,-150 150,150 150,150"></path></g></g><g fill="none" stroke-linecap="round" stroke-dashoffset="1" stroke="rgb(20,20,20)" stroke-width="4" opacity="1"><path d=" M149.7270050048828,-0.5 C101.0199966430664,-0.5 57.749000549316406,22.816999435424805 30.395000457763672,58.926998138427734 C30.395000457763672,58.926998138427734 85.40599822998047,114.67900085449219 85.40599822998047,114.67900085449219 C90.7969970703125,104.67900085449219 98.45600128173828,96.09100341796875 107.69000244140625,89.60399627685547 C117.29399871826172,82.08699798583984 130.90199279785156,75.94100189208984 149.7259979248047,75.94100189208984 C152,75.94100189208984 153.7550048828125,76.20800018310547 155.0449981689453,76.70999908447266 C178.3679962158203,78.55599975585938 198.5850067138672,91.46600341796875 210.48800659179688,110.2020034790039 C210.48800659179688,110.2020034790039 171.54800415039062,149.2550048828125 171.54800415039062,149.2550048828125 C220.8699951171875,149.06100463867188 276.5889892578125,148.94700622558594 299.4960021972656,149.27999877929688 C299.4960021972656,149.27999877929688 299.34698486328125,21.097999572753906 299.34698486328125,21.097999572753906 C299.34698486328125,21.097999572753906 265.7850036621094,54.75699996948242 265.7850036621094,54.75699996948242 C238.31700134277344,21.03700065612793 196.531005859375,-0.5 149.7270050048828,-0.5" stroke-dasharray="1 0.6"></path></g></g></g><g transform="matrix(-1,0,0,-1,250,250)" opacity="1" style="display: block;"><g opacity="1" transform="matrix(1,0,0,1,0,0)"><path fill="rgb(243,216,152)" fill-opacity="1" d=" M149.5,-0.7110000252723694 C149.4929962158203,-2.86899995803833 149.4429931640625,-5.013999938964844 149.3470001220703,-7.150000095367432 C149.3470001220703,-7.150000095367432 149.3470001220703,-128.90199279785156 149.3470001220703,-128.90199279785156 C149.3470001220703,-128.90199279785156 115.78500366210938,-95.24299621582031 115.78500366210938,-95.24299621582031 C88.31700134277344,-128.96299743652344 46.53099822998047,-150.5 -0.27300000190734863,-150.5 C-48.97999954223633,-150.5 -92.2509994506836,-127.18299865722656 -119.6050033569336,-91.072998046875 C-119.6050033569336,-91.072998046875 -64.59400177001953,-35.32099914550781 -64.59400177001953,-35.32099914550781 C-59.202999114990234,-45.32099914550781 -51.54399871826172,-53.909000396728516 -42.310001373291016,-60.395999908447266 C-32.70600128173828,-67.91300201416016 -19.097999572753906,-74.05899810791016 -0.27399998903274536,-74.05899810791016 C2,-74.05899810791016 3.755000114440918,-73.79199981689453 5.045000076293945,-73.29000091552734 C28.368000030517578,-71.44400024414062 48.584999084472656,-58.534000396728516 60.487998962402344,-39.79800033569336 C60.487998962402344,-39.79800033569336 21.54800033569336,-0.7450000047683716 21.54800033569336,-0.7450000047683716 C70.87000274658203,-0.9390000104904175 126.58899688720703,-1.0529999732971191 149.49600219726562,-0.7200000286102295"></path><path stroke-linecap="butt" stroke-linejoin="miter" fill-opacity="0" stroke-miterlimit="4" stroke="rgb(19,19,19)" stroke-opacity="1" stroke-width="2" d=" M149.5,-0.7110000252723694 C149.4929962158203,-2.86899995803833 149.4429931640625,-5.013999938964844 149.3470001220703,-7.150000095367432 C149.3470001220703,-7.150000095367432 149.3470001220703,-128.90199279785156 149.3470001220703,-128.90199279785156 C149.3470001220703,-128.90199279785156 115.78500366210938,-95.24299621582031 115.78500366210938,-95.24299621582031 C88.31700134277344,-128.96299743652344 46.53099822998047,-150.5 -0.27300000190734863,-150.5 C-48.97999954223633,-150.5 -92.2509994506836,-127.18299865722656 -119.6050033569336,-91.072998046875 C-119.6050033569336,-91.072998046875 -64.59400177001953,-35.32099914550781 -64.59400177001953,-35.32099914550781 C-59.202999114990234,-45.32099914550781 -51.54399871826172,-53.909000396728516 -42.310001373291016,-60.395999908447266 C-32.70600128173828,-67.91300201416016 -19.097999572753906,-74.05899810791016 -0.27399998903274536,-74.05899810791016 C2,-74.05899810791016 3.755000114440918,-73.79199981689453 5.045000076293945,-73.29000091552734 C28.368000030517578,-71.44400024414062 48.584999084472656,-58.534000396728516 60.487998962402344,-39.79800033569336 C60.487998962402344,-39.79800033569336 21.54800033569336,-0.7450000047683716 21.54800033569336,-0.7450000047683716 C70.87000274658203,-0.9390000104904175 126.58899688720703,-1.0529999732971191 149.49600219726562,-0.7200000286102295"></path></g></g><g transform="matrix(1,0,0,1,250,251.5)" opacity="1" style="display: block;"><g opacity="1" transform="matrix(1,0,0,1,0,0)"><path fill="rgb(230,79,155)" fill-opacity="1" d=" M60.487998962402344,-39.79800033569336 C60.487998962402344,-39.79800033569336 21.54800033569336,-0.7450000047683716 21.54800033569336,-0.7450000047683716 C70.87000274658203,-0.9390000104904175 126.58899688720703,-1.0529999732971191 149.49600219726562,-0.7200000286102295 C149.49600219726562,-0.7200000286102295 149.5,-0.7110000252723694 149.5,-0.7110000252723694 C149.4929962158203,-2.86899995803833 149.4429931640625,-5.013999938964844 149.3470001220703,-7.150000095367432 C149.3470001220703,-7.150000095367432 149.3470001220703,-128.90199279785156 149.3470001220703,-128.90199279785156 C149.3470001220703,-128.90199279785156 115.78500366210938,-95.24299621582031 115.78500366210938,-95.24299621582031"></path><path stroke-linecap="butt" stroke-linejoin="miter" fill-opacity="0" stroke-miterlimit="4" stroke="rgb(19,19,19)" stroke-opacity="1" stroke-width="2" d=" M60.487998962402344,-39.79800033569336 C60.487998962402344,-39.79800033569336 21.54800033569336,-0.7450000047683716 21.54800033569336,-0.7450000047683716 C70.87000274658203,-0.9390000104904175 126.58899688720703,-1.0529999732971191 149.49600219726562,-0.7200000286102295 C149.49600219726562,-0.7200000286102295 149.5,-0.7110000252723694 149.5,-0.7110000252723694 C149.4929962158203,-2.86899995803833 149.4429931640625,-5.013999938964844 149.3470001220703,-7.150000095367432 C149.3470001220703,-7.150000095367432 149.3470001220703,-128.90199279785156 149.3470001220703,-128.90199279785156 C149.3470001220703,-128.90199279785156 115.78500366210938,-95.24299621582031 115.78500366210938,-95.24299621582031"></path></g></g></g></svg>