<svg xmlns="http://www.w3.org/2000/svg" viewBox="0 0 500 500" width="500" height="500" preserveAspectRatio="xMidYMid meet" style="width: 100%; height: 100%; transform: translate3d(0px, 0px, 0px);"><defs><clipPath id="__lottie_element_6659"><rect width="500" height="500" x="0" y="0"></rect></clipPath><clipPath id="__lottie_element_6664"><path d="M0,0 L500,0 L500,500 L0,500z"></path></clipPath><clipPath id="__lottie_element_6665"><path fill="#ffffff" clip-rule="nonzero" d=" M250,44.310001373291016 C134.1909942626953,44.310001373291016 40.310001373291016,138.1909942626953 40.310001373291016,254 C40.310001373291016,369.8089904785156 134.1909942626953,463.69000244140625 250,463.69000244140625 C365.8089904785156,463.69000244140625 459.69000244140625,369.8089904785156 459.69000244140625,254 C459.69000244140625,138.1909942626953 365.8089904785156,44.310001373291016 250,44.310001373291016" fill-opacity="1"></path></clipPath><mask id="__lottie_element_6668"><rect fill="#ffffff" width="500" height="500" transform="matrix(1,0,0,1,-238.85299682617188,-260.1470031738281)"></rect><path fill="#000000" clip-rule="nonzero" d=" M-36.667999267578125,-58.57099914550781 C-10.092000007629395,-85.14700317382812 32.994998931884766,-85.14700317382812 59.57099914550781,-58.57099914550781 C86.14700317382812,-31.9950008392334 86.14700317382812,11.092000007629395 59.57099914550781,37.667999267578125 C32.994998931884766,64.24400329589844 -10.092000007629395,64.24400329589844 -36.667999267578125,37.667999267578125 C-63.24399948120117,11.092000007629395 -63.24399948120117,-31.9950008392334 -36.667999267578125,-58.57099914550781" fill-opacity="1"></path></mask><clipPath id="__lottie_element_6677"><path d="M0,0 L500,0 L500,500 L0,500z"></path></clipPath><clipPath id="__lottie_element_6684"><path d="M0,0 L250,0 L250,250 L0,250z"></path></clipPath><clipPath id="__lottie_element_6688"><path d="M0,0 L250,0 L250,250 L0,250z"></path></clipPath><clipPath id="__lottie_element_6692"><path d="M0,0 L250,0 L250,250 L0,250z"></path></clipPath><clipPath id="__lottie_element_6696"><path d="M0,0 L250,0 L250,250 L0,250z"></path></clipPath><clipPath id="__lottie_element_6700"><path d="M0,0 L250,0 L250,250 L0,250z"></path></clipPath><clipPath id="__lottie_element_6704"><path d="M0,0 L250,0 L250,250 L0,250z"></path></clipPath><clipPath id="__lottie_element_6708"><path d="M0,0 L250,0 L250,250 L0,250z"></path></clipPath><clipPath id="__lottie_element_6712"><path d="M0,0 L250,0 L250,250 L0,250z"></path></clipPath><clipPath id="__lottie_element_6716"><path d="M0,0 L250,0 L250,250 L0,250z"></path></clipPath><clipPath id="__lottie_element_6720"><path d="M0,0 L250,0 L250,250 L0,250z"></path></clipPath></defs><g clip-path="url(#__lottie_element_6659)"><g transform="matrix(1,0,0,1,249.76699829101562,288.50201416015625)" opacity="1" style="display: block;"><g opacity="1" transform="matrix(1,0,0,1,0,0)"><path fill="rgb(70,155,154)" fill-opacity="1" d=" M150.23300170898438,-188.5019989013672 C150.23300170898438,-188.5019989013672 -148.90499877929688,-188.5019989013672 -148.90499877929688,-188.5019989013672 C-148.90499877929688,-188.5019989013672 -149.76699829101562,111.49800109863281 -149.76699829101562,111.49800109863281 C-149.76699829101562,111.49800109863281 150.23300170898438,111.49800109863281 150.23300170898438,111.49800109863281 C150.23300170898438,111.49800109863281 150.23300170898438,-188.5019989013672 150.23300170898438,-188.5019989013672z"></path><path stroke-linecap="butt" stroke-linejoin="miter" fill-opacity="0" stroke-miterlimit="4" stroke="rgb(20,20,20)" stroke-opacity="1" stroke-width="2" d=" M150.23300170898438,-188.5019989013672 C150.23300170898438,-188.5019989013672 -148.90499877929688,-188.5019989013672 -148.90499877929688,-188.5019989013672 C-148.90499877929688,-188.5019989013672 -149.76699829101562,111.49800109863281 -149.76699829101562,111.49800109863281 C-149.76699829101562,111.49800109863281 150.23300170898438,111.49800109863281 150.23300170898438,111.49800109863281 C150.23300170898438,111.49800109863281 150.23300170898438,-188.5019989013672 150.23300170898438,-188.5019989013672z"></path></g></g><g clip-path="url(#__lottie_element_6664)" transform="matrix(0.5,0,0,0.5,125,123)" opacity="1" style="display: block;"><g clip-path="url(#__lottie_element_6665)"><g clip-path="url(#__lottie_element_6677)" transform="matrix(1.5,0,0,1.5,-125,-125)" opacity="1" style="display: block;"><g transform="matrix(1,0,0,1,0,0)" opacity="1" style="display: block;"><rect width="500" height="500" fill="#f9d648"></rect></g><g clip-path="url(#__lottie_element_6684)" transform="matrix(0.5,0,0,0.5,0,250)" opacity="1" style="display: block;"><g transform="matrix(-1.25,0,0,-1.25,143.1374969482422,131.38250732421875)" opacity="1" style="display: block;"><g opacity="1" transform="matrix(1,0,0,1,0.10999999940395355,0.10599999874830246)"><path stroke-linecap="butt" stroke-linejoin="miter" fill-opacity="0" stroke-miterlimit="4" stroke="rgb(24,115,232)" stroke-opacity="1" stroke-width="12" d=" M-53.599998474121094,-47 C-53.599998474121094,-47 -53.599998474121094,-67 -33.599998474121094,-67 C-13.600000381469727,-67 -13.600000381469727,-47 -13.600000381469727,-47 C-13.600000381469727,-47 -13.600000381469727,-27 6.400000095367432,-27 C26.399999618530273,-27 26.399999618530273,-47 26.399999618530273,-47"></path></g></g><g transform="matrix(1.25,0,0,1.25,88.75,126.25)" opacity="1" style="display: block;"><g opacity="1" transform="matrix(1,0,0,1,0,0)"><path stroke-linecap="butt" stroke-linejoin="miter" fill-opacity="0" stroke-miterlimit="4" stroke="rgb(24,115,232)" stroke-opacity="1" stroke-width="12" d=" M-55,-45 C-55,-45 -55,-65 -35,-65 C-15,-65 -15,-45 -15,-45 C-15,-45 -15,-25 5,-25 C25,-25 25,-45 25,-45"></path></g></g></g><g clip-path="url(#__lottie_element_6688)" transform="matrix(0.5,0,0,0.5,187.5,125)" opacity="1" style="display: block;"><g transform="matrix(1.25,0,0,1.25,176.8625030517578,248.61749267578125)" opacity="1" style="display: block;"><g opacity="1" transform="matrix(1,0,0,1,0.10999999940395355,0.10599999874830246)"><path stroke-linecap="butt" stroke-linejoin="miter" fill-opacity="0" stroke-miterlimit="4" stroke="rgb(24,115,232)" stroke-opacity="1" stroke-width="12" d=" M-53.599998474121094,-47 C-53.599998474121094,-47 -53.599998474121094,-67 -33.599998474121094,-67 C-13.600000381469727,-67 -13.600000381469727,-47 -13.600000381469727,-47 C-13.600000381469727,-47 -13.600000381469727,-27 6.400000095367432,-27 C26.399999618530273,-27 26.399999618530273,-47 26.399999618530273,-47"></path></g></g><g transform="matrix(1.25,0,0,1.25,88.75,126.25)" opacity="1" style="display: block;"><g opacity="1" transform="matrix(1,0,0,1,0,0)"><path stroke-linecap="butt" stroke-linejoin="miter" fill-opacity="0" stroke-miterlimit="4" stroke="rgb(24,115,232)" stroke-opacity="1" stroke-width="12" d=" M-55,-45 C-55,-45 -55,-65 -35,-65 C-15,-65 -15,-45 -15,-45 C-15,-45 -15,-25 5,-25 C25,-25 25,-45 25,-45"></path></g></g></g><g clip-path="url(#__lottie_element_6692)" transform="matrix(0.5,0,0,0.5,187.5,250)" opacity="1" style="display: block;"><g transform="matrix(-1.25,0,0,-1.25,143.1374969482422,131.38250732421875)" opacity="1" style="display: block;"><g opacity="1" transform="matrix(1,0,0,1,0.10999999940395355,0.10599999874830246)"><path stroke-linecap="butt" stroke-linejoin="miter" fill-opacity="0" stroke-miterlimit="4" stroke="rgb(24,115,232)" stroke-opacity="1" stroke-width="12" d=" M-53.599998474121094,-47 C-53.599998474121094,-47 -53.599998474121094,-67 -33.599998474121094,-67 C-13.600000381469727,-67 -13.600000381469727,-47 -13.600000381469727,-47 C-13.600000381469727,-47 -13.600000381469727,-27 6.400000095367432,-27 C26.399999618530273,-27 26.399999618530273,-47 26.399999618530273,-47"></path></g></g><g transform="matrix(1.25,0,0,1.25,88.75,126.25)" opacity="1" style="display: block;"><g opacity="1" transform="matrix(1,0,0,1,0,0)"><path stroke-linecap="butt" stroke-linejoin="miter" fill-opacity="0" stroke-miterlimit="4" stroke="rgb(24,115,232)" stroke-opacity="1" stroke-width="12" d=" M-55,-45 C-55,-45 -55,-65 -35,-65 C-15,-65 -15,-45 -15,-45 C-15,-45 -15,-25 5,-25 C25,-25 25,-45 25,-45"></path></g></g></g><g clip-path="url(#__lottie_element_6696)" transform="matrix(0.5,0,0,0.5,93.75,125)" opacity="1" style="display: block;"><g transform="matrix(-1.25,0,0,-1.25,143.1374969482422,131.38250732421875)" opacity="1" style="display: block;"><g opacity="1" transform="matrix(1,0,0,1,0.10999999940395355,0.10599999874830246)"><path stroke-linecap="butt" stroke-linejoin="miter" fill-opacity="0" stroke-miterlimit="4" stroke="rgb(24,115,232)" stroke-opacity="1" stroke-width="12" d=" M-53.599998474121094,-47 C-53.599998474121094,-47 -53.599998474121094,-67 -33.599998474121094,-67 C-13.600000381469727,-67 -13.600000381469727,-47 -13.600000381469727,-47 C-13.600000381469727,-47 -13.600000381469727,-27 6.400000095367432,-27 C26.399999618530273,-27 26.399999618530273,-47 26.399999618530273,-47"></path></g></g><g transform="matrix(1.25,0,0,1.25,88.75,126.25)" opacity="1" style="display: block;"><g opacity="1" transform="matrix(1,0,0,1,0,0)"><path stroke-linecap="butt" stroke-linejoin="miter" fill-opacity="0" stroke-miterlimit="4" stroke="rgb(24,115,232)" stroke-opacity="1" stroke-width="12" d=" M-55,-45 C-55,-45 -55,-65 -35,-65 C-15,-65 -15,-45 -15,-45 C-15,-45 -15,-25 5,-25 C25,-25 25,-45 25,-45"></path></g></g></g><g clip-path="url(#__lottie_element_6700)" transform="matrix(0.5,0,0,0.5,93.75,250)" opacity="1" style="display: block;"><g transform="matrix(1.25,0,0,1.25,176.8625030517578,248.61749267578125)" opacity="1" style="display: block;"><g opacity="1" transform="matrix(1,0,0,1,0.10999999940395355,0.10599999874830246)"><path stroke-linecap="butt" stroke-linejoin="miter" fill-opacity="0" stroke-miterlimit="4" stroke="rgb(24,115,232)" stroke-opacity="1" stroke-width="12" d=" M-53.599998474121094,-47 C-53.599998474121094,-47 -53.599998474121094,-67 -33.599998474121094,-67 C-13.600000381469727,-67 -13.600000381469727,-47 -13.600000381469727,-47 C-13.600000381469727,-47 -13.600000381469727,-27 6.400000095367432,-27 C26.399999618530273,-27 26.399999618530273,-47 26.399999618530273,-47"></path></g></g><g transform="matrix(1.25,0,0,1.25,88.75,126.25)" opacity="1" style="display: block;"><g opacity="1" transform="matrix(1,0,0,1,0,0)"><path stroke-linecap="butt" stroke-linejoin="miter" fill-opacity="0" stroke-miterlimit="4" stroke="rgb(24,115,232)" stroke-opacity="1" stroke-width="12" d=" M-55,-45 C-55,-45 -55,-65 -35,-65 C-15,-65 -15,-45 -15,-45 C-15,-45 -15,-25 5,-25 C25,-25 25,-45 25,-45"></path></g></g></g><g clip-path="url(#__lottie_element_6704)" transform="matrix(0.5,0,0,0.5,93.75,375)" opacity="1" style="display: block;"><g transform="matrix(-1.25,0,0,-1.25,143.1374969482422,131.38250732421875)" opacity="1" style="display: block;"><g opacity="1" transform="matrix(1,0,0,1,0.10999999940395355,0.10599999874830246)"><path stroke-linecap="butt" stroke-linejoin="miter" fill-opacity="0" stroke-miterlimit="4" stroke="rgb(24,115,232)" stroke-opacity="1" stroke-width="12" d=" M-53.599998474121094,-47 C-53.599998474121094,-47 -53.599998474121094,-67 -33.599998474121094,-67 C-13.600000381469727,-67 -13.600000381469727,-47 -13.600000381469727,-47 C-13.600000381469727,-47 -13.600000381469727,-27 6.400000095367432,-27 C26.399999618530273,-27 26.399999618530273,-47 26.399999618530273,-47"></path></g></g><g transform="matrix(1.25,0,0,1.25,88.75,126.25)" opacity="1" style="display: block;"><g opacity="1" transform="matrix(1,0,0,1,0,0)"><path stroke-linecap="butt" stroke-linejoin="miter" fill-opacity="0" stroke-miterlimit="4" stroke="rgb(24,115,232)" stroke-opacity="1" stroke-width="12" d=" M-55,-45 C-55,-45 -55,-65 -35,-65 C-15,-65 -15,-45 -15,-45 C-15,-45 -15,-25 5,-25 C25,-25 25,-45 25,-45"></path></g></g></g><g clip-path="url(#__lottie_element_6708)" transform="matrix(0.5,0,0,0.5,375,125)" opacity="1" style="display: block;"><g transform="matrix(1.25,0,0,1.25,176.8625030517578,248.61749267578125)" opacity="1" style="display: block;"><g opacity="1" transform="matrix(1,0,0,1,0.10999999940395355,0.10599999874830246)"><path stroke-linecap="butt" stroke-linejoin="miter" fill-opacity="0" stroke-miterlimit="4" stroke="rgb(24,115,232)" stroke-opacity="1" stroke-width="12" d=" M-53.599998474121094,-47 C-53.599998474121094,-47 -53.599998474121094,-67 -33.599998474121094,-67 C-13.600000381469727,-67 -13.600000381469727,-47 -13.600000381469727,-47 C-13.600000381469727,-47 -13.600000381469727,-27 6.400000095367432,-27 C26.399999618530273,-27 26.399999618530273,-47 26.399999618530273,-47"></path></g></g><g transform="matrix(1.25,0,0,1.25,88.75,126.25)" opacity="1" style="display: block;"><g opacity="1" transform="matrix(1,0,0,1,0,0)"><path stroke-linecap="butt" stroke-linejoin="miter" fill-opacity="0" stroke-miterlimit="4" stroke="rgb(24,115,232)" stroke-opacity="1" stroke-width="12" d=" M-55,-45 C-55,-45 -55,-65 -35,-65 C-15,-65 -15,-45 -15,-45 C-15,-45 -15,-25 5,-25 C25,-25 25,-45 25,-45"></path></g></g></g><g clip-path="url(#__lottie_element_6712)" transform="matrix(0.5,0,0,0.5,281.25,0)" opacity="1" style="display: block;"><g transform="matrix(1.25,0,0,1.25,176.8625030517578,248.61749267578125)" opacity="1" style="display: block;"><g opacity="1" transform="matrix(1,0,0,1,0.10999999940395355,0.10599999874830246)"><path stroke-linecap="butt" stroke-linejoin="miter" fill-opacity="0" stroke-miterlimit="4" stroke="rgb(24,115,232)" stroke-opacity="1" stroke-width="12" d=" M-53.599998474121094,-47 C-53.599998474121094,-47 -53.599998474121094,-67 -33.599998474121094,-67 C-13.600000381469727,-67 -13.600000381469727,-47 -13.600000381469727,-47 C-13.600000381469727,-47 -13.600000381469727,-27 6.400000095367432,-27 C26.399999618530273,-27 26.399999618530273,-47 26.399999618530273,-47"></path></g></g><g transform="matrix(1.25,0,0,1.25,88.75,126.25)" opacity="1" style="display: block;"><g opacity="1" transform="matrix(1,0,0,1,0,0)"><path stroke-linecap="butt" stroke-linejoin="miter" fill-opacity="0" stroke-miterlimit="4" stroke="rgb(24,115,232)" stroke-opacity="1" stroke-width="12" d=" M-55,-45 C-55,-45 -55,-65 -35,-65 C-15,-65 -15,-45 -15,-45 C-15,-45 -15,-25 5,-25 C25,-25 25,-45 25,-45"></path></g></g></g><g clip-path="url(#__lottie_element_6716)" transform="matrix(0.5,0,0,0.5,281.25,125)" opacity="1" style="display: block;"><g transform="matrix(-1.25,0,0,-1.25,143.1374969482422,131.38250732421875)" opacity="1" style="display: block;"><g opacity="1" transform="matrix(1,0,0,1,0.10999999940395355,0.10599999874830246)"><path stroke-linecap="butt" stroke-linejoin="miter" fill-opacity="0" stroke-miterlimit="4" stroke="rgb(24,115,232)" stroke-opacity="1" stroke-width="12" d=" M-53.599998474121094,-47 C-53.599998474121094,-47 -53.599998474121094,-67 -33.599998474121094,-67 C-13.600000381469727,-67 -13.600000381469727,-47 -13.600000381469727,-47 C-13.600000381469727,-47 -13.600000381469727,-27 6.400000095367432,-27 C26.399999618530273,-27 26.399999618530273,-47 26.399999618530273,-47"></path></g></g><g transform="matrix(1.25,0,0,1.25,88.75,126.25)" opacity="1" style="display: block;"><g opacity="1" transform="matrix(1,0,0,1,0,0)"><path stroke-linecap="butt" stroke-linejoin="miter" fill-opacity="0" stroke-miterlimit="4" stroke="rgb(24,115,232)" stroke-opacity="1" stroke-width="12" d=" M-55,-45 C-55,-45 -55,-65 -35,-65 C-15,-65 -15,-45 -15,-45 C-15,-45 -15,-25 5,-25 C25,-25 25,-45 25,-45"></path></g></g></g><g clip-path="url(#__lottie_element_6720)" transform="matrix(0.5,0,0,0.5,281.25,250)" opacity="1" style="display: block;"><g transform="matrix(1.25,0,0,1.25,176.8625030517578,248.61749267578125)" opacity="1" style="display: block;"><g opacity="1" transform="matrix(1,0,0,1,0.10999999940395355,0.10599999874830246)"><path stroke-linecap="butt" stroke-linejoin="miter" fill-opacity="0" stroke-miterlimit="4" stroke="rgb(24,115,232)" stroke-opacity="1" stroke-width="12" d=" M-53.599998474121094,-47 C-53.599998474121094,-47 -53.599998474121094,-67 -33.599998474121094,-67 C-13.600000381469727,-67 -13.600000381469727,-47 -13.600000381469727,-47 C-13.600000381469727,-47 -13.600000381469727,-27 6.400000095367432,-27 C26.399999618530273,-27 26.399999618530273,-47 26.399999618530273,-47"></path></g></g><g transform="matrix(1.25,0,0,1.25,88.75,126.25)" opacity="1" style="display: block;"><g opacity="1" transform="matrix(1,0,0,1,0,0)"><path stroke-linecap="butt" stroke-linejoin="miter" fill-opacity="0" stroke-miterlimit="4" stroke="rgb(24,115,232)" stroke-opacity="1" stroke-width="12" d=" M-55,-45 C-55,-45 -55,-65 -35,-65 C-15,-65 -15,-45 -15,-45 C-15,-45 -15,-25 5,-25 C25,-25 25,-45 25,-45"></path></g></g></g></g></g></g><g mask="url(#__lottie_element_6668)" transform="matrix(1,0,0,1,238.85299682617188,260.1470031738281)" opacity="1" style="display: block;"><path fill="rgb(223,196,206)" fill-opacity="1" d=" M-142.51400756835938,192.60000610351562 C-142.51400756835938,192.60000610351562 -52.99700164794922,103.08200073242188 -52.99700164794922,103.08200073242188 C-2.990999937057495,131.6540069580078 61.81999969482422,124.62799835205078 104.50599670410156,81.94200134277344 C155.64700317382812,30.801000595092773 155.64700317382812,-52.1150016784668 104.50599670410156,-103.25599670410156 C53.3650016784668,-154.39700317382812 -29.551000595092773,-154.39700317382812 -80.69200134277344,-103.25599670410156 C-123.37799835205078,-60.56999969482422 -130.4040069580078,4.241000175476074 -101.83200073242188,54.24700164794922 C-101.83200073242188,54.24700164794922 -191.35000610351562,143.76400756835938 -191.35000610351562,143.76400756835938 C-191.35000610351562,143.76400756835938 -142.51400756835938,192.60000610351562 -142.51400756835938,192.60000610351562z"></path><path stroke-linecap="butt" stroke-linejoin="miter" fill-opacity="0" stroke-miterlimit="4" stroke="rgb(20,20,20)" stroke-opacity="1" stroke-width="2" d=" M-142.51400756835938,192.60000610351562 C-142.51400756835938,192.60000610351562 -52.99700164794922,103.08200073242188 -52.99700164794922,103.08200073242188 C-2.990999937057495,131.6540069580078 61.81999969482422,124.62799835205078 104.50599670410156,81.94200134277344 C155.64700317382812,30.801000595092773 155.64700317382812,-52.1150016784668 104.50599670410156,-103.25599670410156 C53.3650016784668,-154.39700317382812 -29.551000595092773,-154.39700317382812 -80.69200134277344,-103.25599670410156 C-123.37799835205078,-60.56999969482422 -130.4040069580078,4.241000175476074 -101.83200073242188,54.24700164794922 C-101.83200073242188,54.24700164794922 -191.35000610351562,143.76400756835938 -191.35000610351562,143.76400756835938 C-191.35000610351562,143.76400756835938 -142.51400756835938,192.60000610351562 -142.51400756835938,192.60000610351562z"></path></g><g transform="matrix(1,0,0,1,238.85299682617188,260.1470031738281)" opacity="1" style="display: block;"><path stroke-linecap="butt" stroke-linejoin="miter" fill-opacity="0" stroke-miterlimit="4" stroke="rgb(20,20,20)" stroke-opacity="1" stroke-width="2" d=" M-37.167999267578125,-59.07099914550781 C-10.592000007629395,-85.64700317382812 32.494998931884766,-85.64700317382812 59.07099914550781,-59.07099914550781 C85.64700317382812,-32.494998931884766 85.64700317382812,10.592000007629395 59.07099914550781,37.167999267578125 C32.494998931884766,63.74399948120117 -10.592000007629395,63.74399948120117 -37.167999267578125,37.167999267578125 C-63.74399948120117,10.592000007629395 -63.74399948120117,-32.494998931884766 -37.167999267578125,-59.07099914550781z"></path></g><g transform="matrix(1,0,0,1,250,250)" opacity="1" style="display: block;"></g></g></svg>