<svg xmlns="http://www.w3.org/2000/svg" viewBox="0 0 500 500" width="500" height="500" preserveAspectRatio="xMidYMid meet" style="width: 100%; height: 100%; transform: translate3d(0px, 0px, 0px);"><defs><clipPath id="__lottie_element_6784"><rect width="500" height="500" x="0" y="0"></rect></clipPath><clipPath id="__lottie_element_6792"><path d="M0,0 L500,0 L500,500 L0,500z"></path></clipPath><clipPath id="__lottie_element_6793"><path fill="#ffffff" clip-rule="nonzero" d=" M491.93499755859375,64.9010009765625 C491.93499755859375,64.9010009765625 7.664999961853027,63.709999084472656 7.664999961853027,63.709999084472656 C7.664999961853027,63.709999084472656 7.3379998207092285,163.6580047607422 7.3379998207092285,163.6580047607422 C7.3379998207092285,163.6580047607422 491.93499755859375,164.51600646972656 491.93499755859375,164.51600646972656 C491.93499755859375,164.51600646972656 491.93499755859375,64.9010009765625 491.93499755859375,64.9010009765625" fill-opacity="1"></path></clipPath><clipPath id="__lottie_element_6802"><path d="M0,0 L250,0 L250,250 L0,250z"></path></clipPath><clipPath id="__lottie_element_6806"><path d="M0,0 L250,0 L250,250 L0,250z"></path></clipPath><clipPath id="__lottie_element_6810"><path d="M0,0 L250,0 L250,250 L0,250z"></path></clipPath><clipPath id="__lottie_element_6814"><path d="M0,0 L250,0 L250,250 L0,250z"></path></clipPath><clipPath id="__lottie_element_6818"><path d="M0,0 L250,0 L250,250 L0,250z"></path></clipPath></defs><g clip-path="url(#__lottie_element_6784)"><g transform="matrix(0.9694700241088867,0,0,1.0417200326919556,250.58299255371094,250)" opacity="1" style="display: block;"><g opacity="1" transform="matrix(0.9993199706077576,0,0,0.9042699933052063,-0.5830000042915344,30.086000442504883)"><path fill="rgb(120,169,247)" fill-opacity="1" d=" M154.8939971923828,-125.77549743652344 C154.8939971923828,-125.77549743652344 154.8939971923828,125.77549743652344 154.8939971923828,125.77549743652344 C154.8939971923828,125.77549743652344 -154.8939971923828,125.77549743652344 -154.8939971923828,125.77549743652344 C-154.8939971923828,125.77549743652344 -154.8939971923828,-125.77549743652344 -154.8939971923828,-125.77549743652344 C-154.8939971923828,-125.77549743652344 154.8939971923828,-125.77549743652344 154.8939971923828,-125.77549743652344z"></path><path stroke-linecap="butt" stroke-linejoin="miter" fill-opacity="0" stroke-miterlimit="4" stroke="rgb(20,20,20)" stroke-opacity="1" stroke-width="2" d=" M154.8939971923828,-125.77549743652344 C154.8939971923828,-125.77549743652344 154.8939971923828,125.77549743652344 154.8939971923828,125.77549743652344 C154.8939971923828,125.77549743652344 -154.8939971923828,125.77549743652344 -154.8939971923828,125.77549743652344 C-154.8939971923828,125.77549743652344 -154.8939971923828,-125.77549743652344 -154.8939971923828,-125.77549743652344 C-154.8939971923828,-125.77549743652344 154.8939971923828,-125.77549743652344 154.8939971923828,-125.77549743652344z"></path></g></g><g transform="matrix(1,0,0,1,295.2659912109375,313.7929992675781)" opacity="1" style="display: block;"><g opacity="1" transform="matrix(1,0,0,1,-64.35700225830078,-38.61399841308594)"><path fill="rgb(249,214,72)" fill-opacity="1" d=" M77.55699920654297,0 C77.55699920654297,0 -38.778499603271484,67.16632843017578 -38.778499603271484,67.16632843017578 C-38.778499603271484,67.16632843017578 -38.778499603271484,-67.16632843017578 -38.778499603271484,-67.16632843017578 C-38.778499603271484,-67.16632843017578 77.55699920654297,0 77.55699920654297,0z"></path><path stroke-linecap="butt" stroke-linejoin="miter" fill-opacity="0" stroke-miterlimit="4" stroke="rgb(20,20,20)" stroke-opacity="1" stroke-width="2" d=" M77.55699920654297,0 C77.55699920654297,0 -38.778499603271484,67.16632843017578 -38.778499603271484,67.16632843017578 C-38.778499603271484,67.16632843017578 -38.778499603271484,-67.16632843017578 -38.778499603271484,-67.16632843017578 C-38.778499603271484,-67.16632843017578 77.55699920654297,0 77.55699920654297,0z"></path></g></g><g clip-path="url(#__lottie_element_6792)" transform="matrix(0.6200000047683716,0,0,0.6200000047683716,95,60.5)" opacity="1" style="display: block;"><g clip-path="url(#__lottie_element_6793)"><g transform="matrix(1,0,0,1,0,-8)" opacity="1" style="display: block;"><rect width="500" height="500" fill="#22bc85"></rect></g><g clip-path="url(#__lottie_element_6802)" transform="matrix(0.4000000059604645,0,0,0.4000000059604645,184,64.5)" opacity="1" style="display: block;"><g transform="matrix(1,0,0,1,118,69.15299987792969)" opacity="1" style="display: block;"><g opacity="1" transform="matrix(1,0,0,1,-75.62999725341797,-26.152999877929688)"><path fill="rgb(230,79,155)" fill-opacity="1" d=" M0,-10 C5.519000053405762,-10 10,-5.519000053405762 10,0 C10,5.519000053405762 5.519000053405762,10 0,10 C-5.519000053405762,10 -10,5.519000053405762 -10,0 C-10,-5.519000053405762 -5.519000053405762,-10 0,-10z"></path></g></g><g transform="matrix(1,0,0,1,200.75,68.65299987792969)" opacity="1" style="display: block;"><g opacity="1" transform="matrix(1.25,0,0,1.25,-75.62999725341797,-26.152999877929688)"><path fill="rgb(230,79,155)" fill-opacity="1" d=" M0,-10 C5.519000053405762,-10 10,-5.519000053405762 10,0 C10,5.519000053405762 5.519000053405762,10 0,10 C-5.519000053405762,10 -10,5.519000053405762 -10,0 C-10,-5.519000053405762 -5.519000053405762,-10 0,-10z"></path></g></g><g transform="matrix(1,0,0,1,283,68.65299987792969)" opacity="1" style="display: block;"><g opacity="1" transform="matrix(1.5,0,0,1.5,-75.62999725341797,-26.152999877929688)"><path fill="rgb(230,79,155)" fill-opacity="1" d=" M0,-10 C5.519000053405762,-10 10,-5.519000053405762 10,0 C10,5.519000053405762 5.519000053405762,10 0,10 C-5.519000053405762,10 -10,5.519000053405762 -10,0 C-10,-5.519000053405762 -5.519000053405762,-10 0,-10z"></path></g></g><g transform="matrix(1,0,0,1,118,152.4029998779297)" opacity="1" style="display: block;"><g opacity="1" transform="matrix(1.25,0,0,1.25,-75.62999725341797,-26.152999877929688)"><path fill="rgb(230,79,155)" fill-opacity="1" d=" M0,-10 C5.519000053405762,-10 10,-5.519000053405762 10,0 C10,5.519000053405762 5.519000053405762,10 0,10 C-5.519000053405762,10 -10,5.519000053405762 -10,0 C-10,-5.519000053405762 -5.519000053405762,-10 0,-10z"></path></g></g><g transform="matrix(1,0,0,1,200.75,151.9029998779297)" opacity="1" style="display: block;"><g opacity="1" transform="matrix(1.5,0,0,1.5,-75.62999725341797,-26.152999877929688)"><path fill="rgb(230,79,155)" fill-opacity="1" d=" M0,-10 C5.519000053405762,-10 10,-5.519000053405762 10,0 C10,5.519000053405762 5.519000053405762,10 0,10 C-5.519000053405762,10 -10,5.519000053405762 -10,0 C-10,-5.519000053405762 -5.519000053405762,-10 0,-10z"></path></g></g><g transform="matrix(1,0,0,1,283,151.9029998779297)" opacity="1" style="display: block;"><g opacity="1" transform="matrix(1.25,0,0,1.25,-75.62999725341797,-26.152999877929688)"><path fill="rgb(230,79,155)" fill-opacity="1" d=" M0,-10 C5.519000053405762,-10 10,-5.519000053405762 10,0 C10,5.519000053405762 5.519000053405762,10 0,10 C-5.519000053405762,10 -10,5.519000053405762 -10,0 C-10,-5.519000053405762 -5.519000053405762,-10 0,-10z"></path></g></g><g transform="matrix(1,0,0,1,118,235.6529998779297)" opacity="1" style="display: block;"><g opacity="1" transform="matrix(1.5,0,0,1.5,-75.62999725341797,-26.152999877929688)"><path fill="rgb(230,79,155)" fill-opacity="1" d=" M0,-10 C5.519000053405762,-10 10,-5.519000053405762 10,0 C10,5.519000053405762 5.519000053405762,10 0,10 C-5.519000053405762,10 -10,5.519000053405762 -10,0 C-10,-5.519000053405762 -5.519000053405762,-10 0,-10z"></path></g></g><g transform="matrix(1,0,0,1,200.75,235.1529998779297)" opacity="1" style="display: block;"><g opacity="1" transform="matrix(1.25,0,0,1.25,-75.62999725341797,-26.152999877929688)"><path fill="rgb(230,79,155)" fill-opacity="1" d=" M0,-10 C5.519000053405762,-10 10,-5.519000053405762 10,0 C10,5.519000053405762 5.519000053405762,10 0,10 C-5.519000053405762,10 -10,5.519000053405762 -10,0 C-10,-5.519000053405762 -5.519000053405762,-10 0,-10z"></path></g></g><g transform="matrix(1,0,0,1,283,235.1529998779297)" opacity="1" style="display: block;"><g opacity="1" transform="matrix(1,0,0,1,-75.62999725341797,-26.152999877929688)"></g><g opacity="1" transform="matrix(1,0,0,1,-75.62999725341797,-26.152999877929688)"></g><g opacity="1" transform="matrix(1,0,0,1,-75.62999725341797,-26.152999877929688)"><path fill="rgb(230,79,155)" fill-opacity="1" d=" M0,-10 C5.519000053405762,-10 10,-5.519000053405762 10,0 C10,5.519000053405762 5.519000053405762,10 0,10 C-5.519000053405762,10 -10,5.519000053405762 -10,0 C-10,-5.519000053405762 -5.519000053405762,-10 0,-10z"></path></g></g></g><g clip-path="url(#__lottie_element_6806)" transform="matrix(0.4000000059604645,0,0,0.4000000059604645,285.75,64.5)" opacity="1" style="display: block;"><g transform="matrix(1,0,0,1,118,69.15299987792969)" opacity="1" style="display: block;"><g opacity="1" transform="matrix(1,0,0,1,-75.62999725341797,-26.152999877929688)"><path fill="rgb(230,79,155)" fill-opacity="1" d=" M0,-10 C5.519000053405762,-10 10,-5.519000053405762 10,0 C10,5.519000053405762 5.519000053405762,10 0,10 C-5.519000053405762,10 -10,5.519000053405762 -10,0 C-10,-5.519000053405762 -5.519000053405762,-10 0,-10z"></path></g></g><g transform="matrix(1,0,0,1,200.75,68.65299987792969)" opacity="1" style="display: block;"><g opacity="1" transform="matrix(1.25,0,0,1.25,-75.62999725341797,-26.152999877929688)"><path fill="rgb(230,79,155)" fill-opacity="1" d=" M0,-10 C5.519000053405762,-10 10,-5.519000053405762 10,0 C10,5.519000053405762 5.519000053405762,10 0,10 C-5.519000053405762,10 -10,5.519000053405762 -10,0 C-10,-5.519000053405762 -5.519000053405762,-10 0,-10z"></path></g></g><g transform="matrix(1,0,0,1,283,68.65299987792969)" opacity="1" style="display: block;"><g opacity="1" transform="matrix(1.5,0,0,1.5,-75.62999725341797,-26.152999877929688)"><path fill="rgb(230,79,155)" fill-opacity="1" d=" M0,-10 C5.519000053405762,-10 10,-5.519000053405762 10,0 C10,5.519000053405762 5.519000053405762,10 0,10 C-5.519000053405762,10 -10,5.519000053405762 -10,0 C-10,-5.519000053405762 -5.519000053405762,-10 0,-10z"></path></g></g><g transform="matrix(1,0,0,1,118,152.4029998779297)" opacity="1" style="display: block;"><g opacity="1" transform="matrix(1.25,0,0,1.25,-75.62999725341797,-26.152999877929688)"><path fill="rgb(230,79,155)" fill-opacity="1" d=" M0,-10 C5.519000053405762,-10 10,-5.519000053405762 10,0 C10,5.519000053405762 5.519000053405762,10 0,10 C-5.519000053405762,10 -10,5.519000053405762 -10,0 C-10,-5.519000053405762 -5.519000053405762,-10 0,-10z"></path></g></g><g transform="matrix(1,0,0,1,200.75,151.9029998779297)" opacity="1" style="display: block;"><g opacity="1" transform="matrix(1.5,0,0,1.5,-75.62999725341797,-26.152999877929688)"><path fill="rgb(230,79,155)" fill-opacity="1" d=" M0,-10 C5.519000053405762,-10 10,-5.519000053405762 10,0 C10,5.519000053405762 5.519000053405762,10 0,10 C-5.519000053405762,10 -10,5.519000053405762 -10,0 C-10,-5.519000053405762 -5.519000053405762,-10 0,-10z"></path></g></g><g transform="matrix(1,0,0,1,283,151.9029998779297)" opacity="1" style="display: block;"><g opacity="1" transform="matrix(1.25,0,0,1.25,-75.62999725341797,-26.152999877929688)"><path fill="rgb(230,79,155)" fill-opacity="1" d=" M0,-10 C5.519000053405762,-10 10,-5.519000053405762 10,0 C10,5.519000053405762 5.519000053405762,10 0,10 C-5.519000053405762,10 -10,5.519000053405762 -10,0 C-10,-5.519000053405762 -5.519000053405762,-10 0,-10z"></path></g></g><g transform="matrix(1,0,0,1,118,235.6529998779297)" opacity="1" style="display: block;"><g opacity="1" transform="matrix(1.5,0,0,1.5,-75.62999725341797,-26.152999877929688)"><path fill="rgb(230,79,155)" fill-opacity="1" d=" M0,-10 C5.519000053405762,-10 10,-5.519000053405762 10,0 C10,5.519000053405762 5.519000053405762,10 0,10 C-5.519000053405762,10 -10,5.519000053405762 -10,0 C-10,-5.519000053405762 -5.519000053405762,-10 0,-10z"></path></g></g><g transform="matrix(1,0,0,1,200.75,235.1529998779297)" opacity="1" style="display: block;"><g opacity="1" transform="matrix(1.25,0,0,1.25,-75.62999725341797,-26.152999877929688)"><path fill="rgb(230,79,155)" fill-opacity="1" d=" M0,-10 C5.519000053405762,-10 10,-5.519000053405762 10,0 C10,5.519000053405762 5.519000053405762,10 0,10 C-5.519000053405762,10 -10,5.519000053405762 -10,0 C-10,-5.519000053405762 -5.519000053405762,-10 0,-10z"></path></g></g><g transform="matrix(1,0,0,1,283,235.1529998779297)" opacity="1" style="display: block;"><g opacity="1" transform="matrix(1,0,0,1,-75.62999725341797,-26.152999877929688)"></g><g opacity="1" transform="matrix(1,0,0,1,-75.62999725341797,-26.152999877929688)"></g><g opacity="1" transform="matrix(1,0,0,1,-75.62999725341797,-26.152999877929688)"><path fill="rgb(230,79,155)" fill-opacity="1" d=" M0,-10 C5.519000053405762,-10 10,-5.519000053405762 10,0 C10,5.519000053405762 5.519000053405762,10 0,10 C-5.519000053405762,10 -10,5.519000053405762 -10,0 C-10,-5.519000053405762 -5.519000053405762,-10 0,-10z"></path></g></g></g><g clip-path="url(#__lottie_element_6810)" transform="matrix(0.4000000059604645,0,0,0.4000000059604645,82.25,64.5)" opacity="1" style="display: block;"><g transform="matrix(1,0,0,1,118,69.15299987792969)" opacity="1" style="display: block;"><g opacity="1" transform="matrix(1,0,0,1,-75.62999725341797,-26.152999877929688)"><path fill="rgb(230,79,155)" fill-opacity="1" d=" M0,-10 C5.519000053405762,-10 10,-5.519000053405762 10,0 C10,5.519000053405762 5.519000053405762,10 0,10 C-5.519000053405762,10 -10,5.519000053405762 -10,0 C-10,-5.519000053405762 -5.519000053405762,-10 0,-10z"></path></g></g><g transform="matrix(1,0,0,1,200.75,68.65299987792969)" opacity="1" style="display: block;"><g opacity="1" transform="matrix(1.25,0,0,1.25,-75.62999725341797,-26.152999877929688)"><path fill="rgb(230,79,155)" fill-opacity="1" d=" M0,-10 C5.519000053405762,-10 10,-5.519000053405762 10,0 C10,5.519000053405762 5.519000053405762,10 0,10 C-5.519000053405762,10 -10,5.519000053405762 -10,0 C-10,-5.519000053405762 -5.519000053405762,-10 0,-10z"></path></g></g><g transform="matrix(1,0,0,1,283,68.65299987792969)" opacity="1" style="display: block;"><g opacity="1" transform="matrix(1.5,0,0,1.5,-75.62999725341797,-26.152999877929688)"><path fill="rgb(230,79,155)" fill-opacity="1" d=" M0,-10 C5.519000053405762,-10 10,-5.519000053405762 10,0 C10,5.519000053405762 5.519000053405762,10 0,10 C-5.519000053405762,10 -10,5.519000053405762 -10,0 C-10,-5.519000053405762 -5.519000053405762,-10 0,-10z"></path></g></g><g transform="matrix(1,0,0,1,118,152.4029998779297)" opacity="1" style="display: block;"><g opacity="1" transform="matrix(1.25,0,0,1.25,-75.62999725341797,-26.152999877929688)"><path fill="rgb(230,79,155)" fill-opacity="1" d=" M0,-10 C5.519000053405762,-10 10,-5.519000053405762 10,0 C10,5.519000053405762 5.519000053405762,10 0,10 C-5.519000053405762,10 -10,5.519000053405762 -10,0 C-10,-5.519000053405762 -5.519000053405762,-10 0,-10z"></path></g></g><g transform="matrix(1,0,0,1,200.75,151.9029998779297)" opacity="1" style="display: block;"><g opacity="1" transform="matrix(1.5,0,0,1.5,-75.62999725341797,-26.152999877929688)"><path fill="rgb(230,79,155)" fill-opacity="1" d=" M0,-10 C5.519000053405762,-10 10,-5.519000053405762 10,0 C10,5.519000053405762 5.519000053405762,10 0,10 C-5.519000053405762,10 -10,5.519000053405762 -10,0 C-10,-5.519000053405762 -5.519000053405762,-10 0,-10z"></path></g></g><g transform="matrix(1,0,0,1,283,151.9029998779297)" opacity="1" style="display: block;"><g opacity="1" transform="matrix(1.25,0,0,1.25,-75.62999725341797,-26.152999877929688)"><path fill="rgb(230,79,155)" fill-opacity="1" d=" M0,-10 C5.519000053405762,-10 10,-5.519000053405762 10,0 C10,5.519000053405762 5.519000053405762,10 0,10 C-5.519000053405762,10 -10,5.519000053405762 -10,0 C-10,-5.519000053405762 -5.519000053405762,-10 0,-10z"></path></g></g><g transform="matrix(1,0,0,1,118,235.6529998779297)" opacity="1" style="display: block;"><g opacity="1" transform="matrix(1.5,0,0,1.5,-75.62999725341797,-26.152999877929688)"><path fill="rgb(230,79,155)" fill-opacity="1" d=" M0,-10 C5.519000053405762,-10 10,-5.519000053405762 10,0 C10,5.519000053405762 5.519000053405762,10 0,10 C-5.519000053405762,10 -10,5.519000053405762 -10,0 C-10,-5.519000053405762 -5.519000053405762,-10 0,-10z"></path></g></g><g transform="matrix(1,0,0,1,200.75,235.1529998779297)" opacity="1" style="display: block;"><g opacity="1" transform="matrix(1.25,0,0,1.25,-75.62999725341797,-26.152999877929688)"><path fill="rgb(230,79,155)" fill-opacity="1" d=" M0,-10 C5.519000053405762,-10 10,-5.519000053405762 10,0 C10,5.519000053405762 5.519000053405762,10 0,10 C-5.519000053405762,10 -10,5.519000053405762 -10,0 C-10,-5.519000053405762 -5.519000053405762,-10 0,-10z"></path></g></g><g transform="matrix(1,0,0,1,283,235.1529998779297)" opacity="1" style="display: block;"><g opacity="1" transform="matrix(1,0,0,1,-75.62999725341797,-26.152999877929688)"></g><g opacity="1" transform="matrix(1,0,0,1,-75.62999725341797,-26.152999877929688)"></g><g opacity="1" transform="matrix(1,0,0,1,-75.62999725341797,-26.152999877929688)"><path fill="rgb(230,79,155)" fill-opacity="1" d=" M0,-10 C5.519000053405762,-10 10,-5.519000053405762 10,0 C10,5.519000053405762 5.519000053405762,10 0,10 C-5.519000053405762,10 -10,5.519000053405762 -10,0 C-10,-5.519000053405762 -5.519000053405762,-10 0,-10z"></path></g></g></g><g clip-path="url(#__lottie_element_6814)" transform="matrix(0.4000000059604645,0,0,0.4000000059604645,387.5,64.5)" opacity="1" style="display: block;"><g transform="matrix(1,0,0,1,118,69.15299987792969)" opacity="1" style="display: block;"><g opacity="1" transform="matrix(1,0,0,1,-75.62999725341797,-26.152999877929688)"><path fill="rgb(230,79,155)" fill-opacity="1" d=" M0,-10 C5.519000053405762,-10 10,-5.519000053405762 10,0 C10,5.519000053405762 5.519000053405762,10 0,10 C-5.519000053405762,10 -10,5.519000053405762 -10,0 C-10,-5.519000053405762 -5.519000053405762,-10 0,-10z"></path></g></g><g transform="matrix(1,0,0,1,200.75,68.65299987792969)" opacity="1" style="display: block;"><g opacity="1" transform="matrix(1.25,0,0,1.25,-75.62999725341797,-26.152999877929688)"><path fill="rgb(230,79,155)" fill-opacity="1" d=" M0,-10 C5.519000053405762,-10 10,-5.519000053405762 10,0 C10,5.519000053405762 5.519000053405762,10 0,10 C-5.519000053405762,10 -10,5.519000053405762 -10,0 C-10,-5.519000053405762 -5.519000053405762,-10 0,-10z"></path></g></g><g transform="matrix(1,0,0,1,283,68.65299987792969)" opacity="1" style="display: block;"><g opacity="1" transform="matrix(1.5,0,0,1.5,-75.62999725341797,-26.152999877929688)"><path fill="rgb(230,79,155)" fill-opacity="1" d=" M0,-10 C5.519000053405762,-10 10,-5.519000053405762 10,0 C10,5.519000053405762 5.519000053405762,10 0,10 C-5.519000053405762,10 -10,5.519000053405762 -10,0 C-10,-5.519000053405762 -5.519000053405762,-10 0,-10z"></path></g></g><g transform="matrix(1,0,0,1,118,152.4029998779297)" opacity="1" style="display: block;"><g opacity="1" transform="matrix(1.25,0,0,1.25,-75.62999725341797,-26.152999877929688)"><path fill="rgb(230,79,155)" fill-opacity="1" d=" M0,-10 C5.519000053405762,-10 10,-5.519000053405762 10,0 C10,5.519000053405762 5.519000053405762,10 0,10 C-5.519000053405762,10 -10,5.519000053405762 -10,0 C-10,-5.519000053405762 -5.519000053405762,-10 0,-10z"></path></g></g><g transform="matrix(1,0,0,1,200.75,151.9029998779297)" opacity="1" style="display: block;"><g opacity="1" transform="matrix(1.5,0,0,1.5,-75.62999725341797,-26.152999877929688)"><path fill="rgb(230,79,155)" fill-opacity="1" d=" M0,-10 C5.519000053405762,-10 10,-5.519000053405762 10,0 C10,5.519000053405762 5.519000053405762,10 0,10 C-5.519000053405762,10 -10,5.519000053405762 -10,0 C-10,-5.519000053405762 -5.519000053405762,-10 0,-10z"></path></g></g><g transform="matrix(1,0,0,1,283,151.9029998779297)" opacity="1" style="display: block;"><g opacity="1" transform="matrix(1.25,0,0,1.25,-75.62999725341797,-26.152999877929688)"><path fill="rgb(230,79,155)" fill-opacity="1" d=" M0,-10 C5.519000053405762,-10 10,-5.519000053405762 10,0 C10,5.519000053405762 5.519000053405762,10 0,10 C-5.519000053405762,10 -10,5.519000053405762 -10,0 C-10,-5.519000053405762 -5.519000053405762,-10 0,-10z"></path></g></g><g transform="matrix(1,0,0,1,118,235.6529998779297)" opacity="1" style="display: block;"><g opacity="1" transform="matrix(1.5,0,0,1.5,-75.62999725341797,-26.152999877929688)"><path fill="rgb(230,79,155)" fill-opacity="1" d=" M0,-10 C5.519000053405762,-10 10,-5.519000053405762 10,0 C10,5.519000053405762 5.519000053405762,10 0,10 C-5.519000053405762,10 -10,5.519000053405762 -10,0 C-10,-5.519000053405762 -5.519000053405762,-10 0,-10z"></path></g></g><g transform="matrix(1,0,0,1,200.75,235.1529998779297)" opacity="1" style="display: block;"><g opacity="1" transform="matrix(1.25,0,0,1.25,-75.62999725341797,-26.152999877929688)"><path fill="rgb(230,79,155)" fill-opacity="1" d=" M0,-10 C5.519000053405762,-10 10,-5.519000053405762 10,0 C10,5.519000053405762 5.519000053405762,10 0,10 C-5.519000053405762,10 -10,5.519000053405762 -10,0 C-10,-5.519000053405762 -5.519000053405762,-10 0,-10z"></path></g></g><g transform="matrix(1,0,0,1,283,235.1529998779297)" opacity="1" style="display: block;"><g opacity="1" transform="matrix(1,0,0,1,-75.62999725341797,-26.152999877929688)"></g><g opacity="1" transform="matrix(1,0,0,1,-75.62999725341797,-26.152999877929688)"></g><g opacity="1" transform="matrix(1,0,0,1,-75.62999725341797,-26.152999877929688)"><path fill="rgb(230,79,155)" fill-opacity="1" d=" M0,-10 C5.519000053405762,-10 10,-5.519000053405762 10,0 C10,5.519000053405762 5.519000053405762,10 0,10 C-5.519000053405762,10 -10,5.519000053405762 -10,0 C-10,-5.519000053405762 -5.519000053405762,-10 0,-10z"></path></g></g></g><g clip-path="url(#__lottie_element_6818)" transform="matrix(0.4000000059604645,0,0,0.4000000059604645,-19.5,64.5)" opacity="1" style="display: block;"><g transform="matrix(1,0,0,1,118,69.15299987792969)" opacity="1" style="display: block;"><g opacity="1" transform="matrix(1,0,0,1,-75.62999725341797,-26.152999877929688)"><path fill="rgb(230,79,155)" fill-opacity="1" d=" M0,-10 C5.519000053405762,-10 10,-5.519000053405762 10,0 C10,5.519000053405762 5.519000053405762,10 0,10 C-5.519000053405762,10 -10,5.519000053405762 -10,0 C-10,-5.519000053405762 -5.519000053405762,-10 0,-10z"></path></g></g><g transform="matrix(1,0,0,1,200.75,68.65299987792969)" opacity="1" style="display: block;"><g opacity="1" transform="matrix(1.25,0,0,1.25,-75.62999725341797,-26.152999877929688)"><path fill="rgb(230,79,155)" fill-opacity="1" d=" M0,-10 C5.519000053405762,-10 10,-5.519000053405762 10,0 C10,5.519000053405762 5.519000053405762,10 0,10 C-5.519000053405762,10 -10,5.519000053405762 -10,0 C-10,-5.519000053405762 -5.519000053405762,-10 0,-10z"></path></g></g><g transform="matrix(1,0,0,1,283,68.65299987792969)" opacity="1" style="display: block;"><g opacity="1" transform="matrix(1.5,0,0,1.5,-75.62999725341797,-26.152999877929688)"><path fill="rgb(230,79,155)" fill-opacity="1" d=" M0,-10 C5.519000053405762,-10 10,-5.519000053405762 10,0 C10,5.519000053405762 5.519000053405762,10 0,10 C-5.519000053405762,10 -10,5.519000053405762 -10,0 C-10,-5.519000053405762 -5.519000053405762,-10 0,-10z"></path></g></g><g transform="matrix(1,0,0,1,118,152.4029998779297)" opacity="1" style="display: block;"><g opacity="1" transform="matrix(1.25,0,0,1.25,-75.62999725341797,-26.152999877929688)"><path fill="rgb(230,79,155)" fill-opacity="1" d=" M0,-10 C5.519000053405762,-10 10,-5.519000053405762 10,0 C10,5.519000053405762 5.519000053405762,10 0,10 C-5.519000053405762,10 -10,5.519000053405762 -10,0 C-10,-5.519000053405762 -5.519000053405762,-10 0,-10z"></path></g></g><g transform="matrix(1,0,0,1,200.75,151.9029998779297)" opacity="1" style="display: block;"><g opacity="1" transform="matrix(1.5,0,0,1.5,-75.62999725341797,-26.152999877929688)"><path fill="rgb(230,79,155)" fill-opacity="1" d=" M0,-10 C5.519000053405762,-10 10,-5.519000053405762 10,0 C10,5.519000053405762 5.519000053405762,10 0,10 C-5.519000053405762,10 -10,5.519000053405762 -10,0 C-10,-5.519000053405762 -5.519000053405762,-10 0,-10z"></path></g></g><g transform="matrix(1,0,0,1,283,151.9029998779297)" opacity="1" style="display: block;"><g opacity="1" transform="matrix(1.25,0,0,1.25,-75.62999725341797,-26.152999877929688)"><path fill="rgb(230,79,155)" fill-opacity="1" d=" M0,-10 C5.519000053405762,-10 10,-5.519000053405762 10,0 C10,5.519000053405762 5.519000053405762,10 0,10 C-5.519000053405762,10 -10,5.519000053405762 -10,0 C-10,-5.519000053405762 -5.519000053405762,-10 0,-10z"></path></g></g><g transform="matrix(1,0,0,1,118,235.6529998779297)" opacity="1" style="display: block;"><g opacity="1" transform="matrix(1.5,0,0,1.5,-75.62999725341797,-26.152999877929688)"><path fill="rgb(230,79,155)" fill-opacity="1" d=" M0,-10 C5.519000053405762,-10 10,-5.519000053405762 10,0 C10,5.519000053405762 5.519000053405762,10 0,10 C-5.519000053405762,10 -10,5.519000053405762 -10,0 C-10,-5.519000053405762 -5.519000053405762,-10 0,-10z"></path></g></g><g transform="matrix(1,0,0,1,200.75,235.1529998779297)" opacity="1" style="display: block;"><g opacity="1" transform="matrix(1.25,0,0,1.25,-75.62999725341797,-26.152999877929688)"><path fill="rgb(230,79,155)" fill-opacity="1" d=" M0,-10 C5.519000053405762,-10 10,-5.519000053405762 10,0 C10,5.519000053405762 5.519000053405762,10 0,10 C-5.519000053405762,10 -10,5.519000053405762 -10,0 C-10,-5.519000053405762 -5.519000053405762,-10 0,-10z"></path></g></g><g transform="matrix(1,0,0,1,283,235.1529998779297)" opacity="1" style="display: block;"><g opacity="1" transform="matrix(1,0,0,1,-75.62999725341797,-26.152999877929688)"></g><g opacity="1" transform="matrix(1,0,0,1,-75.62999725341797,-26.152999877929688)"></g><g opacity="1" transform="matrix(1,0,0,1,-75.62999725341797,-26.152999877929688)"><path fill="rgb(230,79,155)" fill-opacity="1" d=" M0,-10 C5.519000053405762,-10 10,-5.519000053405762 10,0 C10,5.519000053405762 5.519000053405762,10 0,10 C-5.519000053405762,10 -10,5.519000053405762 -10,0 C-10,-5.519000053405762 -5.519000053405762,-10 0,-10z"></path></g></g></g></g></g><g transform="matrix(1,0,0,1,250,250)" opacity="1" style="display: block;"><g opacity="1" transform="matrix(1,0,0,1,0,0)"><path stroke-linecap="butt" stroke-linejoin="miter" fill-opacity="0" stroke-miterlimit="4" stroke="rgb(20,20,20)" stroke-opacity="1" stroke-width="2" d=" M-149.5,-150.5 C-149.5,-150.5 -150,-87.5 -150,-87.5 C-150,-87.5 150,-87.5 150,-87.5 C150,-87.5 150,-150 150,-150 C150,-150 -149.5,-150.5 -149.5,-150.5z"></path></g></g></g></svg>